<svg width="13" height="14" viewBox="0 0 13 14" fill="none" xmlns="http://www.w3.org/2000/svg">
<path d="M1.25016 2.33301C1.25016 2.01084 1.51133 1.74967 1.8335 1.74967H5.91683C6.239 1.74967 6.50016 1.48851 6.50016 1.16634C6.50016 0.844175 6.239 0.583008 5.91683 0.583008H1.8335C0.866998 0.583008 0.0834961 1.36651 0.0834961 2.33301V11.6663C0.0834961 12.6328 0.866998 13.4163 1.8335 13.4163H11.1668C12.1333 13.4163 12.9168 12.6328 12.9168 11.6663V7.58301C12.9168 7.26084 12.6557 6.99967 12.3335 6.99967C12.0113 6.99967 11.7502 7.26084 11.7502 7.58301V11.6663C11.7502 11.9885 11.489 12.2497 11.1668 12.2497H1.8335C1.51133 12.2497 1.25016 11.9885 1.25016 11.6663V2.33301Z" fill="#1E1E1E"/>
<path d="M8.8335 0.583008C8.51133 0.583008 8.25016 0.844175 8.25016 1.16634C8.25016 1.48851 8.51133 1.74967 8.8335 1.74967H10.9252L4.33768 8.3372C4.10988 8.565 4.10988 8.93435 4.33768 9.16215C4.56549 9.38996 4.93484 9.38996 5.16264 9.16215L11.7502 2.57463V4.66634C11.7502 4.98851 12.0113 5.24967 12.3335 5.24967C12.6557 5.24967 12.9168 4.98851 12.9168 4.66634V1.16634C12.9168 0.844175 12.6557 0.583008 12.3335 0.583008H8.8335Z" fill="#1E1E1E"/>
</svg>
