<svg width="68" height="22" viewBox="0 0 68 22" fill="none" xmlns="http://www.w3.org/2000/svg">
<rect width="68" height="22" rx="11" fill="#E9EFEF"/>
<path d="M10.0085 15H8.6108L11.7514 6.27273H13.2727L16.4134 15H15.0156L12.5483 7.85795H12.4801L10.0085 15ZM10.2429 11.5824H14.777V12.6903H10.2429V11.5824ZM22.3505 8.45455L19.9769 15H18.6133L16.2354 8.45455H17.6033L19.261 13.4915H19.3292L20.9826 8.45455H22.3505ZM25.2653 15.1449C24.8505 15.1449 24.4755 15.0682 24.1403 14.9148C23.805 14.7585 23.5394 14.5327 23.3434 14.2372C23.1502 13.9418 23.0536 13.5795 23.0536 13.1506C23.0536 12.7812 23.1246 12.4773 23.2667 12.2386C23.4087 12 23.6005 11.8111 23.842 11.6719C24.0835 11.5327 24.3533 11.4276 24.6516 11.3565C24.9499 11.2855 25.2539 11.2315 25.5636 11.1946C25.9556 11.1491 26.2738 11.1122 26.5181 11.0838C26.7624 11.0526 26.94 11.0028 27.0508 10.9347C27.1616 10.8665 27.217 10.7557 27.217 10.6023V10.5724C27.217 10.2003 27.1119 9.91193 26.9016 9.70739C26.6942 9.50284 26.3846 9.40057 25.9727 9.40057C25.5437 9.40057 25.2056 9.49574 24.9585 9.68608C24.7141 9.87358 24.5451 10.0824 24.4513 10.3125L23.2539 10.0398C23.396 9.64205 23.6033 9.32102 23.8761 9.0767C24.1516 8.82955 24.4684 8.65057 24.8263 8.53977C25.1843 8.42614 25.5607 8.36932 25.9556 8.36932C26.217 8.36932 26.494 8.40057 26.7866 8.46307C27.082 8.52273 27.3576 8.63352 27.6133 8.79545C27.8718 8.95739 28.0835 9.18892 28.2482 9.49006C28.413 9.78835 28.4954 10.1761 28.4954 10.6534V15H27.2511V14.1051H27.1999C27.1175 14.2699 26.994 14.4318 26.8292 14.5909C26.6644 14.75 26.4528 14.8821 26.1942 14.9872C25.9357 15.0923 25.6261 15.1449 25.2653 15.1449ZM25.5423 14.1222C25.8945 14.1222 26.1957 14.0526 26.4457 13.9134C26.6985 13.7741 26.8903 13.5923 27.021 13.3679C27.1545 13.1406 27.2212 12.8977 27.2212 12.6392V11.7955C27.1758 11.8409 27.0877 11.8835 26.957 11.9233C26.8292 11.9602 26.6829 11.9929 26.5181 12.0213C26.3533 12.0469 26.1928 12.071 26.0366 12.0938C25.8803 12.1136 25.7496 12.1307 25.6445 12.1449C25.3974 12.1761 25.1715 12.2287 24.967 12.3026C24.7653 12.3764 24.6033 12.483 24.4812 12.6222C24.3619 12.7585 24.3022 12.9403 24.3022 13.1676C24.3022 13.483 24.4187 13.7216 24.6516 13.8835C24.8846 14.0426 25.1815 14.1222 25.5423 14.1222ZM30.1925 15V8.45455H31.4666V15H30.1925ZM30.8359 7.4446C30.6143 7.4446 30.424 7.37074 30.2649 7.22301C30.1087 7.07244 30.0305 6.89347 30.0305 6.68608C30.0305 6.47585 30.1087 6.29687 30.2649 6.14915C30.424 5.99858 30.6143 5.9233 30.8359 5.9233C31.0575 5.9233 31.2464 5.99858 31.4027 6.14915C31.5618 6.29687 31.6413 6.47585 31.6413 6.68608C31.6413 6.89347 31.5618 7.07244 31.4027 7.22301C31.2464 7.37074 31.0575 7.4446 30.8359 7.4446ZM34.4549 6.27273V15H33.1808V6.27273H34.4549ZM38.0739 15.1449C37.6591 15.1449 37.2841 15.0682 36.9489 14.9148C36.6136 14.7585 36.348 14.5327 36.152 14.2372C35.9588 13.9418 35.8622 13.5795 35.8622 13.1506C35.8622 12.7812 35.9332 12.4773 36.0753 12.2386C36.2173 12 36.4091 11.8111 36.6506 11.6719C36.892 11.5327 37.1619 11.4276 37.4602 11.3565C37.7585 11.2855 38.0625 11.2315 38.3722 11.1946C38.7642 11.1491 39.0824 11.1122 39.3267 11.0838C39.571 11.0526 39.7486 11.0028 39.8594 10.9347C39.9702 10.8665 40.0256 10.7557 40.0256 10.6023V10.5724C40.0256 10.2003 39.9205 9.91193 39.7102 9.70739C39.5028 9.50284 39.1932 9.40057 38.7812 9.40057C38.3523 9.40057 38.0142 9.49574 37.767 9.68608C37.5227 9.87358 37.3537 10.0824 37.2599 10.3125L36.0625 10.0398C36.2045 9.64205 36.4119 9.32102 36.6847 9.0767C36.9602 8.82955 37.277 8.65057 37.6349 8.53977C37.9929 8.42614 38.3693 8.36932 38.7642 8.36932C39.0256 8.36932 39.3026 8.40057 39.5952 8.46307C39.8906 8.52273 40.1662 8.63352 40.4219 8.79545C40.6804 8.95739 40.892 9.18892 41.0568 9.49006C41.2216 9.78835 41.304 10.1761 41.304 10.6534V15H40.0597V14.1051H40.0085C39.9261 14.2699 39.8026 14.4318 39.6378 14.5909C39.473 14.75 39.2614 14.8821 39.0028 14.9872C38.7443 15.0923 38.4347 15.1449 38.0739 15.1449ZM38.3509 14.1222C38.7031 14.1222 39.0043 14.0526 39.2543 13.9134C39.5071 13.7741 39.6989 13.5923 39.8295 13.3679C39.9631 13.1406 40.0298 12.8977 40.0298 12.6392V11.7955C39.9844 11.8409 39.8963 11.8835 39.7656 11.9233C39.6378 11.9602 39.4915 11.9929 39.3267 12.0213C39.1619 12.0469 39.0014 12.071 38.8452 12.0938C38.6889 12.1136 38.5582 12.1307 38.4531 12.1449C38.206 12.1761 37.9801 12.2287 37.7756 12.3026C37.5739 12.3764 37.4119 12.483 37.2898 12.6222C37.1705 12.7585 37.1108 12.9403 37.1108 13.1676C37.1108 13.483 37.2273 13.7216 37.4602 13.8835C37.6932 14.0426 37.9901 14.1222 38.3509 14.1222ZM43.1033 15V6.27273H44.3775V9.51562H44.4542C44.5281 9.37926 44.6346 9.22159 44.7738 9.04261C44.913 8.86364 45.1062 8.70739 45.3533 8.57386C45.6005 8.4375 45.9272 8.36932 46.3335 8.36932C46.8619 8.36932 47.3335 8.50284 47.7482 8.76989C48.163 9.03693 48.4883 9.42187 48.7241 9.92472C48.9627 10.4276 49.082 11.0327 49.082 11.7401C49.082 12.4474 48.9641 13.054 48.7283 13.5597C48.4925 14.0625 48.1687 14.4503 47.7567 14.723C47.3448 14.9929 46.8746 15.1278 46.3462 15.1278C45.9485 15.1278 45.6232 15.0611 45.3704 14.9276C45.1204 14.794 44.9244 14.6378 44.7823 14.4588C44.6403 14.2798 44.5309 14.1207 44.4542 13.9815H44.3477V15H43.1033ZM44.3519 11.7273C44.3519 12.1875 44.4187 12.5909 44.5522 12.9375C44.6857 13.2841 44.8789 13.5554 45.1317 13.7514C45.3846 13.9446 45.6942 14.0412 46.0607 14.0412C46.4414 14.0412 46.7596 13.9403 47.0153 13.7386C47.271 13.5341 47.4641 13.2571 47.5948 12.9077C47.7283 12.5582 47.7951 12.1648 47.7951 11.7273C47.7951 11.2955 47.7298 10.9077 47.5991 10.5639C47.4712 10.2202 47.2781 9.94886 47.0195 9.75C46.7638 9.55114 46.4442 9.4517 46.0607 9.4517C45.6914 9.4517 45.3789 9.54687 45.1232 9.73722C44.8704 9.92756 44.6786 10.1932 44.5479 10.5341C44.4173 10.875 44.3519 11.2727 44.3519 11.7273ZM51.7869 6.27273V15H50.5128V6.27273H51.7869ZM56.3221 15.1321C55.6772 15.1321 55.1218 14.9943 54.6559 14.7188C54.1928 14.4403 53.8349 14.0497 53.582 13.5469C53.332 13.0412 53.207 12.4489 53.207 11.7699C53.207 11.0994 53.332 10.5085 53.582 9.99716C53.8349 9.4858 54.1871 9.08665 54.6388 8.79972C55.0934 8.51278 55.6246 8.36932 56.2326 8.36932C56.6019 8.36932 56.9599 8.4304 57.3065 8.55256C57.6531 8.67472 57.9641 8.86648 58.2397 9.12784C58.5153 9.3892 58.7326 9.72869 58.8917 10.1463C59.0508 10.5611 59.1303 11.0653 59.1303 11.6591V12.1108H53.9272V11.1562H57.8817C57.8817 10.821 57.8136 10.5241 57.6772 10.2656C57.5408 10.0043 57.3491 9.7983 57.1019 9.64773C56.8576 9.49716 56.5707 9.42188 56.2411 9.42188C55.8832 9.42188 55.5707 9.50994 55.3036 9.68608C55.0394 9.85937 54.8349 10.0866 54.69 10.3679C54.5479 10.6463 54.4769 10.9489 54.4769 11.2756V12.0213C54.4769 12.4588 54.5536 12.831 54.707 13.1378C54.8633 13.4446 55.0806 13.679 55.359 13.8409C55.6374 14 55.9627 14.0795 56.3349 14.0795C56.5763 14.0795 56.7965 14.0455 56.9954 13.9773C57.1942 13.9062 57.3661 13.8011 57.511 13.6619C57.6559 13.5227 57.7667 13.3509 57.8434 13.1463L59.0494 13.3636C58.9528 13.7187 58.7795 14.0298 58.5295 14.2969C58.2823 14.5611 57.9712 14.767 57.5962 14.9148C57.2241 15.0597 56.7994 15.1321 56.3221 15.1321Z" fill="#235D5E"/>
</svg>
