<svg width="34" height="34" viewBox="0 0 34 34" fill="none" xmlns="http://www.w3.org/2000/svg">
<rect width="34" height="34" rx="6" fill="#F4F4F4"/>
<path d="M12.8047 11.8618C12.5444 11.6014 12.1223 11.6014 11.8619 11.8618C11.6016 12.1221 11.6016 12.5442 11.8619 12.8046L16.0572 16.9999L11.8619 21.1952C11.6016 21.4555 11.6016 21.8777 11.8619 22.138C12.1223 22.3984 12.5444 22.3984 12.8047 22.138L17 17.9427L21.1953 22.1379C21.4556 22.3983 21.8777 22.3983 22.1381 22.1379C22.3984 21.8776 22.3984 21.4554 22.1381 21.1951L17.9428 16.9999L22.1381 12.8047C22.3984 12.5443 22.3984 12.1222 22.1381 11.8619C21.8777 11.6015 21.4556 11.6015 21.1953 11.8619L17 16.0571L12.8047 11.8618Z" fill="#1E1E1E"/>
</svg>
