<svg width="12" height="14" viewBox="0 0 12 14" fill="none" xmlns="http://www.w3.org/2000/svg">
<path fill-rule="evenodd" clip-rule="evenodd" d="M4.83333 0.583496C4.51117 0.583496 4.25 0.844663 4.25 1.16683V2.3335H1.33333C1.01117 2.3335 0.75 2.59466 0.75 2.91683C0.75 3.239 1.01117 3.50016 1.33333 3.50016H10.6667C10.9888 3.50016 11.25 3.239 11.25 2.91683C11.25 2.59466 10.9888 2.3335 10.6667 2.3335H7.75V1.16683C7.75 0.844663 7.48883 0.583496 7.16667 0.583496H4.83333ZM6.58333 2.3335H5.41667V1.75016H6.58333V2.3335Z" fill="#1E1E1E"/>
<path d="M4.83333 6.41683C5.1555 6.41683 5.41667 6.678 5.41667 7.00016V10.5002C5.41667 10.8223 5.1555 11.0835 4.83333 11.0835C4.51117 11.0835 4.25 10.8223 4.25 10.5002V7.00016C4.25 6.678 4.51117 6.41683 4.83333 6.41683Z" fill="#1E1E1E"/>
<path d="M7.75 7.00016C7.75 6.678 7.48883 6.41683 7.16667 6.41683C6.8445 6.41683 6.58333 6.678 6.58333 7.00016V10.5002C6.58333 10.8223 6.8445 11.0835 7.16667 11.0835C7.48883 11.0835 7.75 10.8223 7.75 10.5002V7.00016Z" fill="#1E1E1E"/>
<path fill-rule="evenodd" clip-rule="evenodd" d="M1.91667 4.0835C1.5945 4.0835 1.33333 4.34466 1.33333 4.66683V11.6668C1.33333 12.6333 2.11683 13.4168 3.08333 13.4168H8.91667C9.88316 13.4168 10.6667 12.6333 10.6667 11.6668V4.66683C10.6667 4.34466 10.4055 4.0835 10.0833 4.0835H1.91667ZM2.5 11.6668V5.25016H9.5V11.6668C9.5 11.989 9.23883 12.2502 8.91667 12.2502H3.08333C2.76117 12.2502 2.5 11.989 2.5 11.6668Z" fill="#1E1E1E"/>
</svg>
