<svg width="12" height="10" viewBox="0 0 12 10" fill="none" xmlns="http://www.w3.org/2000/svg">
<path fill-rule="evenodd" clip-rule="evenodd" d="M8.5 5.5C8.5 6.88071 7.38071 8 6 8C4.61929 8 3.5 6.88071 3.5 5.5C3.5 4.11929 4.61929 3 6 3C7.38071 3 8.5 4.11929 8.5 5.5ZM7.5 5.5C7.5 6.32843 6.82843 7 6 7C5.17157 7 4.5 6.32843 4.5 5.5C4.5 4.67157 5.17157 4 6 4C6.82843 4 7.5 4.67157 7.5 5.5Z" fill="#1E1E1E"/>
<path fill-rule="evenodd" clip-rule="evenodd" d="M4 0C3.78478 0 3.59372 0.137715 3.52566 0.341886L3.13962 1.5H2C1.17157 1.5 0.5 2.17157 0.5 3V8.5C0.5 9.32843 1.17157 10 2 10H10C10.8284 10 11.5 9.32843 11.5 8.5V3C11.5 2.17157 10.8284 1.5 10 1.5H8.86038L8.47434 0.341886C8.40628 0.137715 8.21522 0 8 0H4ZM3.97434 2.15811L4.36038 1H7.63962L8.02566 2.15811C8.09372 2.36229 8.28478 2.5 8.5 2.5H10C10.2761 2.5 10.5 2.72386 10.5 3V8.5C10.5 8.77614 10.2761 9 10 9H2C1.72386 9 1.5 8.77614 1.5 8.5V3C1.5 2.72386 1.72386 2.5 2 2.5H3.5C3.71522 2.5 3.90628 2.36229 3.97434 2.15811Z" fill="#1E1E1E"/>
</svg>
