<svg width="620" height="576" viewBox="0 0 620 576" fill="none" xmlns="http://www.w3.org/2000/svg">
<g filter="url(#filter0_d_548_49454)">
<rect x="113" y="102" width="404.456" height="327.53" rx="9.44487" fill="white" shape-rendering="crispEdges"/>
<path d="M145.009 141.641L142.826 141.025C141.161 140.529 140.328 139.499 140.328 137.933C140.328 137.074 140.662 136.317 141.332 135.664C142.007 135.021 143.011 134.699 144.344 134.699C144.74 134.699 145.125 134.739 145.499 134.818C145.873 134.892 146.237 135.021 146.59 135.205C146.948 135.384 147.262 135.608 147.531 135.877C147.805 136.141 148.029 136.478 148.203 136.889C148.377 137.295 148.472 137.751 148.488 138.257H146.274C146.237 137.73 146.042 137.33 145.689 137.055C145.341 136.776 144.887 136.636 144.329 136.636C143.823 136.636 143.432 136.758 143.158 137C142.89 137.243 142.755 137.554 142.755 137.933C142.755 138.523 143.214 138.956 144.131 139.23L146.195 139.815C147.096 140.094 147.779 140.498 148.242 141.025C148.712 141.547 148.946 142.266 148.946 143.183C148.946 144.148 148.561 144.968 147.792 145.642C147.033 146.291 145.96 146.615 144.574 146.615C143.33 146.615 142.281 146.285 141.427 145.626C140.578 144.973 140.138 143.948 140.106 142.551H142.32C142.352 143.268 142.571 143.8 142.977 144.148C143.382 144.496 143.915 144.67 144.574 144.67C145.196 144.67 145.675 144.535 146.013 144.266C146.35 143.992 146.519 143.631 146.519 143.183C146.519 142.767 146.405 142.451 146.179 142.234C145.957 142.013 145.567 141.815 145.009 141.641ZM156.576 146.322V145.318H156.513C155.886 146.151 155.011 146.567 153.888 146.567C152.776 146.567 151.848 146.156 151.105 145.334C150.372 144.506 150.006 143.46 150.006 142.195C150.006 140.919 150.377 139.87 151.121 139.048C151.874 138.231 152.802 137.822 153.904 137.822C155 137.822 155.833 138.226 156.402 139.032H156.466V138.067H158.648V146.322H156.576ZM152.235 142.195C152.235 142.954 152.441 143.579 152.852 144.069C153.274 144.554 153.798 144.796 154.426 144.796C155.053 144.796 155.57 144.554 155.975 144.069C156.387 143.579 156.592 142.954 156.592 142.195C156.592 141.436 156.381 140.814 155.96 140.329C155.554 139.844 155.042 139.601 154.426 139.601C153.798 139.601 153.277 139.847 152.86 140.337C152.444 140.827 152.235 141.446 152.235 142.195ZM162.744 134.984V146.322H160.561V134.984H162.744ZM172.77 142.772H166.484C166.573 143.42 166.805 143.921 167.179 144.274C167.554 144.622 168.031 144.796 168.611 144.796C169.501 144.796 170.142 144.414 170.532 143.65H172.77C172.49 144.588 171.982 145.31 171.244 145.816C170.511 146.317 169.625 146.567 168.587 146.567C167.343 146.567 166.307 146.161 165.479 145.35C164.652 144.522 164.238 143.471 164.238 142.195C164.238 140.909 164.652 139.86 165.479 139.048C166.297 138.231 167.332 137.822 168.587 137.822C169.636 137.822 170.577 138.136 171.41 138.763C171.847 139.069 172.192 139.507 172.445 140.076C172.704 140.64 172.833 141.275 172.833 141.981C172.833 142.277 172.812 142.54 172.77 142.772ZM166.531 141.317H170.666C170.561 140.801 170.321 140.387 169.947 140.076C169.578 139.76 169.138 139.601 168.626 139.601C168.126 139.601 167.683 139.765 167.298 140.092C166.913 140.413 166.658 140.822 166.531 141.317ZM178.028 140.653C178.028 138.924 178.594 137.501 179.728 136.383C180.882 135.261 182.318 134.699 184.037 134.699C185.766 134.699 187.2 135.261 188.338 136.383C189.472 137.501 190.038 138.924 190.038 140.653C190.038 142.387 189.472 143.813 188.338 144.931C187.215 146.038 185.782 146.599 184.037 146.615C182.334 146.631 180.903 146.075 179.743 144.946C178.6 143.818 178.028 142.387 178.028 140.653ZM180.471 140.653C180.471 141.792 180.795 142.748 181.443 143.523C182.113 144.288 182.977 144.67 184.037 144.67C185.081 144.67 185.937 144.288 186.607 143.523C187.266 142.769 187.595 141.813 187.595 140.653C187.595 139.499 187.266 138.545 186.607 137.791C185.932 137.021 185.075 136.636 184.037 136.636C182.993 136.636 182.134 137.021 181.459 137.791C180.8 138.545 180.471 139.499 180.471 140.653ZM193.802 143.152V146.322H191.62V138.067H193.739V139.665H193.802C194.466 138.463 195.649 137.854 197.352 137.838V139.894C197.046 139.847 196.749 139.847 196.459 139.894C195.647 139.957 195.001 140.279 194.521 140.859C194.042 141.433 193.802 142.198 193.802 143.152ZM204.887 146.322V145.318H204.824C204.197 146.151 203.322 146.567 202.199 146.567C201.087 146.567 200.159 146.156 199.416 145.334C198.683 144.506 198.317 143.46 198.317 142.195C198.317 140.919 198.688 139.87 199.432 139.048C200.185 138.231 201.113 137.822 202.215 137.822C203.311 137.822 204.144 138.226 204.713 139.032H204.777V134.984H206.959V146.322H204.887ZM200.546 142.195C200.546 142.954 200.752 143.579 201.163 144.069C201.585 144.554 202.109 144.796 202.737 144.796C203.364 144.796 203.881 144.554 204.286 144.069C204.698 143.579 204.903 142.954 204.903 142.195C204.903 141.436 204.692 140.814 204.271 140.329C203.865 139.844 203.353 139.601 202.737 139.601C202.109 139.601 201.588 139.847 201.171 140.337C200.755 140.827 200.546 141.446 200.546 142.195ZM216.985 142.772H210.699C210.788 143.42 211.02 143.921 211.395 144.274C211.769 144.622 212.246 144.796 212.826 144.796C213.717 144.796 214.357 144.414 214.747 143.65H216.985C216.705 144.588 216.197 145.31 215.459 145.816C214.726 146.317 213.841 146.567 212.802 146.567C211.558 146.567 210.522 146.161 209.695 145.35C208.867 144.522 208.453 143.471 208.453 142.195C208.453 140.909 208.867 139.86 209.695 139.048C210.512 138.231 211.548 137.822 212.802 137.822C213.851 137.822 214.792 138.136 215.625 138.763C216.062 139.069 216.408 139.507 216.661 140.076C216.919 140.64 217.048 141.275 217.048 141.981C217.048 142.277 217.027 142.54 216.985 142.772ZM210.746 141.317H214.882C214.776 140.801 214.536 140.387 214.162 140.076C213.793 139.76 213.353 139.601 212.842 139.601C212.341 139.601 211.898 139.765 211.513 140.092C211.128 140.413 210.873 140.822 210.746 141.317ZM220.717 143.152V146.322H218.535V138.067H220.654V139.665H220.717C221.381 138.463 222.564 137.854 224.267 137.838V139.894C223.961 139.847 223.663 139.847 223.374 139.894C222.562 139.957 221.916 140.279 221.436 140.859C220.957 141.433 220.717 142.198 220.717 143.152ZM229.193 143.112L227.691 142.709C226.937 142.535 226.36 142.261 225.959 141.887C225.559 141.512 225.358 140.982 225.358 140.297C225.358 139.57 225.651 138.977 226.236 138.518C226.821 138.054 227.596 137.822 228.56 137.822C229.509 137.822 230.311 138.033 230.964 138.455C231.618 138.85 231.953 139.496 231.968 140.392H230.039C230.007 140.081 229.873 139.847 229.636 139.688C229.399 139.525 229.09 139.443 228.711 139.443C228.352 139.443 228.073 139.52 227.873 139.673C227.678 139.825 227.58 140.028 227.58 140.281C227.58 140.635 227.931 140.903 228.632 141.088L230.181 141.515C231.631 141.873 232.356 142.667 232.356 143.895C232.356 144.712 232.053 145.363 231.446 145.848C230.84 146.328 229.992 146.567 228.9 146.567C226.56 146.567 225.319 145.59 225.176 143.634H227.153C227.185 144.066 227.343 144.393 227.627 144.614C227.917 144.836 228.289 144.946 228.742 144.946C229.19 144.946 229.536 144.857 229.778 144.678C230.026 144.493 230.15 144.248 230.15 143.942C230.15 143.726 230.073 143.557 229.92 143.436C229.773 143.315 229.53 143.207 229.193 143.112Z" fill="black"/>
<rect x="285.774" y="124.576" width="104.357" height="33.2862" rx="4.94794" fill="white" stroke="#E7E9ED" stroke-width="0.899626"/>
<g clip-path="url(#clip0_548_49454)">
<path d="M366.853 143.917C367.412 143.917 367.865 143.464 367.865 142.905C367.865 142.346 367.412 141.893 366.853 141.893C366.294 141.893 365.841 142.346 365.841 142.905C365.841 143.464 366.294 143.917 366.853 143.917Z" fill="#949AB1"/>
<path d="M370.901 142.905C370.901 143.464 370.448 143.917 369.889 143.917C369.33 143.917 368.877 143.464 368.877 142.905C368.877 142.346 369.33 141.893 369.889 141.893C370.448 141.893 370.901 142.346 370.901 142.905Z" fill="#949AB1"/>
<path d="M372.925 143.917C373.484 143.917 373.938 143.464 373.938 142.905C373.938 142.346 373.484 141.893 372.925 141.893C372.366 141.893 371.913 142.346 371.913 142.905C371.913 143.464 372.366 143.917 372.925 143.917Z" fill="#949AB1"/>
<path fill-rule="evenodd" clip-rule="evenodd" d="M367.19 134.471C367.19 134.098 366.888 133.796 366.516 133.796C366.143 133.796 365.841 134.098 365.841 134.471V135.145H364.491C363.374 135.145 362.467 136.052 362.467 137.169V145.941C362.467 147.059 363.374 147.965 364.491 147.965H375.287C376.405 147.965 377.311 147.059 377.311 145.941V137.169C377.311 136.052 376.405 135.145 375.287 135.145H373.938V134.471C373.938 134.098 373.635 133.796 373.263 133.796C372.89 133.796 372.588 134.098 372.588 134.471V135.145H367.19V134.471ZM363.817 137.169C363.817 136.797 364.119 136.495 364.491 136.495H375.287C375.66 136.495 375.962 136.797 375.962 137.169V138.519H363.817V137.169ZM363.817 139.868H375.962V145.941C375.962 146.313 375.66 146.616 375.287 146.616H364.491C364.119 146.616 363.817 146.313 363.817 145.941V139.868Z" fill="#949AB1"/>
</g>
<path d="M299.906 144.922H298.609V137.363H303.285V138.465H299.906V140.689H302.757V141.749H299.906V144.922ZM305.52 142.798V144.922H304.312V139.419H305.467V140.615H305.509C305.969 139.754 306.783 139.308 307.95 139.276V140.42C307.914 140.413 307.835 140.41 307.712 140.41C307.073 140.41 306.547 140.615 306.136 141.026C305.725 141.427 305.52 142.017 305.52 142.798ZM314.381 142.17C314.381 143.014 314.105 143.711 313.553 144.263C313.005 144.811 312.309 145.085 311.466 145.085C310.626 145.085 309.932 144.811 309.383 144.263C308.832 143.711 308.556 143.014 308.556 142.17C308.556 141.33 308.832 140.635 309.383 140.083C309.935 139.531 310.629 139.255 311.466 139.255C312.305 139.255 313.001 139.531 313.553 140.083C314.105 140.635 314.381 141.33 314.381 142.17ZM309.773 142.17C309.773 142.74 309.932 143.207 310.248 143.572C310.564 143.924 310.97 144.1 311.466 144.1C311.965 144.1 312.372 143.924 312.688 143.572C313.012 143.21 313.173 142.743 313.173 142.17C313.173 141.605 313.012 141.141 312.688 140.779C312.376 140.417 311.968 140.236 311.466 140.236C310.977 140.236 310.571 140.417 310.248 140.779C309.932 141.144 309.773 141.608 309.773 142.17ZM315.361 144.922V139.419H316.547V140.141H316.6C317.028 139.55 317.605 139.255 318.329 139.255C318.694 139.255 319.01 139.343 319.278 139.519C319.545 139.695 319.733 139.937 319.842 140.246H319.873C320.295 139.586 320.906 139.255 321.708 139.255C322.902 139.255 323.5 139.921 323.5 141.253V144.922H322.293V141.422C322.293 141.046 322.208 140.758 322.04 140.557C321.875 140.357 321.63 140.257 321.307 140.257C320.931 140.257 320.627 140.394 320.395 140.668C320.163 140.942 320.047 141.281 320.047 141.685V144.922H318.835V141.554C318.835 140.689 318.508 140.257 317.854 140.257C317.489 140.257 317.183 140.401 316.937 140.689C316.691 140.967 316.568 141.302 316.568 141.696V144.922H315.361ZM330.753 144.922H327.506V137.363H330.753C331.86 137.363 332.746 137.706 333.41 138.391C334.067 139.069 334.395 139.99 334.395 141.153C334.395 142.32 334.067 143.242 333.41 143.92C332.763 144.588 331.878 144.922 330.753 144.922ZM328.803 138.465V143.82H330.484C331.317 143.82 331.957 143.588 332.403 143.124C332.853 142.661 333.078 142.003 333.078 141.153C333.078 140.292 332.853 139.63 332.403 139.166C331.957 138.698 331.317 138.465 330.484 138.465H328.803ZM339.709 144.922V144.168H339.656C339.227 144.78 338.604 145.085 337.785 145.085C337.036 145.085 336.404 144.811 335.887 144.263C335.378 143.711 335.123 143.014 335.123 142.17C335.123 141.33 335.378 140.635 335.887 140.083C336.407 139.531 337.04 139.255 337.785 139.255C338.583 139.255 339.187 139.558 339.598 140.162H339.656V139.419H340.863V144.922H339.709ZM338.033 144.1C338.518 144.1 338.922 143.92 339.245 143.562C339.568 143.189 339.73 142.726 339.73 142.17C339.73 141.612 339.568 141.151 339.245 140.789C338.922 140.42 338.518 140.236 338.033 140.236C337.558 140.236 337.156 140.42 336.826 140.789C336.502 141.151 336.341 141.612 336.341 142.17C336.341 142.726 336.502 143.189 336.826 143.562C337.159 143.92 337.562 144.1 338.033 144.1ZM342.677 143.451V140.346H341.738V139.419H342.677V137.874H343.889V139.419H345.27V140.346H343.889V143.388C343.889 143.637 343.943 143.817 344.052 143.926C344.165 144.035 344.355 144.089 344.622 144.089C344.913 144.089 345.187 144.054 345.444 143.984V144.943C345.079 145.024 344.718 145.064 344.363 145.064C343.762 145.064 343.33 144.941 343.067 144.695C342.807 144.449 342.677 144.035 342.677 143.451ZM351.764 142.492H347.336C347.396 142.98 347.581 143.37 347.89 143.662C348.203 143.954 348.579 144.1 349.018 144.1C349.376 144.1 349.691 144.015 349.961 143.847C350.232 143.674 350.429 143.439 350.552 143.14H351.754C351.578 143.752 351.241 144.23 350.742 144.574C350.246 144.915 349.668 145.085 349.007 145.085C348.189 145.085 347.498 144.815 346.936 144.274C346.384 143.722 346.108 143.021 346.108 142.17C346.108 141.323 346.384 140.624 346.936 140.072C347.48 139.528 348.164 139.255 348.986 139.255C349.257 139.255 349.522 139.289 349.782 139.355C350.042 139.419 350.295 139.522 350.541 139.666C350.787 139.811 351.003 139.986 351.19 140.194C351.376 140.397 351.525 140.654 351.638 140.963C351.75 141.272 351.806 141.613 351.806 141.986C351.806 142.228 351.792 142.397 351.764 142.492ZM348.986 140.236C348.603 140.236 348.264 140.36 347.969 140.61C347.677 140.856 347.477 141.192 347.368 141.617H350.631C350.561 141.192 350.373 140.856 350.067 140.61C349.765 140.36 349.404 140.236 348.986 140.236Z" fill="#949AB1"/>
<rect x="400.026" y="124.576" width="89.9626" height="33.2862" rx="4.94794" fill="white" stroke="#E7E9ED" stroke-width="0.899626"/>
<g clip-path="url(#clip1_548_49454)">
<path d="M466.71 143.917C467.269 143.917 467.722 143.464 467.722 142.905C467.722 142.346 467.269 141.893 466.71 141.893C466.151 141.893 465.698 142.346 465.698 142.905C465.698 143.464 466.151 143.917 466.71 143.917Z" fill="#949AB1"/>
<path d="M470.758 142.905C470.758 143.464 470.305 143.917 469.746 143.917C469.187 143.917 468.734 143.464 468.734 142.905C468.734 142.346 469.187 141.893 469.746 141.893C470.305 141.893 470.758 142.346 470.758 142.905Z" fill="#949AB1"/>
<path d="M472.782 143.917C473.341 143.917 473.794 143.464 473.794 142.905C473.794 142.346 473.341 141.893 472.782 141.893C472.223 141.893 471.77 142.346 471.77 142.905C471.77 143.464 472.223 143.917 472.782 143.917Z" fill="#949AB1"/>
<path fill-rule="evenodd" clip-rule="evenodd" d="M467.047 134.471C467.047 134.098 466.745 133.796 466.373 133.796C466 133.796 465.698 134.098 465.698 134.471V135.145H464.348C463.23 135.145 462.324 136.052 462.324 137.169V145.941C462.324 147.059 463.23 147.965 464.348 147.965H475.144C476.262 147.965 477.168 147.059 477.168 145.941V137.169C477.168 136.052 476.262 135.145 475.144 135.145H473.794V134.471C473.794 134.098 473.492 133.796 473.12 133.796C472.747 133.796 472.445 134.098 472.445 134.471V135.145H467.047V134.471ZM463.674 137.169C463.674 136.797 463.976 136.495 464.348 136.495H475.144C475.517 136.495 475.819 136.797 475.819 137.169V138.519H463.674V137.169ZM463.674 139.868H475.819V145.941C475.819 146.313 475.517 146.616 475.144 146.616H464.348C463.976 146.616 463.674 146.313 463.674 145.941V139.868Z" fill="#949AB1"/>
</g>
<path d="M412.323 139.405V138.261H418.227V139.405H415.918V145.82H414.622V139.405H412.323ZM423.688 143.069C423.688 143.912 423.412 144.61 422.86 145.161C422.312 145.71 421.616 145.984 420.773 145.984C419.933 145.984 419.239 145.71 418.691 145.161C418.139 144.61 417.863 143.912 417.863 143.069C417.863 142.229 418.139 141.533 418.691 140.981C419.243 140.43 419.937 140.154 420.773 140.154C421.613 140.154 422.309 140.43 422.86 140.981C423.412 141.533 423.688 142.229 423.688 143.069ZM419.081 143.069C419.081 143.638 419.239 144.105 419.555 144.471C419.872 144.822 420.278 144.998 420.773 144.998C421.272 144.998 421.68 144.822 421.996 144.471C422.319 144.109 422.481 143.642 422.481 143.069C422.481 142.503 422.319 142.039 421.996 141.677C421.683 141.315 421.276 141.134 420.773 141.134C420.285 141.134 419.879 141.315 419.555 141.677C419.239 142.043 419.081 142.506 419.081 143.069ZM430.646 145.82H427.399V138.261H430.646C431.753 138.261 432.639 138.604 433.303 139.289C433.96 139.967 434.289 140.888 434.289 142.051C434.289 143.218 433.96 144.141 433.303 144.819C432.656 145.486 431.771 145.82 430.646 145.82ZM428.696 139.363V144.719H430.377C431.21 144.719 431.85 144.487 432.296 144.023C432.746 143.559 432.971 142.902 432.971 142.051C432.971 141.19 432.746 140.528 432.296 140.064C431.85 139.597 431.21 139.363 430.377 139.363H428.696ZM439.602 145.82V145.067H439.549C439.121 145.678 438.497 145.984 437.678 145.984C436.929 145.984 436.297 145.71 435.78 145.161C435.271 144.61 435.016 143.912 435.016 143.069C435.016 142.229 435.271 141.533 435.78 140.981C436.3 140.43 436.933 140.154 437.678 140.154C438.476 140.154 439.08 140.456 439.491 141.06H439.549V140.317H440.756V145.82H439.602ZM437.926 144.998C438.411 144.998 438.815 144.819 439.138 144.46C439.461 144.088 439.623 143.624 439.623 143.069C439.623 142.51 439.461 142.05 439.138 141.688C438.815 141.319 438.411 141.134 437.926 141.134C437.451 141.134 437.049 141.319 436.719 141.688C436.395 142.05 436.234 142.51 436.234 143.069C436.234 143.624 436.395 144.088 436.719 144.46C437.052 144.819 437.455 144.998 437.926 144.998ZM442.57 144.35V141.245H441.631V140.317H442.57V138.773H443.782V140.317H445.163V141.245H443.782V144.286C443.782 144.536 443.837 144.715 443.945 144.824C444.058 144.933 444.248 144.987 444.515 144.987C444.806 144.987 445.081 144.952 445.337 144.882V145.841C444.972 145.922 444.611 145.963 444.256 145.963C443.656 145.963 443.223 145.84 442.96 145.594C442.7 145.348 442.57 144.933 442.57 144.35ZM451.657 143.39H447.229C447.289 143.879 447.474 144.269 447.783 144.56C448.096 144.852 448.472 144.998 448.911 144.998C449.269 144.998 449.584 144.914 449.855 144.745C450.125 144.573 450.322 144.337 450.445 144.039H451.647C451.471 144.65 451.134 145.128 450.635 145.472C450.139 145.813 449.561 145.984 448.9 145.984C448.082 145.984 447.391 145.713 446.829 145.172C446.277 144.62 446.001 143.919 446.001 143.069C446.001 142.222 446.277 141.522 446.829 140.971C447.374 140.426 448.057 140.154 448.879 140.154C449.15 140.154 449.415 140.187 449.675 140.254C449.935 140.317 450.188 140.421 450.434 140.565C450.68 140.709 450.896 140.885 451.083 141.092C451.269 141.296 451.418 141.552 451.531 141.862C451.643 142.171 451.699 142.512 451.699 142.884C451.699 143.127 451.685 143.295 451.657 143.39ZM448.879 141.134C448.496 141.134 448.157 141.259 447.862 141.508C447.57 141.754 447.37 142.09 447.261 142.515H450.524C450.454 142.09 450.266 141.754 449.96 141.508C449.658 141.259 449.298 141.134 448.879 141.134Z" fill="#949AB1"/>
<path d="M199.079 341.387C193.788 341.387 189.46 337.091 189.863 331.815C192.141 302.033 204.987 273.916 226.256 252.647C249.791 229.112 281.712 215.89 314.996 215.89C348.28 215.89 380.201 229.112 403.736 252.647C425.005 273.916 437.851 302.033 440.128 331.815C440.532 337.091 436.204 341.387 430.912 341.387C425.621 341.387 421.376 337.088 420.9 331.818C418.669 307.125 407.86 283.871 390.186 266.197C370.244 246.256 343.198 235.053 314.996 235.053C286.794 235.053 259.747 246.256 239.806 266.197C222.132 283.871 211.322 307.125 209.092 331.818C208.616 337.088 204.371 341.387 199.079 341.387Z" fill="#E1F7F8"/>
<path d="M199.075 341.387C193.786 341.387 189.46 337.093 189.863 331.82C191.694 307.868 200.371 284.869 214.956 265.613C231.474 243.805 254.666 227.992 281.001 220.581C307.336 213.171 335.372 214.569 360.839 224.562C383.326 233.386 402.723 248.485 416.776 267.967C419.87 272.257 418.419 278.176 413.906 280.935C409.393 283.693 403.532 282.239 400.38 277.993C388.545 262.054 372.441 249.69 353.842 242.392C332.262 233.923 308.505 232.739 286.19 239.018C263.874 245.298 244.221 258.698 230.224 277.178C218.16 293.104 210.867 312.052 209.082 331.823C208.606 337.091 204.363 341.387 199.075 341.387Z" fill="#235D5E"/>
<path d="M239.579 396.37C240.217 396.37 240.788 396.257 241.292 396.03C241.804 395.803 242.232 395.513 242.577 395.161C242.929 394.8 243.181 394.426 243.332 394.04L242.388 393.624C242.153 394.17 241.792 394.607 241.305 394.934C240.826 395.262 240.251 395.425 239.579 395.425C238.891 395.425 238.278 395.266 237.74 394.947C237.203 394.619 236.783 394.162 236.481 393.574C236.178 392.986 236.027 392.306 236.027 391.533C236.027 390.753 236.178 390.073 236.481 389.493C236.783 388.905 237.203 388.448 237.74 388.12C238.278 387.793 238.891 387.629 239.579 387.629C240.251 387.629 240.826 387.797 241.305 388.133C241.792 388.46 242.153 388.897 242.388 389.443L243.332 389.027C243.181 388.633 242.929 388.259 242.577 387.906C242.232 387.545 241.804 387.251 241.292 387.025C240.788 386.798 240.217 386.685 239.579 386.685C238.916 386.685 238.307 386.806 237.753 387.05C237.199 387.285 236.716 387.621 236.304 388.057C235.901 388.494 235.586 389.006 235.36 389.594C235.133 390.182 235.02 390.828 235.02 391.533C235.02 392.239 235.133 392.885 235.36 393.473C235.586 394.061 235.901 394.573 236.304 395.01C236.716 395.438 237.199 395.774 237.753 396.017C238.307 396.252 238.916 396.37 239.579 396.37ZM248.036 396.37C248.666 396.37 249.237 396.219 249.749 395.916C250.27 395.614 250.685 395.199 250.996 394.67C251.307 394.132 251.462 393.519 251.462 392.831C251.462 392.151 251.311 391.546 251.009 391.017C250.715 390.488 250.307 390.073 249.787 389.77C249.275 389.468 248.691 389.317 248.036 389.317C247.381 389.317 246.794 389.472 246.273 389.783C245.761 390.085 245.354 390.501 245.051 391.03C244.749 391.559 244.598 392.159 244.598 392.831C244.598 393.511 244.749 394.12 245.051 394.657C245.362 395.186 245.778 395.606 246.298 395.916C246.819 396.219 247.398 396.37 248.036 396.37ZM248.036 395.425C247.583 395.425 247.171 395.312 246.802 395.085C246.441 394.859 246.151 394.548 245.933 394.153C245.715 393.759 245.605 393.318 245.605 392.831C245.605 392.344 245.715 391.907 245.933 391.521C246.151 391.135 246.441 390.828 246.802 390.601C247.171 390.375 247.583 390.261 248.036 390.261C248.49 390.261 248.897 390.375 249.258 390.601C249.627 390.828 249.917 391.135 250.127 391.521C250.345 391.907 250.454 392.344 250.454 392.831C250.454 393.318 250.345 393.759 250.127 394.153C249.917 394.548 249.627 394.859 249.258 395.085C248.897 395.312 248.49 395.425 248.036 395.425ZM253.128 396.219H254.073V392.201C254.073 391.596 254.236 391.122 254.564 390.778C254.891 390.434 255.298 390.261 255.785 390.261C256.272 390.261 256.675 390.434 256.995 390.778C257.314 391.114 257.473 391.588 257.473 392.201V396.219H258.418V392.201C258.418 391.596 258.581 391.122 258.909 390.778C259.236 390.434 259.644 390.261 260.131 390.261C260.618 390.261 261.021 390.434 261.34 390.778C261.659 391.114 261.818 391.588 261.818 392.201V396.219H262.763V391.836C262.763 391.357 262.645 390.929 262.41 390.551C262.184 390.165 261.877 389.863 261.491 389.644C261.113 389.426 260.697 389.317 260.244 389.317C259.791 389.317 259.371 389.426 258.985 389.644C258.607 389.863 258.317 390.182 258.115 390.601C257.906 390.215 257.607 389.905 257.221 389.669C256.835 389.434 256.411 389.317 255.949 389.317C255.563 389.317 255.202 389.405 254.866 389.581C254.539 389.749 254.274 389.989 254.073 390.299V389.468H253.128V396.219ZM264.567 398.738H265.511V395.123C265.763 395.518 266.107 395.824 266.544 396.042C266.981 396.261 267.459 396.37 267.98 396.37C268.618 396.37 269.185 396.219 269.68 395.916C270.184 395.606 270.578 395.186 270.864 394.657C271.158 394.12 271.305 393.515 271.305 392.843C271.305 392.163 271.158 391.559 270.864 391.03C270.578 390.501 270.184 390.085 269.68 389.783C269.185 389.472 268.618 389.317 267.98 389.317C267.451 389.317 266.976 389.422 266.557 389.632C266.137 389.842 265.788 390.127 265.511 390.488V389.468H264.567V398.738ZM267.929 395.425C267.476 395.425 267.065 395.312 266.695 395.085C266.334 394.859 266.044 394.552 265.826 394.166C265.616 393.771 265.511 393.33 265.511 392.843C265.511 392.356 265.616 391.92 265.826 391.533C266.044 391.139 266.334 390.828 266.695 390.601C267.065 390.375 267.476 390.261 267.929 390.261C268.383 390.261 268.786 390.375 269.138 390.601C269.499 390.828 269.781 391.135 269.982 391.521C270.192 391.907 270.297 392.348 270.297 392.843C270.297 393.33 270.192 393.771 269.982 394.166C269.781 394.552 269.499 394.859 269.138 395.085C268.786 395.312 268.383 395.425 267.929 395.425ZM272.967 396.219H273.912V386.685H272.967V396.219ZM278.918 396.37C279.38 396.37 279.8 396.294 280.178 396.143C280.564 395.984 280.896 395.778 281.173 395.526C281.45 395.266 281.656 394.984 281.79 394.682L280.984 394.254C280.774 394.607 280.501 394.9 280.165 395.136C279.829 395.371 279.414 395.488 278.918 395.488C278.515 395.488 278.138 395.392 277.785 395.199C277.432 395.005 277.143 394.737 276.916 394.393C276.698 394.04 276.58 393.62 276.563 393.133H281.878C281.895 393.024 281.908 392.919 281.916 392.818C281.924 392.709 281.929 392.612 281.929 392.528C281.929 392.125 281.857 391.735 281.714 391.357C281.572 390.971 281.366 390.627 281.097 390.324C280.829 390.014 280.501 389.77 280.115 389.594C279.737 389.409 279.305 389.317 278.818 389.317C278.205 389.317 277.651 389.468 277.155 389.77C276.668 390.073 276.282 390.488 275.996 391.017C275.711 391.538 275.568 392.138 275.568 392.818C275.568 393.498 275.715 394.107 276.009 394.644C276.303 395.182 276.702 395.606 277.205 395.916C277.718 396.219 278.289 396.37 278.918 396.37ZM278.818 390.198C279.195 390.198 279.54 390.287 279.85 390.463C280.169 390.639 280.421 390.883 280.606 391.193C280.799 391.496 280.9 391.848 280.908 392.251H276.588C276.639 391.832 276.769 391.471 276.979 391.168C277.197 390.858 277.466 390.618 277.785 390.45C278.104 390.282 278.448 390.198 278.818 390.198ZM286.176 396.294C286.251 396.294 286.352 396.29 286.478 396.282C286.604 396.273 286.717 396.257 286.818 396.231V395.375C286.751 395.383 286.671 395.392 286.579 395.4C286.487 395.408 286.407 395.413 286.34 395.413C285.92 395.413 285.63 395.304 285.471 395.085C285.311 394.867 285.231 394.59 285.231 394.254V390.413H286.717V389.468H285.231V387.906H284.287V388.473C284.287 388.758 284.203 388.998 284.035 389.191C283.867 389.376 283.64 389.468 283.355 389.468H283.04V390.413H284.287V394.254C284.287 394.909 284.45 395.413 284.778 395.765C285.105 396.118 285.571 396.294 286.176 396.294ZM291.304 396.37C291.766 396.37 292.186 396.294 292.564 396.143C292.95 395.984 293.281 395.778 293.559 395.526C293.836 395.266 294.041 394.984 294.176 394.682L293.37 394.254C293.16 394.607 292.887 394.9 292.551 395.136C292.215 395.371 291.799 395.488 291.304 395.488C290.901 395.488 290.523 395.392 290.171 395.199C289.818 395.005 289.528 394.737 289.301 394.393C289.083 394.04 288.966 393.62 288.949 393.133H294.264C294.281 393.024 294.293 392.919 294.302 392.818C294.31 392.709 294.314 392.612 294.314 392.528C294.314 392.125 294.243 391.735 294.1 391.357C293.957 390.971 293.752 390.627 293.483 390.324C293.214 390.014 292.887 389.77 292.501 389.594C292.123 389.409 291.69 389.317 291.203 389.317C290.59 389.317 290.036 389.468 289.541 389.77C289.054 390.073 288.668 390.488 288.382 391.017C288.097 391.538 287.954 392.138 287.954 392.818C287.954 393.498 288.101 394.107 288.395 394.644C288.689 395.182 289.087 395.606 289.591 395.916C290.103 396.219 290.674 396.37 291.304 396.37ZM291.203 390.198C291.581 390.198 291.925 390.287 292.236 390.463C292.555 390.639 292.807 390.883 292.992 391.193C293.185 391.496 293.286 391.848 293.294 392.251H288.974C289.024 391.832 289.155 391.471 289.364 391.168C289.583 390.858 289.851 390.618 290.171 390.45C290.49 390.282 290.834 390.198 291.203 390.198ZM299.028 396.37C299.548 396.37 300.027 396.261 300.463 396.042C300.9 395.824 301.244 395.518 301.496 395.123V396.219H302.441V386.685H301.496V390.488C301.219 390.127 300.871 389.842 300.451 389.632C300.031 389.422 299.557 389.317 299.028 389.317C298.389 389.317 297.818 389.472 297.315 389.783C296.819 390.085 296.425 390.501 296.131 391.03C295.845 391.559 295.703 392.163 295.703 392.843C295.703 393.515 295.845 394.12 296.131 394.657C296.425 395.186 296.824 395.606 297.327 395.916C297.831 396.219 298.398 396.37 299.028 396.37ZM299.078 395.425C298.625 395.425 298.217 395.312 297.856 395.085C297.504 394.859 297.222 394.552 297.012 394.166C296.811 393.771 296.71 393.33 296.71 392.843C296.71 392.348 296.811 391.907 297.012 391.521C297.222 391.135 297.508 390.828 297.869 390.601C298.23 390.375 298.633 390.261 299.078 390.261C299.531 390.261 299.939 390.375 300.3 390.601C300.669 390.828 300.959 391.139 301.169 391.533C301.387 391.92 301.496 392.356 301.496 392.843C301.496 393.33 301.387 393.771 301.169 394.166C300.959 394.552 300.669 394.859 300.3 395.085C299.939 395.312 299.531 395.425 299.078 395.425Z" fill="black"/>
<circle cx="223.393" cy="391.315" r="3.5985" fill="#235D5E"/>
<path d="M345.951 396.219H346.958V388.763L352.122 396.219H353.004V386.836H351.996V394.241L346.832 386.836H345.951V396.219ZM358.159 396.37C358.621 396.37 359.041 396.294 359.419 396.143C359.805 395.984 360.136 395.778 360.414 395.526C360.691 395.266 360.896 394.984 361.031 394.682L360.225 394.254C360.015 394.607 359.742 394.9 359.406 395.136C359.07 395.371 358.654 395.488 358.159 395.488C357.756 395.488 357.378 395.392 357.026 395.199C356.673 395.005 356.383 394.737 356.157 394.393C355.938 394.04 355.821 393.62 355.804 393.133H361.119C361.136 393.024 361.148 392.919 361.157 392.818C361.165 392.709 361.169 392.612 361.169 392.528C361.169 392.125 361.098 391.735 360.955 391.357C360.812 390.971 360.607 390.627 360.338 390.324C360.069 390.014 359.742 389.77 359.356 389.594C358.978 389.409 358.545 389.317 358.058 389.317C357.445 389.317 356.891 389.468 356.396 389.77C355.909 390.073 355.523 390.488 355.237 391.017C354.952 391.538 354.809 392.138 354.809 392.818C354.809 393.498 354.956 394.107 355.25 394.644C355.544 395.182 355.942 395.606 356.446 395.916C356.958 396.219 357.529 396.37 358.159 396.37ZM358.058 390.198C358.436 390.198 358.78 390.287 359.091 390.463C359.41 390.639 359.662 390.883 359.847 391.193C360.04 391.496 360.141 391.848 360.149 392.251H355.829C355.879 391.832 356.01 391.471 356.219 391.168C356.438 390.858 356.706 390.618 357.026 390.45C357.345 390.282 357.689 390.198 358.058 390.198ZM364.321 396.219H365.265L366.89 390.879L368.502 396.219H369.447L371.764 389.468H370.706L368.981 394.77L367.356 389.468H366.412L364.799 394.77L363.074 389.468H362.003L364.321 396.219ZM379.571 396.37C380.225 396.37 380.834 396.252 381.397 396.017C381.968 395.774 382.467 395.438 382.896 395.01C383.324 394.573 383.66 394.061 383.903 393.473C384.147 392.877 384.268 392.226 384.268 391.521C384.268 390.816 384.147 390.169 383.903 389.581C383.66 388.994 383.324 388.486 382.896 388.057C382.467 387.621 381.968 387.285 381.397 387.05C380.834 386.806 380.225 386.685 379.571 386.685C378.916 386.685 378.303 386.802 377.732 387.037C377.169 387.272 376.674 387.608 376.246 388.045C375.817 388.473 375.481 388.985 375.238 389.581C374.994 390.169 374.873 390.816 374.873 391.521C374.873 392.226 374.994 392.877 375.238 393.473C375.481 394.061 375.817 394.573 376.246 395.01C376.674 395.438 377.169 395.774 377.732 396.017C378.303 396.252 378.916 396.37 379.571 396.37ZM379.571 395.425C378.848 395.425 378.21 395.249 377.656 394.896C377.102 394.544 376.665 394.073 376.346 393.486C376.036 392.89 375.88 392.235 375.88 391.521C375.88 390.992 375.968 390.492 376.145 390.022C376.33 389.552 376.586 389.136 376.913 388.775C377.241 388.414 377.627 388.133 378.072 387.931C378.525 387.73 379.025 387.629 379.571 387.629C380.116 387.629 380.612 387.73 381.057 387.931C381.51 388.133 381.901 388.414 382.228 388.775C382.556 389.136 382.807 389.552 382.984 390.022C383.168 390.492 383.261 390.992 383.261 391.521C383.261 392.235 383.101 392.89 382.782 393.486C382.472 394.073 382.039 394.544 381.485 394.896C380.931 395.249 380.293 395.425 379.571 395.425ZM386.069 396.219H387.013V392.062C387.013 391.508 387.16 391.08 387.454 390.778C387.748 390.476 388.138 390.324 388.625 390.324H389.217V389.38H388.789C388.378 389.38 388.021 389.451 387.718 389.594C387.425 389.737 387.19 389.938 387.013 390.198V389.468H386.069V396.219ZM393.372 396.37C393.893 396.37 394.371 396.261 394.808 396.042C395.245 395.824 395.589 395.518 395.841 395.123V396.219H396.785V386.685H395.841V390.488C395.564 390.127 395.215 389.842 394.795 389.632C394.376 389.422 393.901 389.317 393.372 389.317C392.734 389.317 392.163 389.472 391.659 389.783C391.164 390.085 390.769 390.501 390.475 391.03C390.19 391.559 390.047 392.163 390.047 392.843C390.047 393.515 390.19 394.12 390.475 394.657C390.769 395.186 391.168 395.606 391.672 395.916C392.176 396.219 392.742 396.37 393.372 396.37ZM393.423 395.425C392.969 395.425 392.562 395.312 392.201 395.085C391.848 394.859 391.567 394.552 391.357 394.166C391.155 393.771 391.055 393.33 391.055 392.843C391.055 392.348 391.155 391.907 391.357 391.521C391.567 391.135 391.852 390.828 392.213 390.601C392.574 390.375 392.978 390.261 393.423 390.261C393.876 390.261 394.283 390.375 394.644 390.601C395.014 390.828 395.303 391.139 395.513 391.533C395.732 391.92 395.841 392.356 395.841 392.843C395.841 393.33 395.732 393.771 395.513 394.166C395.303 394.552 395.014 394.859 394.644 395.085C394.283 395.312 393.876 395.425 393.423 395.425ZM401.798 396.37C402.26 396.37 402.68 396.294 403.057 396.143C403.444 395.984 403.775 395.778 404.052 395.526C404.33 395.266 404.535 394.984 404.67 394.682L403.864 394.254C403.654 394.607 403.381 394.9 403.045 395.136C402.709 395.371 402.293 395.488 401.798 395.488C401.395 395.488 401.017 395.392 400.664 395.199C400.312 395.005 400.022 394.737 399.795 394.393C399.577 394.04 399.46 393.62 399.443 393.133H404.758C404.775 393.024 404.787 392.919 404.796 392.818C404.804 392.709 404.808 392.612 404.808 392.528C404.808 392.125 404.737 391.735 404.594 391.357C404.451 390.971 404.246 390.627 403.977 390.324C403.708 390.014 403.381 389.77 402.994 389.594C402.617 389.409 402.184 389.317 401.697 389.317C401.084 389.317 400.53 389.468 400.035 389.77C399.548 390.073 399.161 390.488 398.876 391.017C398.59 391.538 398.448 392.138 398.448 392.818C398.448 393.498 398.595 394.107 398.889 394.644C399.182 395.182 399.581 395.606 400.085 395.916C400.597 396.219 401.168 396.37 401.798 396.37ZM401.697 390.198C402.075 390.198 402.419 390.287 402.73 390.463C403.049 390.639 403.301 390.883 403.486 391.193C403.679 391.496 403.78 391.848 403.788 392.251H399.468C399.518 391.832 399.648 391.471 399.858 391.168C400.077 390.858 400.345 390.618 400.664 390.45C400.984 390.282 401.328 390.198 401.697 390.198ZM406.474 396.219H407.418V392.062C407.418 391.508 407.565 391.08 407.859 390.778C408.153 390.476 408.543 390.324 409.03 390.324H409.622V389.38H409.194C408.783 389.38 408.426 389.451 408.123 389.594C407.83 389.737 407.595 389.938 407.418 390.198V389.468H406.474V396.219Z" fill="black"/>
<circle cx="334.047" cy="391.315" r="3.5985" fill="#CFEDEE"/>
<path d="M281.841 314.758H287.12L293.856 306.013C294.698 304.912 295.335 303.93 295.767 303.066C296.221 302.181 296.523 301.35 296.674 300.573C296.847 299.795 296.933 299.018 296.933 298.241C296.933 296.708 296.566 295.337 295.832 294.128C295.119 292.918 294.137 291.968 292.885 291.278C291.633 290.587 290.186 290.241 288.545 290.241C286.926 290.241 285.479 290.587 284.205 291.278C282.953 291.968 281.96 292.929 281.226 294.16C280.513 295.369 280.157 296.751 280.157 298.305C280.157 299.774 280.481 301.091 281.128 302.257C281.798 303.401 282.705 304.308 283.849 304.977C284.993 305.646 286.3 305.981 287.768 305.981C288.113 305.981 288.426 305.959 288.707 305.916L281.841 314.758ZM288.545 302.289C287.422 302.289 286.472 301.922 285.695 301.188C284.939 300.432 284.561 299.461 284.561 298.273C284.561 297.064 284.939 296.082 285.695 295.326C286.472 294.57 287.422 294.192 288.545 294.192C289.668 294.192 290.607 294.57 291.363 295.326C292.118 296.082 292.496 297.064 292.496 298.273C292.496 299.461 292.118 300.432 291.363 301.188C290.607 301.922 289.668 302.289 288.545 302.289ZM307.427 315.146C309.047 315.146 310.482 314.801 311.735 314.11C313.009 313.398 314.002 312.437 314.714 311.228C315.427 309.997 315.783 308.604 315.783 307.05C315.783 305.582 315.448 304.275 314.779 303.131C314.131 301.987 313.235 301.08 312.091 300.411C310.947 299.741 309.64 299.407 308.172 299.407C307.827 299.407 307.503 299.428 307.201 299.471L314.099 290.63H308.852L302.116 299.374C301.296 300.454 300.659 301.436 300.205 302.321C299.752 303.207 299.439 304.038 299.266 304.815C299.115 305.592 299.039 306.37 299.039 307.147C299.039 308.68 299.395 310.051 300.108 311.26C300.821 312.469 301.803 313.419 303.055 314.11C304.329 314.801 305.786 315.146 307.427 315.146ZM307.427 311.195C306.305 311.195 305.355 310.817 304.577 310.062C303.822 309.284 303.444 308.302 303.444 307.115C303.444 305.905 303.822 304.934 304.577 304.2C305.355 303.444 306.305 303.066 307.427 303.066C308.55 303.066 309.489 303.444 310.245 304.2C311.001 304.934 311.379 305.905 311.379 307.115C311.379 308.302 310.99 309.284 310.213 310.062C309.457 310.817 308.529 311.195 307.427 311.195ZM325.874 302.872C327.061 302.872 328.13 302.591 329.08 302.03C330.03 301.447 330.785 300.68 331.347 299.73C331.908 298.78 332.189 297.722 332.189 296.557C332.189 295.391 331.908 294.333 331.347 293.383C330.785 292.411 330.03 291.645 329.08 291.083C328.13 290.522 327.061 290.241 325.874 290.241C324.686 290.241 323.606 290.522 322.635 291.083C321.663 291.645 320.897 292.411 320.335 293.383C319.774 294.333 319.493 295.391 319.493 296.557C319.493 297.722 319.774 298.78 320.335 299.73C320.897 300.68 321.663 301.447 322.635 302.03C323.606 302.591 324.686 302.872 325.874 302.872ZM322.084 314.758H326.618L346.18 290.63H341.646L322.084 314.758ZM325.874 299.601C324.945 299.601 324.211 299.288 323.671 298.662C323.153 298.036 322.894 297.334 322.894 296.557C322.894 295.779 323.153 295.078 323.671 294.451C324.211 293.804 324.945 293.48 325.874 293.48C326.802 293.48 327.514 293.804 328.011 294.451C328.529 295.078 328.788 295.779 328.788 296.557C328.788 297.334 328.529 298.036 328.011 298.662C327.514 299.288 326.802 299.601 325.874 299.601ZM342.293 315.146C343.481 315.146 344.55 314.866 345.5 314.304C346.471 313.721 347.238 312.955 347.799 312.005C348.361 311.055 348.641 309.997 348.641 308.831C348.641 307.665 348.361 306.607 347.799 305.657C347.238 304.686 346.471 303.919 345.5 303.358C344.55 302.796 343.481 302.516 342.293 302.516C341.106 302.516 340.026 302.796 339.055 303.358C338.105 303.919 337.349 304.686 336.788 305.657C336.226 306.607 335.946 307.665 335.946 308.831C335.946 309.997 336.226 311.055 336.788 312.005C337.349 312.955 338.105 313.721 339.055 314.304C340.026 314.866 341.106 315.146 342.293 315.146ZM342.293 311.875C341.365 311.875 340.642 311.562 340.124 310.936C339.605 310.31 339.346 309.608 339.346 308.831C339.346 308.054 339.605 307.352 340.124 306.726C340.642 306.078 341.365 305.754 342.293 305.754C343.222 305.754 343.945 306.078 344.463 306.726C344.982 307.352 345.241 308.054 345.241 308.831C345.241 309.608 344.982 310.31 344.463 310.936C343.945 311.562 343.222 311.875 342.293 311.875Z" fill="black"/>
<path d="M280.549 335.65C281.029 335.65 281.473 335.566 281.881 335.398C282.295 335.224 282.658 334.981 282.969 334.669C283.281 334.357 283.524 333.992 283.698 333.572C283.872 333.152 283.959 332.69 283.959 332.186C283.959 331.689 283.872 331.23 283.698 330.81C283.524 330.384 283.281 330.018 282.969 329.712C282.658 329.401 282.295 329.161 281.881 328.993C281.473 328.819 281.029 328.732 280.549 328.732C280.076 328.732 279.632 328.819 279.218 328.993C278.804 329.161 278.441 329.401 278.129 329.712C277.824 330.018 277.584 330.381 277.41 330.801C277.236 331.221 277.149 331.683 277.149 332.186C277.149 332.69 277.236 333.152 277.41 333.572C277.584 333.992 277.827 334.357 278.138 334.669C278.45 334.981 278.81 335.224 279.218 335.398C279.632 335.566 280.076 335.65 280.549 335.65ZM280.549 334.831C280.064 334.831 279.629 334.714 279.245 334.48C278.867 334.241 278.57 333.923 278.354 333.527C278.138 333.125 278.031 332.678 278.031 332.186C278.031 331.695 278.138 331.251 278.354 330.855C278.57 330.459 278.867 330.144 279.245 329.91C279.623 329.67 280.058 329.55 280.549 329.55C281.041 329.55 281.476 329.67 281.854 329.91C282.232 330.144 282.529 330.459 282.745 330.855C282.96 331.251 283.068 331.695 283.068 332.186C283.068 332.678 282.96 333.125 282.745 333.527C282.529 333.923 282.232 334.241 281.854 334.48C281.476 334.714 281.041 334.831 280.549 334.831ZM285.146 335.542H285.983V332.654C285.983 332.264 286.088 331.964 286.297 331.755C286.507 331.539 286.783 331.431 287.125 331.431H287.548V330.639H287.251C286.951 330.639 286.693 330.693 286.477 330.801C286.261 330.903 286.091 331.059 285.965 331.269V330.693H285.146V335.542ZM290.495 335.65C290.855 335.65 291.182 335.581 291.476 335.443C291.776 335.299 292.016 335.095 292.195 334.831V335.542H293.014V328.732H292.168V331.341C291.983 331.101 291.746 330.915 291.458 330.783C291.17 330.651 290.849 330.585 290.495 330.585C290.039 330.585 289.629 330.696 289.263 330.918C288.903 331.14 288.618 331.443 288.408 331.827C288.198 332.204 288.093 332.636 288.093 333.122C288.093 333.602 288.198 334.034 288.408 334.417C288.618 334.795 288.903 335.095 289.263 335.317C289.629 335.539 290.039 335.65 290.495 335.65ZM290.567 334.84C290.261 334.84 289.988 334.765 289.748 334.615C289.509 334.465 289.32 334.262 289.182 334.004C289.044 333.74 288.975 333.446 288.975 333.122C288.975 332.792 289.044 332.498 289.182 332.24C289.32 331.976 289.509 331.77 289.748 331.62C289.994 331.47 290.267 331.395 290.567 331.395C290.873 331.395 291.146 331.473 291.386 331.629C291.626 331.779 291.815 331.982 291.953 332.24C292.097 332.498 292.168 332.792 292.168 333.122C292.168 333.446 292.097 333.74 291.953 334.004C291.815 334.262 291.626 334.465 291.386 334.615C291.146 334.765 290.873 334.84 290.567 334.84ZM296.54 335.65C297.038 335.65 297.47 335.533 297.836 335.299C298.201 335.065 298.459 334.78 298.609 334.444L297.908 334.085C297.77 334.319 297.59 334.51 297.368 334.66C297.146 334.81 296.873 334.885 296.549 334.885C296.279 334.885 296.027 334.825 295.793 334.705C295.566 334.579 295.377 334.402 295.227 334.175C295.083 333.947 295.005 333.677 294.993 333.365H298.699C298.729 333.203 298.744 333.053 298.744 332.915C298.744 332.513 298.654 332.135 298.474 331.782C298.294 331.428 298.034 331.14 297.692 330.918C297.356 330.696 296.948 330.585 296.468 330.585C296.018 330.585 295.617 330.693 295.263 330.909C294.909 331.125 294.627 331.425 294.417 331.809C294.213 332.186 294.111 332.618 294.111 333.104C294.111 333.59 294.216 334.025 294.426 334.408C294.636 334.792 294.924 335.095 295.29 335.317C295.656 335.539 296.072 335.65 296.54 335.65ZM296.468 331.332C296.714 331.332 296.939 331.389 297.143 331.503C297.347 331.611 297.512 331.764 297.638 331.961C297.764 332.159 297.83 332.387 297.836 332.645H295.011C295.071 332.237 295.239 331.916 295.515 331.683C295.79 331.449 296.108 331.332 296.468 331.332ZM299.835 335.542H300.672V332.654C300.672 332.264 300.777 331.964 300.987 331.755C301.197 331.539 301.472 331.431 301.814 331.431H302.237V330.639H301.94C301.64 330.639 301.382 330.693 301.167 330.801C300.951 330.903 300.78 331.059 300.654 331.269V330.693H299.835V335.542ZM307.72 335.65C308.182 335.65 308.596 335.569 308.961 335.407C309.333 335.245 309.645 335.035 309.897 334.777C310.155 334.519 310.338 334.244 310.446 333.95L309.636 333.581C309.48 333.953 309.237 334.256 308.907 334.489C308.578 334.717 308.182 334.831 307.72 334.831C307.252 334.831 306.835 334.72 306.47 334.498C306.11 334.277 305.828 333.968 305.624 333.572C305.42 333.176 305.318 332.717 305.318 332.195C305.318 331.668 305.42 331.206 305.624 330.81C305.828 330.414 306.11 330.105 306.47 329.883C306.835 329.661 307.252 329.55 307.72 329.55C308.182 329.55 308.578 329.667 308.907 329.901C309.237 330.129 309.48 330.429 309.636 330.801L310.446 330.432C310.338 330.138 310.155 329.862 309.897 329.604C309.645 329.347 309.333 329.137 308.961 328.975C308.596 328.813 308.182 328.732 307.72 328.732C307.246 328.732 306.808 328.819 306.407 328.993C306.011 329.161 305.663 329.401 305.363 329.712C305.069 330.024 304.841 330.39 304.679 330.81C304.517 331.23 304.436 331.692 304.436 332.195C304.436 332.693 304.517 333.155 304.679 333.581C304.841 334.001 305.069 334.366 305.363 334.678C305.663 334.984 306.011 335.224 306.407 335.398C306.808 335.566 307.246 335.65 307.72 335.65ZM313.761 335.65C314.217 335.65 314.634 335.542 315.012 335.326C315.39 335.11 315.689 334.81 315.911 334.426C316.139 334.043 316.253 333.605 316.253 333.113C316.253 332.627 316.142 332.195 315.92 331.818C315.704 331.434 315.408 331.134 315.03 330.918C314.652 330.696 314.229 330.585 313.761 330.585C313.287 330.585 312.862 330.696 312.484 330.918C312.106 331.134 311.806 331.434 311.584 331.818C311.368 332.195 311.26 332.627 311.26 333.113C311.26 333.599 311.371 334.034 311.593 334.417C311.815 334.801 312.115 335.104 312.493 335.326C312.871 335.542 313.293 335.65 313.761 335.65ZM313.761 334.84C313.455 334.84 313.18 334.765 312.934 334.615C312.694 334.465 312.502 334.262 312.358 334.004C312.214 333.74 312.142 333.443 312.142 333.113C312.142 332.783 312.214 332.489 312.358 332.231C312.502 331.973 312.694 331.77 312.934 331.62C313.18 331.47 313.455 331.395 313.761 331.395C314.061 331.395 314.331 331.47 314.571 331.62C314.817 331.77 315.009 331.973 315.147 332.231C315.291 332.489 315.363 332.783 315.363 333.113C315.363 333.443 315.291 333.74 315.147 334.004C315.009 334.262 314.817 334.465 314.571 334.615C314.331 334.765 314.061 334.84 313.761 334.84ZM317.344 335.542H318.181V332.672C318.181 332.276 318.289 331.964 318.505 331.737C318.721 331.509 318.991 331.395 319.315 331.395C319.644 331.395 319.911 331.509 320.115 331.737C320.325 331.958 320.43 332.27 320.43 332.672V335.542H321.276V332.672C321.276 332.276 321.381 331.964 321.591 331.737C321.807 331.509 322.079 331.395 322.409 331.395C322.733 331.395 323 331.509 323.21 331.737C323.42 331.958 323.525 332.27 323.525 332.672V335.542H324.371V332.402C324.371 332.054 324.29 331.746 324.128 331.476C323.966 331.2 323.747 330.984 323.471 330.828C323.201 330.666 322.898 330.585 322.562 330.585C322.238 330.585 321.942 330.66 321.672 330.81C321.408 330.96 321.198 331.179 321.042 331.467C320.898 331.197 320.688 330.984 320.412 330.828C320.142 330.666 319.842 330.585 319.513 330.585C319.225 330.585 318.961 330.648 318.721 330.774C318.487 330.894 318.301 331.068 318.163 331.296V330.693H317.344V335.542ZM325.559 337.341H326.395V334.867C326.581 335.119 326.818 335.314 327.106 335.452C327.4 335.584 327.721 335.65 328.069 335.65C328.531 335.65 328.941 335.539 329.301 335.317C329.667 335.095 329.955 334.795 330.165 334.417C330.375 334.034 330.48 333.602 330.48 333.122C330.48 332.636 330.375 332.204 330.165 331.827C329.955 331.443 329.67 331.14 329.31 330.918C328.95 330.696 328.54 330.585 328.078 330.585C327.712 330.585 327.382 330.657 327.088 330.801C326.8 330.939 326.563 331.131 326.377 331.377V330.693H325.559V337.341ZM328.006 334.84C327.706 334.84 327.433 334.765 327.187 334.615C326.941 334.465 326.746 334.262 326.602 334.004C326.464 333.74 326.395 333.446 326.395 333.122C326.395 332.792 326.464 332.498 326.602 332.24C326.746 331.982 326.941 331.779 327.187 331.629C327.433 331.473 327.706 331.395 328.006 331.395C328.312 331.395 328.582 331.47 328.815 331.62C329.055 331.77 329.244 331.976 329.382 332.24C329.52 332.498 329.589 332.792 329.589 333.122C329.589 333.446 329.52 333.74 329.382 334.004C329.244 334.262 329.055 334.465 328.815 334.615C328.582 334.765 328.312 334.84 328.006 334.84ZM331.577 335.542H332.413V328.732H331.577V335.542ZM335.943 335.65C336.441 335.65 336.872 335.533 337.238 335.299C337.604 335.065 337.862 334.78 338.012 334.444L337.31 334.085C337.172 334.319 336.992 334.51 336.77 334.66C336.548 334.81 336.276 334.885 335.952 334.885C335.682 334.885 335.43 334.825 335.196 334.705C334.968 334.579 334.779 334.402 334.629 334.175C334.485 333.947 334.407 333.677 334.395 333.365H338.102C338.132 333.203 338.147 333.053 338.147 332.915C338.147 332.513 338.057 332.135 337.877 331.782C337.697 331.428 337.436 331.14 337.094 330.918C336.758 330.696 336.351 330.585 335.871 330.585C335.421 330.585 335.019 330.693 334.665 330.909C334.311 331.125 334.03 331.425 333.82 331.809C333.616 332.186 333.514 332.618 333.514 333.104C333.514 333.59 333.619 334.025 333.829 334.408C334.039 334.792 334.326 335.095 334.692 335.317C335.058 335.539 335.475 335.65 335.943 335.65ZM335.871 331.332C336.117 331.332 336.342 331.389 336.545 331.503C336.749 331.611 336.914 331.764 337.04 331.961C337.166 332.159 337.232 332.387 337.238 332.645H334.413C334.473 332.237 334.641 331.916 334.917 331.683C335.193 331.449 335.511 331.332 335.871 331.332ZM341.208 335.596C341.274 335.596 341.355 335.593 341.451 335.587C341.547 335.581 341.634 335.569 341.712 335.551V334.804C341.658 334.81 341.601 334.816 341.541 334.822C341.481 334.828 341.427 334.831 341.379 334.831C341.085 334.831 340.875 334.759 340.749 334.615C340.629 334.465 340.569 334.268 340.569 334.022V331.494H341.658V330.693H340.569V329.577H339.732V329.973C339.732 330.195 339.67 330.372 339.544 330.504C339.418 330.63 339.247 330.693 339.031 330.693H338.851V331.494H339.732V334.049C339.732 334.54 339.858 334.921 340.11 335.191C340.368 335.461 340.734 335.596 341.208 335.596ZM344.904 335.65C345.402 335.65 345.833 335.533 346.199 335.299C346.565 335.065 346.823 334.78 346.973 334.444L346.271 334.085C346.133 334.319 345.953 334.51 345.732 334.66C345.51 334.81 345.237 334.885 344.913 334.885C344.643 334.885 344.391 334.825 344.157 334.705C343.929 334.579 343.74 334.402 343.59 334.175C343.446 333.947 343.368 333.677 343.357 333.365H347.063C347.093 333.203 347.108 333.053 347.108 332.915C347.108 332.513 347.018 332.135 346.838 331.782C346.658 331.428 346.397 331.14 346.055 330.918C345.72 330.696 345.312 330.585 344.832 330.585C344.382 330.585 343.98 330.693 343.626 330.909C343.273 331.125 342.991 331.425 342.781 331.809C342.577 332.186 342.475 332.618 342.475 333.104C342.475 333.59 342.58 334.025 342.79 334.408C343 334.792 343.288 335.095 343.653 335.317C344.019 335.539 344.436 335.65 344.904 335.65ZM344.832 331.332C345.078 331.332 345.303 331.389 345.507 331.503C345.711 331.611 345.875 331.764 346.001 331.961C346.127 332.159 346.193 332.387 346.199 332.645H343.374C343.434 332.237 343.602 331.916 343.878 331.683C344.154 331.449 344.472 331.332 344.832 331.332ZM350.403 335.65C350.763 335.65 351.09 335.581 351.383 335.443C351.683 335.299 351.923 335.095 352.103 334.831V335.542H352.922V328.732H352.076V331.341C351.89 331.101 351.653 330.915 351.365 330.783C351.078 330.651 350.757 330.585 350.403 330.585C349.947 330.585 349.536 330.696 349.17 330.918C348.811 331.14 348.526 331.443 348.316 331.827C348.106 332.204 348.001 332.636 348.001 333.122C348.001 333.602 348.106 334.034 348.316 334.417C348.526 334.795 348.811 335.095 349.17 335.317C349.536 335.539 349.947 335.65 350.403 335.65ZM350.475 334.84C350.169 334.84 349.896 334.765 349.656 334.615C349.416 334.465 349.227 334.262 349.089 334.004C348.951 333.74 348.883 333.446 348.883 333.122C348.883 332.792 348.951 332.498 349.089 332.24C349.227 331.976 349.416 331.77 349.656 331.62C349.902 331.47 350.175 331.395 350.475 331.395C350.781 331.395 351.054 331.473 351.294 331.629C351.533 331.779 351.722 331.982 351.86 332.24C352.004 332.498 352.076 332.792 352.076 333.122C352.076 333.446 352.004 333.74 351.86 334.004C351.722 334.262 351.533 334.465 351.294 334.615C351.054 334.765 350.781 334.84 350.475 334.84Z" fill="#7A7A7A"/>
</g>
<defs>
<filter id="filter0_d_548_49454" x="0.585595" y="-7.24087" width="659.581" height="582.654" filterUnits="userSpaceOnUse" color-interpolation-filters="sRGB">
<feFlood flood-opacity="0" result="BackgroundImageFix"/>
<feColorMatrix in="SourceAlpha" type="matrix" values="0 0 0 0 0 0 0 0 0 0 0 0 0 0 0 0 0 0 127 0" result="hardAlpha"/>
<feOffset dx="15.1481" dy="18.3217"/>
<feGaussianBlur stdDeviation="63.7813"/>
<feComposite in2="hardAlpha" operator="out"/>
<feColorMatrix type="matrix" values="0 0 0 0 0 0 0 0 0 0 0 0 0 0 0 0 0 0 0.1 0"/>
<feBlend mode="normal" in2="BackgroundImageFix" result="effect1_dropShadow_548_49454"/>
<feBlend mode="normal" in="SourceGraphic" in2="effect1_dropShadow_548_49454" result="shape"/>
</filter>
<clipPath id="clip0_548_49454">
<rect width="16.1933" height="16.1933" fill="white" transform="translate(361.792 133.121)"/>
</clipPath>
<clipPath id="clip1_548_49454">
<rect width="16.1933" height="16.1933" fill="white" transform="translate(461.649 133.121)"/>
</clipPath>
</defs>
</svg>
