<svg width="529" height="580" viewBox="0 0 529 580" fill="none" xmlns="http://www.w3.org/2000/svg">
<g filter="url(#filter0_d_548_49510)">
<rect x="104" y="190" width="224.458" height="180" rx="13.9536" fill="white" shape-rendering="crispEdges"/>
<path d="M135.373 284.601H139.297C139.389 286.154 140.099 287.109 141.427 287.467V281.965C141.131 281.873 140.564 281.673 139.726 281.367C139.266 281.193 138.755 280.943 138.193 280.616C137.355 280.115 136.727 279.502 136.308 278.776C135.889 278.041 135.649 277.075 135.587 275.88C135.587 274.429 136.058 273.162 136.998 272.079C137.958 270.975 139.435 270.347 141.427 270.193V268.093H143.619V270.193C145.315 270.398 146.654 271.041 147.635 272.125C148.626 273.197 149.152 274.567 149.213 276.232H145.412C145.32 274.863 144.722 273.969 143.619 273.55V278.868C144.334 279.114 145.044 279.384 145.749 279.681C146.24 279.875 146.838 280.227 147.543 280.738C148.881 281.617 149.55 283.043 149.55 285.015C149.55 286.711 149.06 288.075 148.079 289.107C147.108 290.129 145.622 290.732 143.619 290.916V293.015H141.427V290.916C139.537 290.742 138.076 290.108 137.044 289.015C136.012 287.922 135.455 286.45 135.373 284.601ZM143.619 282.762V287.498C144.978 287.222 145.657 286.435 145.657 285.137C145.657 284.126 144.978 283.334 143.619 282.762ZM139.542 275.665C139.542 276.646 140.17 277.438 141.427 278.041V273.458C140.17 273.734 139.542 274.47 139.542 275.665ZM161.552 270.224V291.544H157.199V277.474H152.417V274.408H153.183C154.705 274.408 155.824 274.081 156.54 273.427C157.255 272.773 157.618 271.706 157.628 270.224H161.552ZM180.756 291.544H165.46V290.41L174.166 280.187C174.83 279.4 175.305 278.715 175.591 278.133C175.877 277.55 176.02 276.927 176.02 276.263C176.02 275.435 175.77 274.766 175.269 274.255C174.769 273.744 174.043 273.489 173.093 273.489C172.173 273.489 171.417 273.775 170.824 274.347C170.242 274.909 169.93 275.711 169.89 276.753H165.659C165.751 274.332 166.482 272.574 167.851 271.481C169.23 270.377 170.978 269.825 173.093 269.825C175.494 269.825 177.333 270.413 178.611 271.588C179.888 272.763 180.527 274.332 180.527 276.293C180.527 278.133 179.648 280.1 177.89 282.194L173.001 287.773H180.756V291.544ZM184.941 295.943V294.058C186.259 293.782 187.01 293.082 187.194 291.958C187.112 291.978 186.923 291.988 186.627 291.988C185.942 291.988 185.365 291.753 184.895 291.283C184.435 290.803 184.205 290.21 184.205 289.505C184.205 288.77 184.44 288.157 184.91 287.666C185.38 287.176 185.983 286.93 186.719 286.93C187.495 286.93 188.113 287.191 188.573 287.712C189.033 288.223 189.263 288.959 189.263 289.919C189.263 293.393 187.822 295.401 184.941 295.943ZM201.218 286.869H192.175V283.911L200.774 270.224H205.571V283.451H207.778V286.869H205.571V291.544H201.218V286.869ZM198.168 279.865L195.884 283.451H201.218V280.279C201.218 278.531 201.249 276.774 201.31 275.006H201.157C200.166 276.702 199.169 278.322 198.168 279.865ZM218.507 282.286H216.836V279.022H218.415C219.171 279.022 219.769 278.776 220.208 278.286C220.648 277.796 220.867 277.142 220.867 276.324C220.867 275.466 220.607 274.781 220.086 274.27C219.575 273.749 218.86 273.489 217.94 273.489C217.061 273.489 216.336 273.78 215.764 274.362C215.202 274.945 214.9 275.731 214.859 276.723H210.629C210.752 274.25 211.482 272.482 212.821 271.419C214.159 270.357 215.876 269.825 217.971 269.825C220.311 269.825 222.104 270.387 223.35 271.511C224.597 272.625 225.22 274.143 225.22 276.064C225.22 278.077 224.48 279.492 222.998 280.309V280.462C223.958 280.769 224.704 281.367 225.236 282.256C225.767 283.134 226.033 284.136 226.033 285.26C226.033 287.395 225.374 289.056 224.055 290.241C222.737 291.426 220.781 292.019 218.185 292.019C216.366 292.019 214.716 291.569 213.235 290.67C212.417 290.149 211.758 289.393 211.257 288.402C210.767 287.411 210.486 286.231 210.414 284.861H214.645C214.716 285.975 215.079 286.833 215.733 287.436C216.397 288.039 217.24 288.341 218.262 288.341C219.314 288.341 220.142 288.065 220.745 287.513C221.348 286.951 221.649 286.19 221.649 285.229C221.649 284.299 221.373 283.579 220.821 283.068C220.28 282.547 219.508 282.286 218.507 282.286ZM232.577 282.409H228.776L230.815 270.224H242.218L241.774 273.994H233.834L232.991 278.577L233.114 278.608C234.238 277.627 235.576 277.136 237.129 277.136C239.122 277.136 240.701 277.78 241.866 279.068C243.041 280.345 243.628 282.087 243.628 284.294C243.628 286.736 242.949 288.637 241.59 289.996C240.241 291.345 238.345 292.019 235.903 292.019C233.89 292.019 232.174 291.493 230.753 290.44C229.364 289.408 228.592 287.748 228.439 285.459H232.363C232.434 286.379 232.787 287.089 233.42 287.59C234.054 288.09 234.851 288.341 235.811 288.341C236.874 288.341 237.707 287.973 238.31 287.237C238.923 286.501 239.229 285.5 239.229 284.233C239.229 282.986 238.923 282.005 238.31 281.29C237.697 280.575 236.874 280.217 235.842 280.217C235.096 280.217 234.437 280.411 233.865 280.8C233.303 281.178 232.874 281.714 232.577 282.409Z" fill="#101828"/>
<path d="M168.737 228.793V241.614H167.03V228.793H168.737ZM171.16 241.614V232.28H172.698V233.594H172.787C173.538 232.533 174.602 232.003 175.979 232.003C177.094 232.003 177.934 232.316 178.501 232.942C179.073 233.562 179.359 234.438 179.359 235.57V241.614H177.767V235.74C177.767 234.995 177.574 234.411 177.186 233.988C176.799 233.565 176.253 233.353 175.55 233.353C174.817 233.353 174.164 233.63 173.592 234.184C173.032 234.709 172.752 235.368 172.752 236.16V241.614H171.16ZM185.305 230.295V228.793H195.166V230.295H191.089V241.614H189.382V230.295H185.305ZM197.124 237.966V241.614H195.533V232.28H197.053V234.506H197.124C197.911 232.933 199.327 232.11 201.371 232.039V233.594C200.143 233.594 199.124 233.955 198.313 234.676C197.521 235.397 197.124 236.494 197.124 237.966ZM210.518 241.614V240.184H210.446C209.624 241.322 208.476 241.891 207.004 241.891C205.722 241.891 204.629 241.421 203.723 240.479C202.823 239.543 202.373 238.366 202.373 236.947C202.373 235.523 202.823 234.342 203.723 233.407C204.623 232.471 205.716 232.003 207.004 232.003C208.482 232.003 209.597 232.551 210.348 233.648H210.446V232.28H212.038V241.614H210.518ZM209.597 239.531C210.223 238.852 210.535 237.99 210.535 236.947C210.535 235.904 210.223 235.043 209.597 234.363C208.965 233.678 208.19 233.335 207.272 233.335C206.36 233.335 205.579 233.678 204.93 234.363C204.298 235.031 203.982 235.892 203.982 236.947C203.982 238.014 204.298 238.881 204.93 239.549C205.561 240.217 206.342 240.55 207.272 240.55C208.196 240.55 208.971 240.211 209.597 239.531ZM214.308 241.614V232.28H215.846V233.594H215.936C216.687 232.533 217.751 232.003 219.128 232.003C220.242 232.003 221.083 232.316 221.649 232.942C222.221 233.562 222.507 234.438 222.507 235.57V241.614H220.916V235.74C220.916 234.995 220.722 234.411 220.335 233.988C219.947 233.565 219.402 233.353 218.698 233.353C217.965 233.353 217.313 233.63 216.74 234.184C216.18 234.709 215.9 235.368 215.9 236.16V241.614H214.308ZM228.685 237.6L226.915 237.144C226.128 236.959 225.526 236.673 225.109 236.286C224.698 235.898 224.492 235.362 224.492 234.676C224.492 233.919 224.799 233.284 225.413 232.772C226.027 232.259 226.861 232.003 227.916 232.003C228.876 232.003 229.702 232.229 230.393 232.682C231.09 233.141 231.448 233.83 231.466 234.748H229.973C229.949 234.271 229.746 233.913 229.365 233.675C228.989 233.436 228.518 233.317 227.952 233.317C227.392 233.317 226.939 233.442 226.593 233.693C226.253 233.937 226.084 234.259 226.084 234.658C226.084 235.266 226.525 235.675 227.407 235.883L228.962 236.286C229.779 236.482 230.438 236.739 230.938 237.054C231.576 237.436 231.895 238.083 231.895 238.995C231.895 239.853 231.561 240.55 230.894 241.087C230.226 241.623 229.326 241.891 228.194 241.891C227.127 241.891 226.224 241.635 225.484 241.123C224.745 240.592 224.349 239.761 224.295 238.628H225.833C225.839 239.272 226.054 239.758 226.477 240.085C226.906 240.407 227.466 240.568 228.158 240.568C228.831 240.568 229.356 240.428 229.731 240.148C230.107 239.862 230.295 239.489 230.295 239.03C230.295 238.655 230.164 238.36 229.901 238.145C229.645 237.931 229.24 237.749 228.685 237.6ZM235.266 232.28V241.614H233.674V232.28H235.266ZM234.461 230.796C234.169 230.796 233.925 230.698 233.728 230.501C233.531 230.304 233.433 230.06 233.433 229.768C233.433 229.476 233.531 229.231 233.728 229.035C233.925 228.838 234.169 228.739 234.461 228.739C234.765 228.739 235.015 228.838 235.212 229.035C235.409 229.225 235.507 229.47 235.507 229.768C235.507 230.066 235.409 230.313 235.212 230.51C235.015 230.701 234.765 230.796 234.461 230.796ZM238.467 239.308V233.559H236.857V232.28H238.467V229.696H240.067V232.28H242.481V233.559H240.067V239.236C240.067 239.683 240.162 240.008 240.353 240.211C240.55 240.413 240.887 240.515 241.363 240.515C241.793 240.515 242.275 240.449 242.812 240.318V241.632C242.198 241.781 241.629 241.856 241.104 241.856C240.174 241.856 239.501 241.659 239.083 241.266C238.672 240.872 238.467 240.219 238.467 239.308Z" fill="#878B93"/>
<g clip-path="url(#clip0_548_49510)">
<path fill-rule="evenodd" clip-rule="evenodd" d="M150.99 230.963C147.585 227.558 142.064 227.558 138.659 230.963C135.453 234.169 135.265 239.252 138.097 242.676C138.404 243.047 138.352 243.597 137.981 243.904C137.61 244.211 137.06 244.159 136.753 243.788C133.354 239.676 133.578 233.578 137.426 229.73C141.512 225.643 148.137 225.643 152.223 229.73C156.066 233.573 156.295 239.661 152.909 243.772C152.603 244.143 152.054 244.197 151.682 243.89C151.31 243.584 151.257 243.035 151.563 242.663C154.383 239.239 154.192 234.165 150.99 230.963ZM150.673 233.024C151.013 233.365 151.013 233.917 150.673 234.257L147.829 237.1C148.136 237.62 148.312 238.225 148.312 238.872C148.312 240.798 146.751 242.36 144.825 242.36C142.898 242.36 141.337 240.798 141.337 238.872C141.337 236.946 142.898 235.384 144.825 235.384C145.471 235.384 146.077 235.561 146.596 235.867L149.44 233.024C149.78 232.684 150.332 232.684 150.673 233.024ZM144.825 237.128C143.861 237.128 143.081 237.909 143.081 238.872C143.081 239.835 143.861 240.616 144.825 240.616C145.788 240.616 146.568 239.835 146.568 238.872C146.568 237.909 145.788 237.128 144.825 237.128Z" fill="#9FA3A9"/>
</g>
<path d="M157.63 323.052V333.712H155.845V326.432H153.507V325.175H153.852C154.613 325.175 155.17 325.011 155.523 324.684C155.875 324.352 156.054 323.808 156.059 323.052H157.63ZM159.968 328.393C159.968 326.682 160.302 325.336 160.971 324.355C161.646 323.353 162.571 322.853 163.746 322.853C164.905 322.853 165.828 323.343 166.512 324.324C167.212 325.29 167.562 326.646 167.562 328.393C167.562 330.192 167.212 331.566 166.512 332.516C165.823 333.472 164.9 333.949 163.746 333.949C162.571 333.949 161.646 333.462 160.971 332.486C160.302 331.505 159.968 330.141 159.968 328.393ZM161.753 328.393C161.753 329.579 161.917 330.552 162.244 331.313C162.571 332.064 163.071 332.44 163.746 332.44C164.42 332.44 164.923 332.069 165.255 331.329C165.588 330.572 165.754 329.594 165.754 328.393C165.754 327.239 165.582 326.281 165.24 325.52C164.893 324.743 164.395 324.355 163.746 324.355C163.102 324.355 162.606 324.743 162.259 325.52C161.922 326.301 161.753 327.259 161.753 328.393ZM168.543 325.382C168.543 324.61 168.786 323.982 169.271 323.496C169.756 322.991 170.367 322.738 171.103 322.738C171.844 322.738 172.457 322.991 172.942 323.496C173.422 323.977 173.662 324.605 173.662 325.382C173.662 326.117 173.417 326.743 172.927 327.259C172.441 327.765 171.833 328.018 171.103 328.018C170.362 328.018 169.751 327.765 169.271 327.259C168.786 326.748 168.543 326.122 168.543 325.382ZM170.191 326.432C170.431 326.702 170.735 326.838 171.103 326.838C171.46 326.838 171.759 326.702 171.999 326.432C172.239 326.145 172.36 325.795 172.36 325.382C172.36 324.958 172.239 324.61 171.999 324.339C171.759 324.069 171.46 323.933 171.103 323.933C170.735 323.933 170.431 324.069 170.191 324.339C169.961 324.6 169.846 324.947 169.846 325.382C169.846 325.806 169.961 326.156 170.191 326.432ZM178.59 322.929L171.777 333.712H170.336L177.165 322.929H178.59ZM175.279 331.229C175.279 330.457 175.519 329.832 176 329.351C176.48 328.846 177.093 328.593 177.839 328.593C178.575 328.593 179.185 328.846 179.671 329.351C180.156 329.837 180.399 330.463 180.399 331.229C180.399 331.965 180.151 332.593 179.655 333.114C179.175 333.615 178.57 333.865 177.839 333.865C177.093 333.865 176.48 333.615 176 333.114C175.519 332.613 175.279 331.985 175.279 331.229ZM179.096 331.229C179.096 330.8 178.978 330.452 178.743 330.187C178.508 329.921 178.207 329.788 177.839 329.788C177.471 329.788 177.167 329.924 176.927 330.194C176.687 330.465 176.567 330.81 176.567 331.229C176.567 331.648 176.687 331.995 176.927 332.271C177.167 332.542 177.471 332.677 177.839 332.677C178.207 332.677 178.508 332.542 178.743 332.271C178.978 331.995 179.096 331.648 179.096 331.229Z" fill="#03AD54"/>
<path d="M196.497 333.712L193.279 325.711H194.804L196.689 330.823L197.218 332.394H197.294L197.831 330.823L199.716 325.711H201.218L198.022 333.712H196.497ZM205.594 330.271L204.077 329.88C203.402 329.722 202.886 329.477 202.528 329.144C202.176 328.812 202 328.353 202 327.765C202 327.116 202.263 326.572 202.789 326.133C203.315 325.693 204.031 325.474 204.935 325.474C205.757 325.474 206.465 325.668 207.058 326.056C207.655 326.449 207.962 327.04 207.977 327.826H206.697C206.677 327.418 206.503 327.111 206.176 326.907C205.854 326.702 205.451 326.6 204.966 326.6C204.485 326.6 204.097 326.707 203.801 326.922C203.509 327.131 203.364 327.407 203.364 327.75C203.364 328.271 203.742 328.621 204.498 328.8L205.831 329.144C206.531 329.313 207.096 329.533 207.525 329.804C208.072 330.13 208.345 330.685 208.345 331.466C208.345 332.202 208.059 332.8 207.487 333.26C206.915 333.72 206.143 333.949 205.172 333.949C204.258 333.949 203.484 333.73 202.85 333.29C202.217 332.836 201.877 332.123 201.831 331.152H203.149C203.154 331.704 203.338 332.12 203.701 332.401C204.069 332.677 204.549 332.815 205.142 332.815C205.719 332.815 206.169 332.695 206.491 332.455C206.812 332.21 206.973 331.891 206.973 331.497C206.973 331.175 206.861 330.922 206.636 330.738C206.416 330.555 206.069 330.399 205.594 330.271ZM215.158 322.722V333.712H213.794V322.722H215.158ZM223.619 333.712V332.486H223.557C222.852 333.462 221.869 333.949 220.607 333.949C219.508 333.949 218.571 333.546 217.794 332.739C217.023 331.937 216.637 330.927 216.637 329.712C216.637 328.49 217.023 327.479 217.794 326.677C218.566 325.875 219.503 325.474 220.607 325.474C221.874 325.474 222.829 325.944 223.473 326.884H223.557V325.711H224.921V333.712H223.619ZM222.829 331.926C223.366 331.344 223.634 330.606 223.634 329.712C223.634 328.817 223.366 328.079 222.829 327.497C222.288 326.909 221.624 326.615 220.837 326.615C220.055 326.615 219.386 326.909 218.829 327.497C218.287 328.069 218.017 328.807 218.017 329.712C218.017 330.626 218.287 331.369 218.829 331.942C219.37 332.514 220.04 332.8 220.837 332.8C221.629 332.8 222.293 332.509 222.829 331.926ZM230.209 330.271L228.692 329.88C228.017 329.722 227.501 329.477 227.144 329.144C226.791 328.812 226.615 328.353 226.615 327.765C226.615 327.116 226.878 326.572 227.404 326.133C227.931 325.693 228.646 325.474 229.55 325.474C230.373 325.474 231.08 325.668 231.673 326.056C232.271 326.449 232.577 327.04 232.593 327.826H231.313C231.292 327.418 231.119 327.111 230.792 326.907C230.47 326.702 230.066 326.6 229.581 326.6C229.101 326.6 228.712 326.707 228.416 326.922C228.125 327.131 227.979 327.407 227.979 327.75C227.979 328.271 228.357 328.621 229.113 328.8L230.447 329.144C231.147 329.313 231.711 329.533 232.14 329.804C232.687 330.13 232.96 330.685 232.96 331.466C232.96 332.202 232.674 332.8 232.102 333.26C231.53 333.72 230.758 333.949 229.788 333.949C228.873 333.949 228.099 333.73 227.466 333.29C226.832 332.836 226.492 332.123 226.446 331.152H227.765C227.77 331.704 227.954 332.12 228.316 332.401C228.684 332.677 229.164 332.815 229.757 332.815C230.334 332.815 230.784 332.695 231.106 332.455C231.428 332.21 231.589 331.891 231.589 331.497C231.589 331.175 231.476 330.922 231.251 330.738C231.032 330.555 230.684 330.399 230.209 330.271ZM235.282 331.735V326.807H233.903V325.711H235.282V323.496H236.654V325.711H238.723V326.807H236.654V331.673C236.654 332.057 236.736 332.335 236.9 332.509C237.068 332.682 237.357 332.769 237.765 332.769C238.133 332.769 238.547 332.713 239.007 332.601V333.727C238.481 333.855 237.993 333.919 237.543 333.919C236.746 333.919 236.169 333.75 235.811 333.413C235.459 333.076 235.282 332.516 235.282 331.735ZM244.417 333.712V325.711H245.736V326.761H245.797C246.436 325.903 247.299 325.474 248.387 325.474C249.501 325.474 250.255 325.992 250.648 327.029C251.261 325.992 252.165 325.474 253.361 325.474C254.255 325.474 254.917 325.726 255.346 326.232C255.78 326.738 255.997 327.448 255.997 328.363V333.712H254.633V328.485C254.633 327.888 254.495 327.43 254.219 327.114C253.948 326.792 253.552 326.631 253.031 326.631C252.398 326.631 251.882 326.868 251.483 327.344C251.095 327.808 250.901 328.358 250.901 328.991V333.712H249.537V328.738C249.537 327.333 249.008 326.631 247.95 326.631C247.347 326.631 246.834 326.873 246.41 327.359C245.991 327.824 245.782 328.368 245.782 328.991V333.712H244.417ZM261.683 325.474C262.884 325.474 263.885 325.875 264.688 326.677C265.49 327.479 265.891 328.49 265.891 329.712C265.891 330.938 265.49 331.952 264.688 332.754C263.891 333.551 262.889 333.949 261.683 333.949C260.483 333.949 259.479 333.546 258.672 332.739C257.88 331.947 257.484 330.938 257.484 329.712C257.484 328.48 257.88 327.469 258.672 326.677C259.474 325.875 260.478 325.474 261.683 325.474ZM261.683 332.8C262.501 332.8 263.173 332.514 263.699 331.942C264.24 331.369 264.511 330.626 264.511 329.712C264.511 328.802 264.246 328.059 263.714 327.481C263.183 326.904 262.506 326.615 261.683 326.615C260.881 326.615 260.207 326.904 259.66 327.481C259.129 328.059 258.863 328.802 258.863 329.712C258.863 330.621 259.129 331.364 259.66 331.942C260.186 332.514 260.861 332.8 261.683 332.8ZM267.362 333.712V325.711H268.68V326.838H268.757C269.401 325.928 270.313 325.474 271.493 325.474C272.448 325.474 273.169 325.742 273.654 326.278C274.144 326.81 274.39 327.561 274.39 328.531V333.712H273.025V328.677C273.025 328.038 272.859 327.538 272.527 327.175C272.195 326.812 271.728 326.631 271.125 326.631C270.497 326.631 269.937 326.868 269.447 327.344C268.966 327.793 268.726 328.358 268.726 329.037V333.712H267.362ZM277.141 331.735V326.807H275.761V325.711H277.141V323.496H278.513V325.711H280.582V326.807H278.513V331.673C278.513 332.057 278.594 332.335 278.758 332.509C278.926 332.682 279.215 332.769 279.624 332.769C279.992 332.769 280.405 332.713 280.865 332.601V333.727C280.339 333.855 279.851 333.919 279.402 333.919C278.605 333.919 278.027 333.75 277.67 333.413C277.317 333.076 277.141 332.516 277.141 331.735ZM283.716 333.712H282.352V322.722H283.716V326.838H283.793C284.406 325.928 285.313 325.474 286.513 325.474C287.458 325.474 288.171 325.742 288.651 326.278C289.137 326.81 289.379 327.561 289.379 328.531V333.712H288.015V328.692C288.015 328.038 287.849 327.533 287.517 327.175C287.185 326.812 286.718 326.631 286.115 326.631C285.486 326.631 284.927 326.868 284.436 327.344C283.956 327.793 283.716 328.363 283.716 329.052V333.712Z" fill="#9FA3A9"/>
<path d="M137.169 326.751C136.913 327.006 136.913 327.42 137.169 327.676C137.424 327.931 137.838 327.931 138.093 327.676L141.555 324.214L141.555 333.099C141.555 333.46 141.848 333.753 142.209 333.753C142.57 333.753 142.863 333.46 142.863 333.099L142.863 324.214L146.324 327.676C146.579 327.931 146.993 327.931 147.249 327.676C147.504 327.42 147.504 327.006 147.249 326.751L142.671 322.173C142.416 321.918 142.002 321.918 141.746 322.173L137.169 326.751Z" fill="#03AD54"/>
</g>
<defs>
<filter id="filter0_d_548_49510" x="-96" y="0" width="624.458" height="580" filterUnits="userSpaceOnUse" color-interpolation-filters="sRGB">
<feFlood flood-opacity="0" result="BackgroundImageFix"/>
<feColorMatrix in="SourceAlpha" type="matrix" values="0 0 0 0 0 0 0 0 0 0 0 0 0 0 0 0 0 0 127 0" result="hardAlpha"/>
<feOffset dy="10"/>
<feGaussianBlur stdDeviation="100"/>
<feComposite in2="hardAlpha" operator="out"/>
<feColorMatrix type="matrix" values="0 0 0 0 0 0 0 0 0 0 0 0 0 0 0 0 0 0 0.3 0"/>
<feBlend mode="normal" in2="BackgroundImageFix" result="effect1_dropShadow_548_49510"/>
<feBlend mode="normal" in="SourceGraphic" in2="effect1_dropShadow_548_49510" result="shape"/>
</filter>
<clipPath id="clip0_548_49510">
<rect width="20.9266" height="20.9266" fill="white" transform="translate(134.361 224.922)"/>
</clipPath>
</defs>
</svg>
