<svg width="548" height="580" viewBox="0 0 548 580" fill="none" xmlns="http://www.w3.org/2000/svg">
<g filter="url(#filter0_d_548_49478)">
<rect x="161" y="159" width="284" height="231.266" rx="14.15" fill="white" shape-rendering="crispEdges"/>
<path d="M180.589 191.603H178.908V183.595H182.18C183.052 183.595 183.72 183.824 184.185 184.282C184.654 184.74 184.889 185.365 184.889 186.158C184.889 186.947 184.656 187.563 184.191 188.006C183.729 188.446 183.059 188.665 182.18 188.665H180.589V191.603ZM181.79 184.946H180.589V187.381H181.823C182.27 187.381 182.609 187.279 182.839 187.074C183.07 186.865 183.186 186.568 183.186 186.18C183.186 185.358 182.72 184.946 181.79 184.946ZM185.933 189.542V185.773H187.474V189.213C187.474 189.607 187.565 189.916 187.748 190.14C187.934 190.359 188.195 190.469 188.53 190.469C188.883 190.469 189.181 190.341 189.423 190.084C189.665 189.823 189.786 189.49 189.786 189.084V185.773H191.327V191.603H189.808V190.871H189.764C189.343 191.474 188.714 191.776 187.876 191.776C186.581 191.776 185.933 191.031 185.933 189.542ZM194.186 189.363V191.603H192.645V185.773H194.142V186.901H194.186C194.655 186.052 195.491 185.622 196.694 185.611V187.063C196.478 187.029 196.267 187.029 196.063 187.063C195.489 187.107 195.033 187.334 194.694 187.744C194.356 188.15 194.186 188.689 194.186 189.363ZM203.367 187.884H201.842C201.745 187.56 201.574 187.308 201.328 187.13C201.086 186.947 200.805 186.856 200.485 186.856C200.042 186.856 199.675 187.029 199.385 187.375C199.095 187.722 198.949 188.159 198.949 188.688C198.949 189.224 199.095 189.665 199.385 190.011C199.672 190.354 200.038 190.525 200.485 190.525C200.82 190.525 201.12 190.419 201.384 190.207C201.648 189.991 201.825 189.693 201.915 189.313H203.434C203.307 190.121 202.972 190.735 202.428 191.156C201.881 191.569 201.23 191.776 200.474 191.776C199.588 191.776 198.847 191.489 198.251 190.916C197.667 190.342 197.375 189.6 197.375 188.688C197.375 187.779 197.667 187.038 198.251 186.465C198.84 185.888 199.58 185.6 200.474 185.6C201.237 185.6 201.881 185.812 202.406 186.236C202.935 186.664 203.255 187.213 203.367 187.884ZM206.025 191.603H204.483V183.595H206.025V186.515H206.086C206.51 185.905 207.147 185.6 207.996 185.6C209.343 185.6 210.017 186.346 210.017 187.839V191.603H208.476V188.163C208.476 187.764 208.377 187.454 208.18 187.23C207.983 187.003 207.704 186.89 207.342 186.89C206.97 186.89 206.657 187.022 206.404 187.286C206.151 187.547 206.025 187.88 206.025 188.286V191.603ZM215.707 191.603V190.893H215.663C215.22 191.482 214.602 191.776 213.809 191.776C213.023 191.776 212.368 191.485 211.843 190.905C211.326 190.32 211.067 189.581 211.067 188.688C211.067 187.787 211.329 187.046 211.854 186.465C212.387 185.888 213.042 185.6 213.82 185.6C214.594 185.6 215.182 185.884 215.585 186.454H215.629V185.773H217.17V191.603H215.707ZM212.642 188.688C212.642 189.224 212.787 189.665 213.077 190.011C213.375 190.354 213.746 190.525 214.189 190.525C214.632 190.525 214.996 190.354 215.283 190.011C215.573 189.665 215.719 189.224 215.719 188.688C215.719 188.152 215.57 187.712 215.272 187.37C214.985 187.027 214.624 186.856 214.189 186.856C213.746 186.856 213.377 187.029 213.083 187.375C212.789 187.722 212.642 188.159 212.642 188.688ZM221.023 189.335L219.962 189.051C219.43 188.928 219.022 188.734 218.74 188.47C218.457 188.206 218.315 187.831 218.315 187.347C218.315 186.834 218.522 186.415 218.935 186.091C219.348 185.763 219.895 185.6 220.577 185.6C221.247 185.6 221.813 185.749 222.274 186.046C222.736 186.326 222.972 186.782 222.983 187.414H221.621C221.599 187.195 221.504 187.029 221.336 186.917C221.169 186.802 220.951 186.744 220.683 186.744C220.43 186.744 220.232 186.798 220.091 186.906C219.953 187.014 219.884 187.158 219.884 187.336C219.884 187.586 220.132 187.776 220.627 187.906L221.721 188.207C222.745 188.461 223.257 189.021 223.257 189.888C223.257 190.465 223.043 190.925 222.615 191.267C222.187 191.606 221.587 191.776 220.817 191.776C219.164 191.776 218.287 191.085 218.187 189.704H219.583C219.605 190.009 219.717 190.24 219.918 190.396C220.123 190.553 220.385 190.631 220.705 190.631C221.022 190.631 221.265 190.568 221.437 190.441C221.612 190.311 221.699 190.138 221.699 189.922C221.699 189.769 221.645 189.65 221.537 189.564C221.433 189.479 221.262 189.402 221.023 189.335ZM230.025 189.095H225.586C225.649 189.553 225.813 189.907 226.077 190.156C226.341 190.402 226.678 190.525 227.088 190.525C227.717 190.525 228.169 190.255 228.445 189.715H230.025C229.828 190.378 229.468 190.888 228.947 191.245C228.43 191.599 227.804 191.776 227.071 191.776C226.192 191.776 225.461 191.489 224.876 190.916C224.292 190.331 224 189.589 224 188.688C224 187.779 224.292 187.038 224.876 186.465C225.454 185.888 226.185 185.6 227.071 185.6C227.812 185.6 228.476 185.821 229.065 186.264C229.374 186.48 229.617 186.789 229.796 187.191C229.978 187.589 230.07 188.038 230.07 188.537C230.07 188.745 230.055 188.931 230.025 189.095ZM225.619 188.068H228.54C228.465 187.703 228.296 187.411 228.032 187.191C227.771 186.968 227.46 186.856 227.099 186.856C226.745 186.856 226.433 186.971 226.161 187.202C225.889 187.429 225.709 187.718 225.619 188.068ZM233.738 187.599C233.738 186.378 234.139 185.373 234.939 184.583C235.754 183.79 236.769 183.394 237.982 183.394C239.203 183.394 240.216 183.79 241.02 184.583C241.821 185.373 242.221 186.378 242.221 187.599C242.221 188.824 241.821 189.831 241.02 190.62C240.227 191.402 239.215 191.798 237.982 191.809C236.78 191.82 235.769 191.428 234.95 190.631C234.142 189.834 233.738 188.824 233.738 187.599ZM235.464 187.599C235.464 188.403 235.693 189.079 236.151 189.626C236.624 190.166 237.234 190.435 237.982 190.435C238.719 190.435 239.324 190.166 239.797 189.626C240.263 189.093 240.495 188.418 240.495 187.599C240.495 186.783 240.263 186.11 239.797 185.577C239.321 185.034 238.716 184.762 237.982 184.762C237.245 184.762 236.638 185.034 236.162 185.577C235.697 186.11 235.464 186.783 235.464 187.599ZM244.879 189.363V191.603H243.338V185.773H244.834V186.901H244.879C245.348 186.052 246.184 185.622 247.386 185.611V187.063C247.17 187.029 246.96 187.029 246.755 187.063C246.182 187.107 245.726 187.334 245.387 187.744C245.048 188.15 244.879 188.689 244.879 189.363ZM252.708 191.603V190.893H252.663C252.22 191.482 251.602 191.776 250.809 191.776C250.024 191.776 249.368 191.485 248.843 190.905C248.326 190.32 248.067 189.581 248.067 188.688C248.067 187.787 248.33 187.046 248.855 186.465C249.387 185.888 250.042 185.6 250.82 185.6C251.595 185.6 252.183 185.884 252.585 186.454H252.629V183.595H254.171V191.603H252.708ZM249.642 188.688C249.642 189.224 249.787 189.665 250.078 190.011C250.375 190.354 250.746 190.525 251.189 190.525C251.632 190.525 251.997 190.354 252.283 190.011C252.574 189.665 252.719 189.224 252.719 188.688C252.719 188.152 252.57 187.712 252.272 187.37C251.985 187.027 251.624 186.856 251.189 186.856C250.746 186.856 250.377 187.029 250.083 187.375C249.789 187.722 249.642 188.159 249.642 188.688ZM261.251 189.095H256.812C256.875 189.553 257.039 189.907 257.303 190.156C257.568 190.402 257.905 190.525 258.314 190.525C258.943 190.525 259.396 190.255 259.671 189.715H261.251C261.054 190.378 260.695 190.888 260.174 191.245C259.656 191.599 259.031 191.776 258.297 191.776C257.419 191.776 256.687 191.489 256.103 190.916C255.518 190.331 255.226 189.589 255.226 188.688C255.226 187.779 255.518 187.038 256.103 186.465C256.68 185.888 257.411 185.6 258.297 185.6C259.038 185.6 259.703 185.821 260.291 186.264C260.6 186.48 260.844 186.789 261.022 187.191C261.205 187.589 261.296 188.038 261.296 188.537C261.296 188.745 261.281 188.931 261.251 189.095ZM256.845 188.068H259.766C259.692 187.703 259.522 187.411 259.258 187.191C258.997 186.968 258.686 186.856 258.325 186.856C257.972 186.856 257.659 186.971 257.387 187.202C257.115 187.429 256.935 187.718 256.845 188.068ZM263.887 189.363V191.603H262.346V185.773H263.842V186.901H263.887C264.356 186.052 265.192 185.622 266.394 185.611V187.063C266.178 187.029 265.968 187.029 265.763 187.063C265.19 187.107 264.734 187.334 264.395 187.744C264.056 188.15 263.887 188.689 263.887 189.363ZM269.873 189.335L268.812 189.051C268.28 188.928 267.872 188.734 267.589 188.47C267.306 188.206 267.165 187.831 267.165 187.347C267.165 186.834 267.372 186.415 267.785 186.091C268.198 185.763 268.745 185.6 269.426 185.6C270.097 185.6 270.662 185.749 271.124 186.046C271.586 186.326 271.822 186.782 271.833 187.414H270.471C270.448 187.195 270.353 187.029 270.186 186.917C270.018 186.802 269.801 186.744 269.533 186.744C269.279 186.744 269.082 186.798 268.941 186.906C268.803 187.014 268.734 187.158 268.734 187.336C268.734 187.586 268.982 187.776 269.477 187.906L270.571 188.207C271.595 188.461 272.107 189.021 272.107 189.888C272.107 190.465 271.893 190.925 271.465 191.267C271.037 191.606 270.437 191.776 269.667 191.776C268.014 191.776 267.137 191.085 267.036 189.704H268.432C268.455 190.009 268.567 190.24 268.768 190.396C268.972 190.553 269.235 190.631 269.555 190.631C269.871 190.631 270.115 190.568 270.286 190.441C270.461 190.311 270.549 190.138 270.549 189.922C270.549 189.769 270.495 189.65 270.387 189.564C270.283 189.479 270.111 189.402 269.873 189.335Z" fill="black"/>
<rect x="283.94" y="175.836" width="73.7002" height="23.5078" rx="3.49441" fill="white" stroke="#E7E9ED" stroke-width="0.635347"/>
<path d="M341.201 189.496C341.596 189.496 341.916 189.176 341.916 188.782C341.916 188.387 341.596 188.067 341.201 188.067C340.806 188.067 340.486 188.387 340.486 188.782C340.486 189.176 340.806 189.496 341.201 189.496Z" fill="#949AB1"/>
<path d="M344.06 188.782C344.06 189.176 343.74 189.496 343.345 189.496C342.95 189.496 342.63 189.176 342.63 188.782C342.63 188.387 342.95 188.067 343.345 188.067C343.74 188.067 344.06 188.387 344.06 188.782Z" fill="#949AB1"/>
<path d="M345.489 189.496C345.884 189.496 346.204 189.176 346.204 188.782C346.204 188.387 345.884 188.067 345.489 188.067C345.095 188.067 344.775 188.387 344.775 188.782C344.775 189.176 345.095 189.496 345.489 189.496Z" fill="#949AB1"/>
<path fill-rule="evenodd" clip-rule="evenodd" d="M341.439 182.825C341.439 182.562 341.226 182.349 340.963 182.349C340.699 182.349 340.486 182.562 340.486 182.825V183.302H339.533C338.744 183.302 338.104 183.942 338.104 184.731V190.926C338.104 191.715 338.744 192.355 339.533 192.355H347.157C347.947 192.355 348.587 191.715 348.587 190.926V184.731C348.587 183.942 347.947 183.302 347.157 183.302H346.204V182.825C346.204 182.562 345.991 182.349 345.728 182.349C345.465 182.349 345.251 182.562 345.251 182.825V183.302H341.439V182.825ZM339.057 184.731C339.057 184.468 339.27 184.255 339.533 184.255H347.157C347.42 184.255 347.634 184.468 347.634 184.731V185.684H339.057V184.731ZM339.057 186.637H347.634V190.926C347.634 191.189 347.42 191.402 347.157 191.402H339.533C339.27 191.402 339.057 191.189 339.057 190.926V186.637Z" fill="#949AB1"/>
<path d="M293.921 190.143H293.005V184.804H296.307V185.582H293.921V187.153H295.935V187.901H293.921V190.143ZM297.885 188.642V190.143H297.033V186.256H297.848V187.101H297.878C298.203 186.493 298.777 186.178 299.601 186.156V186.963C299.577 186.958 299.521 186.956 299.434 186.956C298.982 186.956 298.611 187.101 298.321 187.391C298.03 187.674 297.885 188.091 297.885 188.642ZM304.143 188.199C304.143 188.795 303.948 189.288 303.559 189.677C303.172 190.064 302.68 190.258 302.085 190.258C301.491 190.258 301.001 190.064 300.614 189.677C300.224 189.288 300.03 188.795 300.03 188.199C300.03 187.606 300.224 187.115 300.614 186.725C301.004 186.335 301.494 186.141 302.085 186.141C302.678 186.141 303.169 186.335 303.559 186.725C303.948 187.115 304.143 187.606 304.143 188.199ZM300.89 188.199C300.89 188.601 301.001 188.931 301.225 189.19C301.448 189.438 301.735 189.562 302.085 189.562C302.437 189.562 302.725 189.438 302.948 189.19C303.177 188.934 303.291 188.604 303.291 188.199C303.291 187.8 303.177 187.472 302.948 187.217C302.727 186.961 302.439 186.833 302.085 186.833C301.74 186.833 301.453 186.961 301.225 187.217C301.001 187.475 300.89 187.802 300.89 188.199ZM304.836 190.143V186.256H305.673V186.766H305.71C306.013 186.349 306.42 186.141 306.932 186.141C307.19 186.141 307.413 186.203 307.602 186.327C307.79 186.451 307.923 186.622 308 186.841H308.022C308.32 186.374 308.752 186.141 309.318 186.141C310.162 186.141 310.584 186.611 310.584 187.552V190.143H309.731V187.671C309.731 187.405 309.671 187.202 309.552 187.06C309.436 186.919 309.263 186.848 309.035 186.848C308.769 186.848 308.555 186.945 308.391 187.138C308.227 187.332 308.145 187.571 308.145 187.857V190.143H307.289V187.764C307.289 187.153 307.058 186.848 306.596 186.848C306.338 186.848 306.122 186.95 305.949 187.153C305.775 187.349 305.688 187.586 305.688 187.864V190.143H304.836ZM315.706 190.143H313.413V184.804H315.706C316.488 184.804 317.113 185.046 317.582 185.53C318.046 186.009 318.278 186.659 318.278 187.481C318.278 188.305 318.046 188.956 317.582 189.435C317.126 189.907 316.5 190.143 315.706 190.143ZM314.329 185.582V189.365H315.516C316.104 189.365 316.556 189.201 316.871 188.873C317.189 188.546 317.348 188.081 317.348 187.481C317.348 186.873 317.189 186.405 316.871 186.077C316.556 185.747 316.104 185.582 315.516 185.582H314.329ZM322.031 190.143V189.61H321.994C321.691 190.042 321.25 190.258 320.672 190.258C320.144 190.258 319.697 190.064 319.332 189.677C318.972 189.288 318.792 188.795 318.792 188.199C318.792 187.606 318.972 187.115 319.332 186.725C319.699 186.335 320.146 186.141 320.672 186.141C321.236 186.141 321.662 186.354 321.953 186.781H321.994V186.256H322.846V190.143H322.031ZM320.847 189.562C321.19 189.562 321.475 189.435 321.703 189.182C321.932 188.919 322.046 188.591 322.046 188.199C322.046 187.805 321.932 187.48 321.703 187.224C321.475 186.963 321.19 186.833 320.847 186.833C320.512 186.833 320.228 186.963 319.995 187.224C319.766 187.48 319.652 187.805 319.652 188.199C319.652 188.591 319.766 188.919 319.995 189.182C320.23 189.435 320.515 189.562 320.847 189.562ZM324.127 189.104V186.911H323.464V186.256H324.127V185.165H324.983V186.256H325.958V186.911H324.983V189.059C324.983 189.235 325.022 189.362 325.098 189.439C325.178 189.516 325.312 189.554 325.501 189.554C325.707 189.554 325.9 189.53 326.081 189.48V190.157C325.823 190.215 325.569 190.243 325.318 190.243C324.894 190.243 324.588 190.156 324.402 189.983C324.219 189.809 324.127 189.516 324.127 189.104ZM330.545 188.426H327.418C327.46 188.771 327.59 189.047 327.809 189.253C328.03 189.459 328.295 189.562 328.605 189.562C328.858 189.562 329.081 189.502 329.272 189.383C329.463 189.262 329.602 189.095 329.689 188.884H330.537C330.413 189.316 330.175 189.654 329.823 189.897C329.473 190.138 329.064 190.258 328.598 190.258C328.02 190.258 327.532 190.067 327.135 189.685C326.745 189.295 326.55 188.8 326.55 188.199C326.55 187.601 326.745 187.107 327.135 186.718C327.519 186.333 328.002 186.141 328.583 186.141C328.774 186.141 328.961 186.164 329.145 186.211C329.329 186.256 329.507 186.329 329.681 186.431C329.855 186.533 330.008 186.657 330.139 186.803C330.271 186.947 330.376 187.128 330.455 187.347C330.535 187.565 330.575 187.806 330.575 188.069C330.575 188.24 330.565 188.359 330.545 188.426ZM328.583 186.833C328.312 186.833 328.073 186.921 327.864 187.097C327.658 187.271 327.517 187.508 327.44 187.808H329.744C329.695 187.508 329.562 187.271 329.346 187.097C329.133 186.921 328.878 186.833 328.583 186.833Z" fill="#949AB1"/>
<rect x="364.629" y="175.836" width="63.5347" height="23.5078" rx="3.49441" fill="white" stroke="#E7E9ED" stroke-width="0.635347"/>
<g clip-path="url(#clip0_548_49478)">
<path d="M411.724 189.496C412.119 189.496 412.439 189.176 412.439 188.782C412.439 188.387 412.119 188.067 411.724 188.067C411.329 188.067 411.009 188.387 411.009 188.782C411.009 189.176 411.329 189.496 411.724 189.496Z" fill="#949AB1"/>
<path d="M414.583 188.782C414.583 189.176 414.263 189.496 413.868 189.496C413.473 189.496 413.153 189.176 413.153 188.782C413.153 188.387 413.473 188.067 413.868 188.067C414.263 188.067 414.583 188.387 414.583 188.782Z" fill="#949AB1"/>
<path d="M416.012 189.496C416.407 189.496 416.727 189.176 416.727 188.782C416.727 188.387 416.407 188.067 416.012 188.067C415.618 188.067 415.298 188.387 415.298 188.782C415.298 189.176 415.618 189.496 416.012 189.496Z" fill="#949AB1"/>
<path fill-rule="evenodd" clip-rule="evenodd" d="M411.962 182.825C411.962 182.562 411.749 182.349 411.486 182.349C411.222 182.349 411.009 182.562 411.009 182.825V183.302H410.056C409.266 183.302 408.626 183.942 408.626 184.731V190.926C408.626 191.715 409.266 192.355 410.056 192.355H417.68C418.47 192.355 419.11 191.715 419.11 190.926V184.731C419.11 183.942 418.47 183.302 417.68 183.302H416.727V182.825C416.727 182.562 416.514 182.349 416.251 182.349C415.987 182.349 415.774 182.562 415.774 182.825V183.302H411.962V182.825ZM409.579 184.731C409.579 184.468 409.793 184.255 410.056 184.255H417.68C417.943 184.255 418.157 184.468 418.157 184.731V185.684H409.579V184.731ZM409.579 186.637H418.157V190.926C418.157 191.189 417.943 191.402 417.68 191.402H410.056C409.793 191.402 409.579 191.189 409.579 190.926V186.637Z" fill="#949AB1"/>
</g>
<path d="M373.314 186.248V185.44H377.483V186.248H375.852V190.778H374.937V186.248H373.314ZM381.34 188.835C381.34 189.431 381.145 189.923 380.755 190.313C380.368 190.7 379.877 190.894 379.281 190.894C378.688 190.894 378.198 190.7 377.811 190.313C377.421 189.923 377.226 189.431 377.226 188.835C377.226 188.242 377.421 187.75 377.811 187.361C378.2 186.971 378.69 186.776 379.281 186.776C379.874 186.776 380.366 186.971 380.755 187.361C381.145 187.75 381.34 188.242 381.34 188.835ZM378.086 188.835C378.086 189.237 378.198 189.567 378.421 189.825C378.644 190.073 378.931 190.198 379.281 190.198C379.633 190.198 379.921 190.073 380.145 189.825C380.373 189.57 380.487 189.24 380.487 188.835C380.487 188.435 380.373 188.108 380.145 187.852C379.924 187.597 379.636 187.469 379.281 187.469C378.936 187.469 378.649 187.597 378.421 187.852C378.198 188.11 378.086 188.438 378.086 188.835ZM386.254 190.778H383.961V185.44H386.254C387.036 185.44 387.661 185.682 388.13 186.166C388.594 186.645 388.826 187.295 388.826 188.117C388.826 188.941 388.594 189.592 388.13 190.071C387.673 190.543 387.048 190.778 386.254 190.778ZM384.876 186.218V190H386.064C386.652 190 387.104 189.836 387.419 189.509C387.737 189.181 387.895 188.717 387.895 188.117C387.895 187.509 387.737 187.041 387.419 186.713C387.104 186.383 386.652 186.218 386.064 186.218H384.876ZM392.579 190.778V190.246H392.541C392.239 190.678 391.798 190.894 391.22 190.894C390.691 190.894 390.245 190.7 389.88 190.313C389.52 189.923 389.34 189.431 389.34 188.835C389.34 188.242 389.52 187.75 389.88 187.361C390.247 186.971 390.694 186.776 391.22 186.776C391.783 186.776 392.21 186.99 392.501 187.417H392.541V186.892H393.394V190.778H392.579ZM391.395 190.198C391.737 190.198 392.023 190.071 392.251 189.818C392.479 189.555 392.594 189.227 392.594 188.835C392.594 188.44 392.479 188.115 392.251 187.86C392.023 187.599 391.737 187.469 391.395 187.469C391.06 187.469 390.776 187.599 390.542 187.86C390.314 188.115 390.2 188.44 390.2 188.835C390.2 189.227 390.314 189.555 390.542 189.818C390.778 190.071 391.062 190.198 391.395 190.198ZM394.675 189.74V187.547H394.012V186.892H394.675V185.801H395.531V186.892H396.506V187.547H395.531V189.695C395.531 189.871 395.569 189.998 395.646 190.075C395.726 190.152 395.86 190.19 396.048 190.19C396.254 190.19 396.448 190.165 396.629 190.116V190.793C396.371 190.85 396.117 190.879 395.866 190.879C395.441 190.879 395.136 190.792 394.95 190.618C394.766 190.445 394.675 190.152 394.675 189.74ZM401.093 189.062H397.965C398.008 189.407 398.138 189.683 398.356 189.889C398.577 190.095 398.843 190.198 399.153 190.198C399.406 190.198 399.628 190.138 399.819 190.019C400.01 189.897 400.149 189.731 400.236 189.52H401.085C400.961 189.952 400.723 190.289 400.37 190.533C400.02 190.773 399.612 190.894 399.146 190.894C398.567 190.894 398.08 190.703 397.683 190.32C397.293 189.931 397.098 189.436 397.098 188.835C397.098 188.237 397.293 187.743 397.683 187.353C398.067 186.969 398.55 186.776 399.131 186.776C399.322 186.776 399.509 186.8 399.693 186.847C399.876 186.892 400.055 186.965 400.229 187.067C400.403 187.169 400.555 187.293 400.687 187.439C400.818 187.583 400.924 187.764 401.003 187.983C401.083 188.201 401.122 188.442 401.122 188.705C401.122 188.876 401.112 188.995 401.093 189.062ZM399.131 187.469C398.86 187.469 398.621 187.557 398.412 187.733C398.206 187.907 398.065 188.144 397.988 188.444H400.292C400.243 188.144 400.11 187.907 399.894 187.733C399.68 187.557 399.426 187.469 399.131 187.469Z" fill="#949AB1"/>
<path d="M374.455 280.531H373.639C373.511 280.056 373.258 279.678 372.879 279.398C372.499 279.114 372.026 278.972 371.459 278.972C370.793 278.972 370.229 279.212 369.769 279.693C369.306 280.179 369.074 280.796 369.074 281.543C369.074 282.293 369.303 282.913 369.76 283.402C370.212 283.877 370.778 284.114 371.459 284.114C372.049 284.114 372.55 283.961 372.961 283.654C373.372 283.344 373.637 282.92 373.756 282.381H374.555C374.431 283.152 374.083 283.749 373.513 284.175C372.948 284.604 372.261 284.818 371.45 284.818C370.57 284.818 369.814 284.515 369.183 283.91C368.549 283.293 368.232 282.504 368.232 281.543C368.229 281.06 368.316 280.608 368.492 280.188C368.672 279.768 368.911 279.419 369.209 279.141C369.507 278.861 369.85 278.643 370.238 278.49C370.629 278.334 371.033 278.261 371.45 278.273C372.235 278.273 372.893 278.477 373.426 278.885C373.959 279.276 374.302 279.825 374.455 280.531ZM377.578 279.988C378.259 279.988 378.826 280.216 379.281 280.67C379.735 281.125 379.963 281.698 379.963 282.39C379.963 283.085 379.735 283.66 379.281 284.114C378.829 284.566 378.261 284.792 377.578 284.792C376.898 284.792 376.329 284.563 375.871 284.106C375.422 283.657 375.198 283.085 375.198 282.39C375.198 281.692 375.422 281.119 375.871 280.67C376.326 280.216 376.895 279.988 377.578 279.988ZM377.578 284.14C378.041 284.14 378.422 283.978 378.72 283.654C379.027 283.33 379.181 282.908 379.181 282.39C379.181 281.875 379.03 281.453 378.729 281.126C378.428 280.799 378.044 280.635 377.578 280.635C377.124 280.635 376.741 280.799 376.431 281.126C376.13 281.453 375.98 281.875 375.98 282.39C375.98 282.905 376.13 283.327 376.431 283.654C376.73 283.978 377.112 284.14 377.578 284.14ZM380.796 284.657V280.123H381.543V280.718H381.578C381.94 280.232 382.429 279.988 383.046 279.988C383.677 279.988 384.104 280.282 384.327 280.87C384.675 280.282 385.187 279.988 385.865 279.988C386.372 279.988 386.747 280.132 386.99 280.418C387.236 280.705 387.359 281.107 387.359 281.626V284.657H386.586V281.695C386.586 281.356 386.508 281.097 386.351 280.918C386.198 280.735 385.973 280.644 385.678 280.644C385.319 280.644 385.027 280.779 384.801 281.048C384.581 281.312 384.471 281.623 384.471 281.982V284.657H383.698V281.838C383.698 281.042 383.398 280.644 382.799 280.644C382.457 280.644 382.166 280.782 381.926 281.057C381.688 281.32 381.569 281.629 381.569 281.982V284.657H380.796ZM389.24 286.39H388.466V280.123H389.205V280.814H389.24C389.648 280.263 390.205 279.988 390.912 279.988C391.537 279.988 392.068 280.216 392.506 280.67C392.943 281.125 393.161 281.698 393.161 282.39C393.161 283.085 392.943 283.66 392.506 284.114C392.071 284.566 391.54 284.792 390.912 284.792C390.197 284.792 389.651 284.518 389.274 283.971H389.24V286.39ZM392.38 282.39C392.38 281.878 392.226 281.459 391.919 281.135C391.604 280.802 391.223 280.635 390.777 280.635C390.331 280.635 389.955 280.802 389.648 281.135C389.347 281.462 389.196 281.88 389.196 282.39C389.196 282.905 389.347 283.327 389.648 283.654C389.946 283.978 390.322 284.14 390.777 284.14C391.232 284.14 391.612 283.978 391.919 283.654C392.226 283.33 392.38 282.908 392.38 282.39ZM394.773 278.429V284.657H394V278.429H394.773ZM400.254 282.638H396.384C396.442 283.104 396.619 283.472 396.914 283.741C397.212 284.007 397.571 284.14 397.991 284.14C398.324 284.14 398.618 284.058 398.873 283.893C399.128 283.725 399.311 283.505 399.424 283.233H400.215C400.05 283.716 399.769 284.097 399.372 284.375C398.976 284.653 398.512 284.792 397.982 284.792C397.308 284.792 396.745 284.566 396.293 284.114C395.838 283.66 395.611 283.085 395.611 282.39C395.611 281.698 395.838 281.125 396.293 280.67C396.747 280.216 397.311 279.988 397.982 279.988C398.59 279.988 399.125 280.184 399.585 280.575C400.054 280.954 400.289 281.5 400.289 282.212C400.289 282.406 400.277 282.548 400.254 282.638ZM397.982 280.635C397.597 280.635 397.257 280.76 396.962 281.009C396.669 281.258 396.485 281.585 396.41 281.991H399.55C399.492 281.574 399.317 281.243 399.025 281C398.732 280.757 398.385 280.635 397.982 280.635ZM401.574 283.537V280.744H400.792V280.123H401.574V278.868H402.352V280.123H403.524V280.744H402.352V283.502C402.352 283.719 402.398 283.877 402.491 283.975C402.586 284.074 402.75 284.123 402.981 284.123C403.19 284.123 403.424 284.091 403.685 284.027V284.666C403.387 284.738 403.11 284.774 402.855 284.774C402.404 284.774 402.077 284.679 401.874 284.488C401.674 284.297 401.574 283.98 401.574 283.537ZM408.906 282.638H405.036C405.094 283.104 405.27 283.472 405.566 283.741C405.864 284.007 406.223 284.14 406.643 284.14C406.976 284.14 407.27 284.058 407.524 283.893C407.779 283.725 407.963 283.505 408.076 283.233H408.866C408.701 283.716 408.421 284.097 408.024 284.375C407.627 284.653 407.164 284.792 406.634 284.792C405.959 284.792 405.396 284.566 404.945 284.114C404.49 283.66 404.263 283.085 404.263 282.39C404.263 281.698 404.49 281.125 404.945 280.67C405.399 280.216 405.962 279.988 406.634 279.988C407.242 279.988 407.776 280.184 408.237 280.575C408.706 280.954 408.94 281.5 408.94 282.212C408.94 282.406 408.929 282.548 408.906 282.638ZM406.634 280.635C406.249 280.635 405.909 280.76 405.613 281.009C405.321 281.258 405.137 281.585 405.062 281.991H408.202C408.144 281.574 407.969 281.243 407.676 281C407.384 280.757 407.037 280.635 406.634 280.635ZM413.466 284.657V283.971H413.431C413.029 284.518 412.471 284.792 411.759 284.792C411.136 284.792 410.605 284.563 410.165 284.106C409.728 283.651 409.509 283.079 409.509 282.39C409.509 281.698 409.728 281.125 410.165 280.67C410.602 280.216 411.134 279.988 411.759 279.988C412.477 279.988 413.023 280.26 413.396 280.805H413.431V278.429H414.204V284.657H413.466ZM410.751 281.126C410.444 281.451 410.291 281.872 410.291 282.39C410.291 282.908 410.444 283.33 410.751 283.654C411.058 283.978 411.438 284.14 411.889 284.14C412.344 284.14 412.72 283.978 413.019 283.654C413.323 283.324 413.475 282.903 413.475 282.39C413.475 281.883 413.323 281.465 413.019 281.135C412.712 280.802 412.335 280.635 411.889 280.635C411.441 280.635 411.061 280.799 410.751 281.126Z" fill="black"/>
<circle cx="358.38" cy="282.375" r="3.17673" fill="#235D5E"/>
<path d="M369.361 302.572V308.8H368.531V302.572H369.361ZM370.538 308.8V304.266H371.285V304.904H371.328C371.693 304.389 372.21 304.131 372.879 304.131C373.42 304.131 373.829 304.283 374.104 304.587C374.382 304.888 374.521 305.314 374.521 305.864V308.8H373.748V305.946C373.748 305.584 373.654 305.301 373.465 305.095C373.277 304.889 373.012 304.787 372.671 304.787C372.314 304.787 371.997 304.921 371.719 305.191C371.447 305.445 371.311 305.765 371.311 306.15V308.8H370.538ZM378.751 308.8H377.921V302.572H380.323C380.949 302.572 381.432 302.747 381.774 303.097C382.118 303.442 382.291 303.886 382.291 304.431C382.291 304.981 382.118 305.432 381.774 305.786C381.432 306.136 380.949 306.311 380.323 306.311H378.751V308.8ZM380.219 303.284H378.751V305.599H380.219C380.601 305.599 380.902 305.498 381.122 305.295C381.342 305.089 381.452 304.804 381.452 304.439C381.452 304.074 381.347 303.791 381.135 303.588C380.924 303.385 380.619 303.284 380.219 303.284ZM383.898 307.028V308.8H383.125V304.266H383.863V305.347H383.898C384.28 304.583 384.968 304.183 385.961 304.148V304.904C385.364 304.904 384.869 305.079 384.475 305.429C384.09 305.78 383.898 306.313 383.898 307.028ZM388.827 304.131C389.508 304.131 390.075 304.358 390.53 304.813C390.984 305.267 391.212 305.841 391.212 306.533C391.212 307.228 390.984 307.802 390.53 308.257C390.078 308.709 389.511 308.934 388.827 308.934C388.147 308.934 387.578 308.706 387.12 308.248C386.672 307.799 386.447 307.228 386.447 306.533C386.447 305.835 386.672 305.262 387.12 304.813C387.575 304.358 388.144 304.131 388.827 304.131ZM388.827 308.283C389.29 308.283 389.671 308.121 389.969 307.797C390.276 307.472 390.43 307.051 390.43 306.533C390.43 306.017 390.279 305.596 389.978 305.269C389.677 304.942 389.293 304.778 388.827 304.778C388.373 304.778 387.99 304.942 387.681 305.269C387.379 305.596 387.229 306.017 387.229 306.533C387.229 307.048 387.379 307.469 387.681 307.797C387.979 308.121 388.361 308.283 388.827 308.283ZM396.332 305.777H395.568C395.464 305.473 395.281 305.231 395.021 305.052C394.763 304.869 394.479 304.778 394.169 304.778C393.721 304.778 393.338 304.944 393.023 305.277C392.71 305.608 392.554 306.026 392.554 306.533C392.554 307.045 392.71 307.466 393.023 307.797C393.33 308.121 393.712 308.283 394.169 308.283C394.502 308.283 394.805 308.18 395.077 307.975C395.352 307.769 395.539 307.49 395.637 307.136H396.402C396.338 307.44 396.229 307.713 396.076 307.953C395.925 308.19 395.747 308.38 395.542 308.522C395.339 308.664 395.12 308.769 394.886 308.839C394.654 308.908 394.415 308.94 394.169 308.934C393.492 308.934 392.923 308.709 392.462 308.257C392.008 307.802 391.781 307.228 391.781 306.533C391.781 305.841 392.008 305.267 392.462 304.813C392.926 304.358 393.495 304.131 394.169 304.131C394.691 304.131 395.151 304.279 395.55 304.574C395.953 304.866 396.214 305.267 396.332 305.777ZM401.67 306.78H397.8C397.858 307.246 398.035 307.614 398.33 307.883C398.628 308.15 398.987 308.283 399.407 308.283C399.74 308.283 400.034 308.2 400.289 308.035C400.544 307.867 400.728 307.647 400.84 307.375H401.631C401.466 307.859 401.185 308.24 400.788 308.517C400.392 308.795 399.928 308.934 399.399 308.934C398.724 308.934 398.161 308.709 397.709 308.257C397.254 307.802 397.027 307.228 397.027 306.533C397.027 305.841 397.254 305.267 397.709 304.813C398.164 304.358 398.727 304.131 399.399 304.131C400.007 304.131 400.541 304.326 401.001 304.717C401.47 305.097 401.705 305.642 401.705 306.355C401.705 306.549 401.693 306.69 401.67 306.78ZM399.399 304.778C399.013 304.778 398.673 304.903 398.378 305.152C398.085 305.401 397.902 305.728 397.826 306.133H400.966C400.909 305.716 400.733 305.386 400.441 305.143C400.148 304.9 399.801 304.778 399.399 304.778ZM404.432 306.85L403.572 306.628C403.19 306.538 402.898 306.399 402.695 306.211C402.495 306.023 402.395 305.762 402.395 305.429C402.395 305.062 402.544 304.753 402.843 304.504C403.141 304.255 403.546 304.131 404.059 304.131C404.525 304.131 404.926 304.241 405.262 304.461C405.601 304.684 405.774 305.018 405.783 305.464H405.058C405.046 305.233 404.948 305.059 404.762 304.943C404.58 304.827 404.351 304.769 404.076 304.769C403.804 304.769 403.584 304.83 403.416 304.952C403.251 305.07 403.168 305.227 403.168 305.421C403.168 305.716 403.383 305.914 403.811 306.016L404.567 306.211C404.964 306.307 405.284 306.431 405.527 306.585C405.837 306.77 405.992 307.084 405.992 307.527C405.992 307.944 405.829 308.283 405.505 308.544C405.181 308.804 404.744 308.934 404.193 308.934C403.675 308.934 403.236 308.81 402.877 308.561C402.518 308.303 402.326 307.899 402.3 307.349H403.047C403.05 307.662 403.154 307.898 403.36 308.057C403.568 308.213 403.84 308.292 404.176 308.292C404.503 308.292 404.758 308.224 404.94 308.088C405.123 307.949 405.214 307.768 405.214 307.545C405.214 307.362 405.15 307.219 405.023 307.115C404.898 307.01 404.702 306.922 404.432 306.85ZM408.749 306.85L407.889 306.628C407.507 306.538 407.215 306.399 407.012 306.211C406.812 306.023 406.712 305.762 406.712 305.429C406.712 305.062 406.862 304.753 407.16 304.504C407.458 304.255 407.863 304.131 408.376 304.131C408.842 304.131 409.243 304.241 409.579 304.461C409.918 304.684 410.091 305.018 410.1 305.464H409.375C409.363 305.233 409.265 305.059 409.08 304.943C408.897 304.827 408.668 304.769 408.393 304.769C408.121 304.769 407.901 304.83 407.733 304.952C407.568 305.07 407.486 305.227 407.486 305.421C407.486 305.716 407.7 305.914 408.128 306.016L408.884 306.211C409.281 306.307 409.601 306.431 409.844 306.585C410.154 306.77 410.309 307.084 410.309 307.527C410.309 307.944 410.146 308.283 409.822 308.544C409.498 308.804 409.061 308.934 408.511 308.934C407.992 308.934 407.554 308.81 407.195 308.561C406.836 308.303 406.643 307.899 406.617 307.349H407.364C407.367 307.662 407.471 307.898 407.677 308.057C407.885 308.213 408.157 308.292 408.493 308.292C408.82 308.292 409.075 308.224 409.258 308.088C409.44 307.949 409.531 307.768 409.531 307.545C409.531 307.362 409.468 307.219 409.34 307.115C409.216 307.01 409.019 306.922 408.749 306.85ZM411.946 304.266V308.8H411.173V304.266H411.946ZM411.555 303.545C411.413 303.545 411.295 303.497 411.199 303.401C411.103 303.306 411.056 303.187 411.056 303.045C411.056 302.903 411.103 302.784 411.199 302.689C411.295 302.593 411.413 302.546 411.555 302.546C411.703 302.546 411.824 302.593 411.92 302.689C412.016 302.782 412.063 302.9 412.063 303.045C412.063 303.19 412.016 303.31 411.92 303.406C411.824 303.498 411.703 303.545 411.555 303.545ZM413.049 308.8V304.266H413.796V304.904H413.84C414.204 304.389 414.721 304.131 415.39 304.131C415.932 304.131 416.34 304.283 416.615 304.587C416.893 304.888 417.032 305.314 417.032 305.864V308.8H416.259V305.946C416.259 305.584 416.165 305.301 415.976 305.095C415.788 304.889 415.523 304.787 415.182 304.787C414.826 304.787 414.508 304.921 414.231 305.191C413.958 305.445 413.822 305.765 413.822 306.15V308.8H413.049ZM421.696 308.552V307.944H421.653C421.303 308.457 420.76 308.713 420.024 308.713C419.425 308.713 418.915 308.49 418.496 308.044C418.081 307.604 417.874 307.064 417.874 306.424C417.874 305.79 418.076 305.25 418.478 304.804C418.884 304.355 419.402 304.131 420.033 304.131C420.748 304.131 421.297 304.394 421.679 304.921H421.714V304.266H422.47V308.535C422.47 309.178 422.277 309.68 421.892 310.042C421.51 310.407 420.98 310.589 420.302 310.589C419.715 310.589 419.225 310.459 418.834 310.198C418.446 309.941 418.209 309.57 418.122 309.086H418.904C418.962 309.364 419.114 309.577 419.36 309.725C419.606 309.873 419.92 309.946 420.302 309.946C420.74 309.946 421.081 309.826 421.327 309.586C421.573 309.348 421.696 309.004 421.696 308.552ZM419.091 305.251C418.807 305.561 418.665 305.952 418.665 306.424C418.665 306.902 418.81 307.294 419.099 307.601C419.395 307.914 419.765 308.07 420.211 308.07C420.657 308.07 421.025 307.917 421.314 307.61C421.613 307.294 421.762 306.899 421.762 306.424C421.762 305.952 421.615 305.561 421.323 305.251C421.033 304.936 420.663 304.778 420.211 304.778C419.762 304.778 419.389 304.936 419.091 305.251Z" fill="black"/>
<circle cx="358.38" cy="306.519" r="3.17673" fill="#1CB565"/>
<path d="M371.137 332.943H368.531V326.715H371.137C372.049 326.715 372.776 326.995 373.317 327.553C373.859 328.112 374.13 328.871 374.13 329.829C374.13 330.788 373.859 331.546 373.317 332.105C372.776 332.664 372.049 332.943 371.137 332.943ZM369.361 327.428V332.231H371.007C371.728 332.231 372.287 332.017 372.683 331.588C373.083 331.16 373.283 330.573 373.283 329.829C373.283 329.085 373.083 328.499 372.683 328.07C372.287 327.642 371.728 327.428 371.007 327.428H369.361ZM379.381 330.924H375.511C375.569 331.39 375.745 331.758 376.041 332.027C376.339 332.293 376.698 332.427 377.118 332.427C377.451 332.427 377.745 332.344 377.999 332.179C378.254 332.011 378.438 331.791 378.551 331.519H379.341C379.176 332.002 378.896 332.383 378.499 332.661C378.102 332.939 377.639 333.078 377.109 333.078C376.434 333.078 375.871 332.852 375.42 332.4C374.965 331.946 374.738 331.371 374.738 330.676C374.738 329.984 374.965 329.411 375.42 328.956C375.874 328.502 376.437 328.274 377.109 328.274C377.717 328.274 378.251 328.47 378.712 328.861C379.181 329.24 379.415 329.786 379.415 330.498C379.415 330.692 379.404 330.834 379.381 330.924ZM377.109 328.922C376.724 328.922 376.384 329.046 376.088 329.295C375.796 329.544 375.612 329.871 375.537 330.277H378.677C378.619 329.86 378.444 329.53 378.151 329.286C377.859 329.043 377.512 328.922 377.109 328.922ZM384.536 329.92H383.771C383.667 329.616 383.485 329.375 383.224 329.195C382.967 329.013 382.683 328.922 382.373 328.922C381.924 328.922 381.542 329.088 381.226 329.421C380.914 329.751 380.757 330.17 380.757 330.676C380.757 331.189 380.914 331.61 381.226 331.94C381.533 332.264 381.915 332.427 382.373 332.427C382.706 332.427 383.009 332.324 383.281 332.118C383.556 331.913 383.743 331.633 383.841 331.28H384.605C384.542 331.584 384.433 331.856 384.28 332.096C384.129 332.334 383.951 332.524 383.745 332.665C383.543 332.807 383.324 332.913 383.09 332.982C382.858 333.052 382.619 333.084 382.373 333.078C381.695 333.078 381.126 332.852 380.666 332.4C380.212 331.946 379.984 331.371 379.984 330.676C379.984 329.984 380.212 329.411 380.666 328.956C381.129 328.502 381.698 328.274 382.373 328.274C382.894 328.274 383.355 328.422 383.754 328.717C384.157 329.01 384.417 329.411 384.536 329.92ZM386.269 326.715V332.943H385.496V326.715H386.269ZM388.145 328.409V332.943H387.372V328.409H388.145ZM387.754 327.688C387.612 327.688 387.494 327.64 387.398 327.545C387.303 327.449 387.255 327.331 387.255 327.189C387.255 327.047 387.303 326.928 387.398 326.832C387.494 326.737 387.612 326.689 387.754 326.689C387.902 326.689 388.023 326.737 388.119 326.832C388.215 326.925 388.262 327.044 388.262 327.189C388.262 327.333 388.215 327.454 388.119 327.549C388.023 327.642 387.902 327.688 387.754 327.688ZM389.248 332.943V328.409H389.995V329.048H390.039C390.404 328.532 390.92 328.274 391.589 328.274C392.131 328.274 392.539 328.426 392.814 328.73C393.092 329.032 393.231 329.457 393.231 330.007V332.943H392.458V330.09C392.458 329.728 392.364 329.444 392.176 329.239C391.987 329.033 391.722 328.93 391.381 328.93C391.025 328.93 390.708 329.065 390.43 329.334C390.157 329.589 390.021 329.909 390.021 330.294V332.943H389.248ZM398.716 330.924H394.847C394.905 331.39 395.081 331.758 395.376 332.027C395.675 332.293 396.034 332.427 396.454 332.427C396.787 332.427 397.08 332.344 397.335 332.179C397.59 332.011 397.774 331.791 397.887 331.519H398.677C398.512 332.002 398.231 332.383 397.835 332.661C397.438 332.939 396.975 333.078 396.445 333.078C395.77 333.078 395.207 332.852 394.755 332.4C394.301 331.946 394.074 331.371 394.074 330.676C394.074 329.984 394.301 329.411 394.755 328.956C395.21 328.502 395.773 328.274 396.445 328.274C397.053 328.274 397.587 328.47 398.048 328.861C398.517 329.24 398.751 329.786 398.751 330.498C398.751 330.692 398.74 330.834 398.716 330.924ZM396.445 328.922C396.06 328.922 395.72 329.046 395.424 329.295C395.132 329.544 394.948 329.871 394.873 330.277H398.013C397.955 329.86 397.78 329.53 397.487 329.286C397.195 329.043 396.847 328.922 396.445 328.922ZM403.277 332.943V332.257H403.242C402.84 332.804 402.282 333.078 401.57 333.078C400.947 333.078 400.416 332.849 399.976 332.392C399.539 331.937 399.32 331.365 399.32 330.676C399.32 329.984 399.539 329.411 399.976 328.956C400.413 328.502 400.944 328.274 401.57 328.274C402.288 328.274 402.834 328.547 403.207 329.091H403.242V326.715H404.015V332.943H403.277ZM400.562 329.412C400.255 329.737 400.102 330.158 400.102 330.676C400.102 331.195 400.255 331.616 400.562 331.94C400.869 332.264 401.248 332.427 401.7 332.427C402.155 332.427 402.531 332.264 402.829 331.94C403.133 331.61 403.285 331.189 403.285 330.676C403.285 330.17 403.133 329.751 402.829 329.421C402.522 329.088 402.146 328.922 401.7 328.922C401.251 328.922 400.872 329.085 400.562 329.412Z" fill="black"/>
<circle cx="358.38" cy="330.662" r="3.17673" fill="#F3CA60"/>
<path d="M298.748 305.533C298.748 330.046 278.877 349.918 254.363 349.918C229.85 349.918 209.979 330.046 209.979 305.533C209.979 281.02 229.85 261.148 254.363 261.148C278.877 261.148 298.748 281.02 298.748 305.533ZM215.27 305.533C215.27 327.124 232.773 344.627 254.363 344.627C275.954 344.627 293.457 327.124 293.457 305.533C293.457 283.943 275.954 266.44 254.363 266.44C232.773 266.44 215.27 283.943 215.27 305.533Z" fill="#F4F7F7"/>
<path d="M254.363 263.793C254.363 262.333 255.549 261.14 257.007 261.227C266.632 261.801 275.835 265.497 283.201 271.793C291.239 278.663 296.56 288.176 298.207 298.621C299.854 309.065 297.718 319.754 292.184 328.764C286.649 337.774 278.081 344.512 268.02 347.765C257.96 351.018 247.068 350.573 237.307 346.51C227.545 342.447 219.555 335.032 214.774 325.601C209.994 316.17 208.737 305.342 211.23 295.067C213.515 285.65 218.812 277.265 226.278 271.164C227.409 270.24 229.068 270.513 229.924 271.697C230.779 272.881 230.506 274.528 229.382 275.461C222.934 280.817 218.359 288.123 216.371 296.314C214.175 305.365 215.282 314.902 219.493 323.209C223.703 331.516 230.741 338.047 239.34 341.626C247.938 345.205 257.531 345.597 266.393 342.732C275.254 339.866 282.801 333.931 287.676 325.995C292.55 318.059 294.432 308.644 292.981 299.444C291.531 290.245 286.844 281.865 279.764 275.814C273.356 270.338 265.37 267.094 257.007 266.528C255.549 266.429 254.363 265.254 254.363 263.793Z" fill="#F3CA60"/>
<path d="M313.437 305.533C313.437 338.159 286.989 364.607 254.363 364.607C221.738 364.607 195.29 338.159 195.29 305.533C195.29 272.908 221.738 246.46 254.363 246.46C286.989 246.46 313.437 272.908 313.437 305.533ZM200.19 305.533C200.19 335.453 224.444 359.707 254.363 359.707C284.283 359.707 308.537 335.453 308.537 305.533C308.537 275.614 284.283 251.359 254.363 251.359C224.444 251.359 200.19 275.614 200.19 305.533Z" fill="#F4F7F7"/>
<path d="M254.363 248.944C254.363 247.572 255.476 246.455 256.847 246.512C268.667 247.009 280.088 251.047 289.612 258.129C299.802 265.705 307.279 276.364 310.935 288.525C314.591 300.685 314.232 313.7 309.91 325.64C305.588 337.58 297.533 347.81 286.941 354.812C276.348 361.815 263.781 365.218 251.102 364.517C238.423 363.816 226.307 359.048 216.551 350.92C206.795 342.792 199.918 331.737 196.939 319.393C194.154 307.855 194.914 295.766 199.087 284.696C199.571 283.412 201.035 282.826 202.298 283.364C203.56 283.901 204.142 285.359 203.663 286.645C199.906 296.73 199.235 307.728 201.769 318.227C204.498 329.532 210.796 339.658 219.732 347.102C228.667 354.546 239.764 358.913 251.376 359.555C262.988 360.198 274.499 357.081 284.2 350.667C293.902 344.254 301.279 334.884 305.238 323.949C309.196 313.013 309.525 301.093 306.177 289.955C302.828 278.818 295.98 269.055 286.647 262.116C277.98 255.671 267.599 251.98 256.847 251.486C255.477 251.423 254.363 250.317 254.363 248.944Z" fill="#1CB565"/>
<path d="M327.487 305.534C327.487 345.918 294.748 378.657 254.364 378.657C213.979 378.657 181.24 345.918 181.24 305.534C181.24 265.149 213.979 232.41 254.364 232.41C294.748 232.41 327.487 265.149 327.487 305.534ZM185.537 305.534C185.537 343.545 216.352 374.36 254.364 374.36C292.376 374.36 323.19 343.545 323.19 305.534C323.19 267.522 292.376 236.707 254.364 236.707C216.352 236.707 185.537 267.522 185.537 305.534Z" fill="#F4F7F7"/>
<path d="M254.364 234.565C254.364 233.375 255.329 232.407 256.519 232.442C270.227 232.846 283.562 237.098 294.989 244.734C307.014 252.769 316.386 264.189 321.921 277.55C327.455 290.912 328.903 305.615 326.082 319.799C323.26 333.984 316.296 347.013 306.07 357.24C295.843 367.466 282.814 374.43 268.629 377.252C254.445 380.073 239.742 378.625 226.38 373.091C213.019 367.556 201.599 358.184 193.564 346.159C185.928 334.732 181.676 321.397 181.272 307.688C181.237 306.499 182.205 305.534 183.395 305.534C184.585 305.534 185.547 306.499 185.584 307.688C185.987 320.544 189.986 333.046 197.147 343.764C204.709 355.08 215.456 363.9 228.03 369.109C240.604 374.317 254.44 375.68 267.788 373.025C281.137 370.369 293.398 363.816 303.022 354.192C312.646 344.568 319.199 332.307 321.855 318.958C324.51 305.61 323.147 291.774 317.939 279.2C312.73 266.626 303.91 255.879 292.594 248.317C281.876 241.156 269.374 237.157 256.518 236.754C255.329 236.717 254.364 235.755 254.364 234.565Z" fill="#235D5E"/>
<path d="M243.323 296.406V295.458H248.213V296.406H246.301V301.719H245.227V296.406H243.323ZM252.736 299.44C252.736 300.138 252.507 300.716 252.05 301.173C251.596 301.627 251.02 301.854 250.322 301.854C249.626 301.854 249.051 301.627 248.597 301.173C248.14 300.716 247.912 300.138 247.912 299.44C247.912 298.744 248.14 298.168 248.597 297.711C249.054 297.254 249.629 297.026 250.322 297.026C251.017 297.026 251.593 297.254 252.05 297.711C252.507 298.168 252.736 298.744 252.736 299.44ZM248.92 299.44C248.92 299.911 249.051 300.298 249.313 300.601C249.575 300.892 249.911 301.038 250.322 301.038C250.735 301.038 251.072 300.892 251.334 300.601C251.602 300.301 251.736 299.914 251.736 299.44C251.736 298.971 251.602 298.587 251.334 298.287C251.075 297.988 250.738 297.838 250.322 297.838C249.917 297.838 249.581 297.988 249.313 298.287C249.051 298.59 248.92 298.974 248.92 299.44ZM253.993 300.501V297.929H253.216V297.161H253.993V295.882H254.997V297.161H256.141V297.929H254.997V300.448C254.997 300.655 255.042 300.803 255.133 300.894C255.226 300.984 255.383 301.029 255.604 301.029C255.846 301.029 256.073 301 256.285 300.942V301.736C255.982 301.803 255.684 301.837 255.39 301.837C254.892 301.837 254.534 301.735 254.316 301.531C254.101 301.327 253.993 300.984 253.993 300.501ZM260.633 301.719V301.094H260.59C260.235 301.601 259.718 301.854 259.04 301.854C258.42 301.854 257.896 301.627 257.468 301.173C257.046 300.716 256.835 300.138 256.835 299.44C256.835 298.744 257.046 298.168 257.468 297.711C257.899 297.254 258.423 297.026 259.04 297.026C259.7 297.026 260.201 297.276 260.542 297.777H260.59V297.161H261.589V301.719H260.633ZM259.245 301.038C259.647 301.038 259.981 300.889 260.249 300.592C260.517 300.284 260.651 299.9 260.651 299.44C260.651 298.977 260.517 298.596 260.249 298.296C259.981 297.99 259.647 297.838 259.245 297.838C258.852 297.838 258.519 297.99 258.245 298.296C257.977 298.596 257.844 298.977 257.844 299.44C257.844 299.9 257.977 300.284 258.245 300.592C258.522 300.889 258.855 301.038 259.245 301.038ZM263.646 295.458V301.719H262.646V295.458H263.646Z" fill="#949AB1"/>
<path d="M237.12 312.656H238.158C238.182 313.067 238.37 313.319 238.721 313.414V311.959C238.643 311.934 238.493 311.882 238.271 311.8C238.149 311.755 238.014 311.688 237.866 311.602C237.644 311.469 237.478 311.307 237.367 311.115C237.256 310.921 237.193 310.665 237.177 310.349C237.177 309.965 237.301 309.63 237.55 309.344C237.804 309.052 238.194 308.886 238.721 308.845V308.29H239.301V308.845C239.749 308.899 240.103 309.07 240.363 309.356C240.625 309.64 240.764 310.002 240.78 310.442H239.775C239.751 310.08 239.593 309.844 239.301 309.733V311.14C239.49 311.205 239.678 311.276 239.864 311.355C239.994 311.406 240.152 311.499 240.339 311.634C240.693 311.867 240.87 312.244 240.87 312.765C240.87 313.214 240.74 313.575 240.48 313.848C240.224 314.118 239.83 314.277 239.301 314.326V314.881H238.721V314.326C238.221 314.28 237.835 314.112 237.562 313.823C237.289 313.534 237.141 313.145 237.12 312.656ZM239.301 312.169V313.422C239.66 313.349 239.84 313.141 239.84 312.798C239.84 312.53 239.66 312.321 239.301 312.169ZM238.222 310.292C238.222 310.552 238.389 310.761 238.721 310.921V309.709C238.389 309.782 238.222 309.976 238.222 310.292ZM244.044 308.853V314.492H242.892V310.771H241.628V309.96H241.83C242.233 309.96 242.529 309.874 242.718 309.701C242.907 309.528 243.003 309.245 243.006 308.853H244.044ZM247.546 313.256H245.154V312.473L247.429 308.853H248.698V312.352H249.281V313.256H248.698V314.492H247.546V313.256ZM246.74 311.403L246.136 312.352H247.546V311.513C247.546 311.05 247.554 310.586 247.571 310.118H247.53C247.268 310.567 247.004 310.995 246.74 311.403ZM251.122 312.076H250.116L250.656 308.853H253.672L253.554 309.851H251.454L251.231 311.063L251.264 311.071C251.561 310.811 251.915 310.682 252.326 310.682C252.853 310.682 253.27 310.852 253.578 311.192C253.889 311.53 254.044 311.991 254.044 312.575C254.044 313.221 253.865 313.723 253.505 314.083C253.149 314.439 252.647 314.618 252.001 314.618C251.469 314.618 251.015 314.479 250.639 314.2C250.272 313.927 250.068 313.488 250.027 312.883H251.065C251.084 313.126 251.177 313.314 251.345 313.446C251.512 313.579 251.723 313.645 251.977 313.645C252.258 313.645 252.478 313.548 252.638 313.353C252.8 313.158 252.881 312.894 252.881 312.559C252.881 312.229 252.8 311.969 252.638 311.78C252.476 311.591 252.258 311.496 251.985 311.496C251.788 311.496 251.614 311.548 251.462 311.65C251.314 311.75 251.2 311.892 251.122 312.076ZM257.121 313.256H254.73V312.473L257.004 308.853H258.273V312.352H258.856V313.256H258.273V314.492H257.121V313.256ZM256.315 311.403L255.711 312.352H257.121V311.513C257.121 311.05 257.129 310.586 257.146 310.118H257.105C256.843 310.567 256.579 310.995 256.315 311.403ZM261.054 313.945C261.054 314.129 260.989 314.285 260.859 314.415C260.732 314.545 260.572 314.61 260.381 314.61C260.189 314.61 260.029 314.546 259.902 314.419C259.778 314.292 259.716 314.134 259.716 313.945C259.716 313.756 259.778 313.596 259.902 313.467C260.029 313.337 260.189 313.272 260.381 313.272C260.572 313.272 260.732 313.337 260.859 313.467C260.989 313.596 261.054 313.756 261.054 313.945ZM261.743 311.679C261.743 310.765 261.925 310.048 262.29 309.526C262.66 309.007 263.16 308.748 263.79 308.748C264.414 308.748 264.913 309.005 265.286 309.518C265.656 310.029 265.841 310.749 265.841 311.679C265.841 312.622 265.659 313.348 265.294 313.856C264.929 314.364 264.428 314.618 263.79 314.618C263.152 314.618 262.651 314.361 262.286 313.848C261.924 313.334 261.743 312.611 261.743 311.679ZM262.918 311.679C262.918 312.295 262.991 312.777 263.137 313.126C263.283 313.472 263.501 313.645 263.79 313.645C264.371 313.645 264.661 312.99 264.661 311.679C264.661 311.082 264.584 310.606 264.43 310.252C264.279 309.895 264.066 309.717 263.79 309.717C263.514 309.717 263.299 309.895 263.145 310.252C262.994 310.606 262.918 311.082 262.918 311.679ZM266.38 311.679C266.38 310.765 266.563 310.048 266.928 309.526C267.298 309.007 267.798 308.748 268.427 308.748C269.052 308.748 269.55 309.005 269.923 309.518C270.294 310.029 270.479 310.749 270.479 311.679C270.479 312.622 270.296 313.348 269.931 313.856C269.567 314.364 269.065 314.618 268.427 314.618C267.79 314.618 267.288 314.361 266.923 313.848C266.561 313.334 266.38 312.611 266.38 311.679ZM267.556 311.679C267.556 312.295 267.629 312.777 267.775 313.126C267.921 313.472 268.138 313.645 268.427 313.645C269.008 313.645 269.299 312.99 269.299 311.679C269.299 311.082 269.222 310.606 269.068 310.252C268.917 309.895 268.703 309.717 268.427 309.717C268.152 309.717 267.937 309.895 267.783 310.252C267.632 310.606 267.556 311.082 267.556 311.679Z" fill="black"/>
</g>
<defs>
<filter id="filter0_d_548_49478" x="0.0755119" y="0.737617" width="631.263" height="578.529" filterUnits="userSpaceOnUse" color-interpolation-filters="sRGB">
<feFlood flood-opacity="0" result="BackgroundImageFix"/>
<feColorMatrix in="SourceAlpha" type="matrix" values="0 0 0 0 0 0 0 0 0 0 0 0 0 0 0 0 0 0 127 0" result="hardAlpha"/>
<feOffset dx="12.7069" dy="15.369"/>
<feGaussianBlur stdDeviation="86.8157"/>
<feComposite in2="hardAlpha" operator="out"/>
<feColorMatrix type="matrix" values="0 0 0 0 0 0 0 0 0 0 0 0 0 0 0 0 0 0 0.17 0"/>
<feBlend mode="normal" in2="BackgroundImageFix" result="effect1_dropShadow_548_49478"/>
<feBlend mode="normal" in="SourceGraphic" in2="effect1_dropShadow_548_49478" result="shape"/>
</filter>
<clipPath id="clip0_548_49478">
<rect width="11.4362" height="11.4362" fill="white" transform="translate(408.15 181.872)"/>
</clipPath>
</defs>
</svg>
