<svg width="42" height="42" viewBox="0 0 42 42" fill="none" xmlns="http://www.w3.org/2000/svg">
<g filter="url(#filter0_d_970_10577)">
<rect x="1" width="40" height="40" rx="8" fill="white"/>
<path d="M18.5002 22.5004C18.5002 22.0402 18.1271 21.6671 17.6668 21.6671C17.2066 21.6671 16.8335 22.0402 16.8335 22.5004V25.0004C16.8335 25.4606 17.2066 25.8337 17.6668 25.8337C18.1271 25.8337 18.5002 25.4606 18.5002 25.0004V22.5004Z" fill="#70747E"/>
<path d="M21.0002 21.6671C21.4604 21.6671 21.8335 22.0402 21.8335 22.5004V25.0004C21.8335 25.4606 21.4604 25.8337 21.0002 25.8337C20.5399 25.8337 20.1668 25.4606 20.1668 25.0004V22.5004C20.1668 22.0402 20.5399 21.6671 21.0002 21.6671Z" fill="#70747E"/>
<path d="M25.1668 22.5004C25.1668 22.0402 24.7937 21.6671 24.3335 21.6671C23.8733 21.6671 23.5002 22.0402 23.5002 22.5004V25.0004C23.5002 25.4606 23.8733 25.8337 24.3335 25.8337C24.7937 25.8337 25.1668 25.4606 25.1668 25.0004V22.5004Z" fill="#70747E"/>
<path fill-rule="evenodd" clip-rule="evenodd" d="M23.0482 12.3066L27.2674 18.3339H29.3335C29.5806 18.3339 29.815 18.4436 29.9733 18.6333C30.1316 18.823 30.1976 19.0732 30.1534 19.3163L28.7355 27.1145C28.5194 28.3032 27.4841 29.1672 26.2759 29.1672H15.7245C14.5162 29.1672 13.4809 28.3032 13.2648 27.1145L11.8469 19.3163C11.8027 19.0732 11.8687 18.823 12.027 18.6333C12.1854 18.4436 12.4197 18.3339 12.6668 18.3339H14.733L18.9521 12.3066C19.9473 10.8848 22.053 10.8848 23.0482 12.3066ZM20.3175 13.2624C20.6492 12.7884 21.3511 12.7884 21.6829 13.2623L25.233 18.3339H16.7674L20.3175 13.2624ZM14.9046 26.8163L13.6653 20.0006H28.335L27.0958 26.8163C27.0237 27.2126 26.6786 27.5006 26.2759 27.5006H15.7245C15.3217 27.5006 14.9766 27.2126 14.9046 26.8163Z" fill="#70747E"/>
<rect x="1.5" y="0.5" width="39" height="39" rx="7.5" stroke="#E8E8E8"/>
</g>
<defs>
<filter id="filter0_d_970_10577" x="0" y="0" width="42" height="42" filterUnits="userSpaceOnUse" color-interpolation-filters="sRGB">
<feFlood flood-opacity="0" result="BackgroundImageFix"/>
<feColorMatrix in="SourceAlpha" type="matrix" values="0 0 0 0 0 0 0 0 0 0 0 0 0 0 0 0 0 0 127 0" result="hardAlpha"/>
<feOffset dy="1"/>
<feGaussianBlur stdDeviation="0.5"/>
<feColorMatrix type="matrix" values="0 0 0 0 0 0 0 0 0 0 0 0 0 0 0 0 0 0 0.06 0"/>
<feBlend mode="normal" in2="BackgroundImageFix" result="effect1_dropShadow_970_10577"/>
<feBlend mode="normal" in="SourceGraphic" in2="effect1_dropShadow_970_10577" result="shape"/>
</filter>
</defs>
</svg>
