<svg width="22" height="22" viewBox="0 0 22 22" fill="none" xmlns="http://www.w3.org/2000/svg">
<path d="M8.24984 13.75C8.24984 13.2437 7.83943 12.8333 7.33317 12.8333C6.82691 12.8333 6.4165 13.2437 6.4165 13.75V16.5C6.4165 17.0062 6.82691 17.4166 7.33317 17.4166C7.83943 17.4166 8.24984 17.0062 8.24984 16.5V13.75Z" fill="#9FA3A9"/>
<path d="M10.9998 12.8333C11.5061 12.8333 11.9165 13.2437 11.9165 13.75V16.5C11.9165 17.0062 11.5061 17.4166 10.9998 17.4166C10.4936 17.4166 10.0832 17.0062 10.0832 16.5V13.75C10.0832 13.2437 10.4936 12.8333 10.9998 12.8333Z" fill="#9FA3A9"/>
<path d="M15.5832 13.75C15.5832 13.2437 15.1728 12.8333 14.6665 12.8333C14.1602 12.8333 13.7498 13.2437 13.7498 13.75V16.5C13.7498 17.0062 14.1602 17.4166 14.6665 17.4166C15.1728 17.4166 15.5832 17.0062 15.5832 16.5V13.75Z" fill="#9FA3A9"/>
<path fill-rule="evenodd" clip-rule="evenodd" d="M13.2527 2.53675L17.8938 9.16681H20.1665C20.4383 9.16681 20.6961 9.28744 20.8703 9.49613C21.0444 9.70481 21.117 9.98003 21.0684 10.2475L19.5088 18.8254C19.271 20.133 18.1322 21.0835 16.8031 21.0835H5.19657C3.86753 21.0835 2.72867 20.133 2.49093 18.8254L0.931297 10.2475C0.882674 9.98003 0.955242 9.70481 1.12941 9.49613C1.30357 9.28744 1.56136 9.16681 1.83318 9.16681H4.10591L8.74696 2.53675C9.84173 0.97278 12.158 0.972773 13.2527 2.53675ZM10.2489 3.5881C10.6138 3.06677 11.3859 3.06677 11.7508 3.58809L15.6559 9.16681H6.34378L10.2489 3.5881ZM4.29469 18.4975L2.93154 11.0001H19.0682L17.705 18.4975C17.6258 18.9333 17.2461 19.2501 16.8031 19.2501H5.19657C4.75356 19.2501 4.37394 18.9333 4.29469 18.4975Z" fill="#9FA3A9"/>
</svg>
