<svg width="22" height="22" viewBox="0 0 22 22" fill="none" xmlns="http://www.w3.org/2000/svg">
<path fill-rule="evenodd" clip-rule="evenodd" d="M0.916504 5.5C0.916504 3.98122 2.14772 2.75 3.6665 2.75H18.3332C19.852 2.75 21.0832 3.98122 21.0832 5.5V16.5C21.0832 18.0188 19.852 19.25 18.3332 19.25H3.6665C2.14772 19.25 0.916504 18.0188 0.916504 16.5V5.5ZM3.6665 4.58333C3.16024 4.58333 2.74984 4.99374 2.74984 5.5V6.81433L10.5282 11.4814C10.8185 11.6555 11.1812 11.6555 11.4715 11.4814L19.2498 6.81433V5.5C19.2498 4.99374 18.8394 4.58333 18.3332 4.58333H3.6665ZM19.2498 8.95234L12.4147 13.0534C11.5438 13.5759 10.4559 13.5759 9.58497 13.0534L2.74984 8.95234V16.5C2.74984 17.0063 3.16024 17.4167 3.6665 17.4167H18.3332C18.8394 17.4167 19.2498 17.0063 19.2498 16.5V8.95234Z" fill="#9FA3A9"/>
</svg>
