<svg width="16" height="16" viewBox="0 0 16 16" fill="none" xmlns="http://www.w3.org/2000/svg">
<g clip-path="url(#clip0_548_40438)">
<path d="M6.66667 6.33333C6.66667 5.8897 7.14465 5.33333 8 5.33333C8.4815 5.33333 8.87681 5.52657 9.10495 5.77968C9.35146 6.05317 9.773 6.07504 10.0465 5.82853C10.32 5.58202 10.3419 5.16048 10.0953 4.88699C9.73215 4.48405 9.23007 4.19961 8.66667 4.07331V3.33333C8.66667 2.96514 8.36819 2.66667 8 2.66667C7.63181 2.66667 7.33333 2.96514 7.33333 3.33333V4.07559C6.24557 4.32434 5.33333 5.16857 5.33333 6.33333C5.33333 7.73065 6.64621 8.66667 8 8.66667C8.85535 8.66667 9.33323 9.22303 9.33323 9.66667C9.33323 10.1103 8.85525 10.6667 7.99989 10.6667C7.51839 10.6667 7.12308 10.4734 6.89494 10.2203C6.64843 9.94683 6.22689 9.92496 5.9534 10.1715C5.67991 10.418 5.65804 10.8395 5.90455 11.113C6.26776 11.516 6.76988 11.8004 7.33333 11.9267V12.6667C7.33333 13.0349 7.63181 13.3333 8 13.3333C8.36819 13.3333 8.66667 13.0349 8.66667 12.6667V11.9244C9.75438 11.6756 10.6666 10.8314 10.6666 9.66667C10.6666 8.26935 9.35379 7.33333 8 7.33333C7.14465 7.33333 6.66667 6.77697 6.66667 6.33333Z" fill="#878B93"/>
<path fill-rule="evenodd" clip-rule="evenodd" d="M16 8C16 12.4183 12.4183 16 8 16C3.58172 16 0 12.4183 0 8C0 3.58172 3.58172 0 8 0C12.4183 0 16 3.58172 16 8ZM14.6667 8C14.6667 11.6819 11.6819 14.6667 8 14.6667C4.3181 14.6667 1.33333 11.6819 1.33333 8C1.33333 4.3181 4.3181 1.33333 8 1.33333C11.6819 1.33333 14.6667 4.3181 14.6667 8Z" fill="#878B93"/>
</g>
<defs>
<clipPath id="clip0_548_40438">
<rect width="16" height="16" fill="white"/>
</clipPath>
</defs>
</svg>
