<svg width="16" height="16" viewBox="0 0 16 16" fill="none" xmlns="http://www.w3.org/2000/svg">
<path d="M12.1381 6.13807C12.3984 5.87772 12.3984 5.45561 12.1381 5.19526C11.8777 4.93491 11.4556 4.93491 11.1953 5.19526L6.66667 9.72386L4.4714 7.5286C4.21106 7.26825 3.78894 7.26825 3.5286 7.5286C3.26825 7.78895 3.26825 8.21106 3.5286 8.47141L6.19526 11.1381C6.45561 11.3984 6.87772 11.3984 7.13807 11.1381L12.1381 6.13807Z" fill="#9FA3A9"/>
<path fill-rule="evenodd" clip-rule="evenodd" d="M16 8C16 12.4183 12.4183 16 8 16C3.58172 16 0 12.4183 0 8C0 3.58172 3.58172 0 8 0C12.4183 0 16 3.58172 16 8ZM14.6667 8C14.6667 11.6819 11.6819 14.6667 8 14.6667C4.3181 14.6667 1.33333 11.6819 1.33333 8C1.33333 4.3181 4.3181 1.33333 8 1.33333C11.6819 1.33333 14.6667 4.3181 14.6667 8Z" fill="#9FA3A9"/>
</svg>
