<svg width="10" height="10" viewBox="0 0 10 10" fill="none" xmlns="http://www.w3.org/2000/svg">
<path d="M1.32906 0.50435C1.10126 0.276545 0.731912 0.276545 0.504106 0.50435C0.2763 0.732156 0.2763 1.1015 0.504106 1.32931L4.17501 5.00021L0.504106 8.67111C0.276301 8.89891 0.276301 9.26826 0.504106 9.49606C0.731912 9.72387 1.10126 9.72387 1.32906 9.49606L4.99996 5.82516L8.67077 9.49598C8.89858 9.72378 9.26793 9.72378 9.49573 9.49598C9.72354 9.26817 9.72354 8.89882 9.49573 8.67102L5.82492 5.00021L9.49573 1.3294C9.72354 1.10159 9.72354 0.732244 9.49573 0.504439C9.26793 0.276633 8.89858 0.276633 8.67077 0.504439L4.99996 4.17525L1.32906 0.50435Z" fill="#1E1E1E"/>
</svg>
