<svg width="74" height="36" viewBox="0 0 74 36" fill="none" xmlns="http://www.w3.org/2000/svg">
<rect x="0.5" y="0.5" width="73" height="35" rx="17.5" fill="white"/>
<path fill-rule="evenodd" clip-rule="evenodd" d="M54.8536 13.1464C54.6583 12.9512 54.3417 12.9512 54.1464 13.1464L47.1464 20.1464C47.0527 20.2402 47 20.3674 47 20.5V22.5C47 22.7761 47.2239 23 47.5 23H49.5C49.6326 23 49.7598 22.9473 49.8536 22.8536L56.8536 15.8536C57.0488 15.6583 57.0488 15.3417 56.8536 15.1464L54.8536 13.1464ZM55 16.2929L53.7071 15L54.5 14.2071L55.7929 15.5L55 16.2929ZM53 15.7071L54.2929 17L50 21.2929L48.7071 20L53 15.7071ZM48 20.7071L49.2929 22H48V20.7071Z" fill="#878B93"/>
<path d="M52.5 22C52.2239 22 52 22.2239 52 22.5C52 22.7761 52.2239 23 52.5 23H56.5C56.7761 23 57 22.7761 57 22.5C57 22.2239 56.7761 22 56.5 22H52.5Z" fill="#878B93"/>
<path d="M22.5156 23H16.7676V14.5977H22.3457V15.8223H18.209V18.1309H22V19.3027H18.209V21.7754H22.5156V23ZM28.5391 23V22.1621H28.4922C28.0039 22.8418 27.3027 23.1816 26.3887 23.1816C25.5566 23.1816 24.8535 22.877 24.2793 22.2676C23.7129 21.6543 23.4297 20.8789 23.4297 19.9414C23.4297 19.0078 23.7129 18.2344 24.2793 17.6211C24.8574 17.0078 25.5605 16.7012 26.3887 16.7012C27.2871 16.7012 27.9648 17.0371 28.4219 17.709H28.4688V14.5977H29.8105V23H28.5391ZM24.7832 19.9414C24.7832 20.5703 24.9629 21.0859 25.3223 21.4883C25.6934 21.8867 26.1406 22.0859 26.6641 22.0859C27.2031 22.0859 27.6523 21.8867 28.0117 21.4883C28.3711 21.0742 28.5508 20.5586 28.5508 19.9414C28.5508 19.3203 28.3711 18.8086 28.0117 18.4062C27.6523 17.9961 27.2031 17.791 26.6641 17.791C26.1367 17.791 25.6895 17.9961 25.3223 18.4062C24.9629 18.8086 24.7832 19.3203 24.7832 19.9414ZM32.5703 16.8828V23H31.2285V16.8828H32.5703ZM31.9023 16.0391C31.668 16.0391 31.4746 15.9629 31.3223 15.8105C31.1699 15.6582 31.0938 15.4707 31.0938 15.248C31.0781 15.0879 31.1191 14.9414 31.2168 14.8086C31.3184 14.6758 31.4414 14.5801 31.5859 14.5215C31.7344 14.4629 31.8926 14.4453 32.0605 14.4688C32.2285 14.4922 32.3672 14.5645 32.4766 14.6855C32.5977 14.7949 32.6719 14.9316 32.6992 15.0957C32.7266 15.2598 32.7109 15.4121 32.6523 15.5527C32.5977 15.6934 32.502 15.8125 32.3652 15.9102C32.2324 16.0078 32.0781 16.0508 31.9023 16.0391ZM34.5918 21.3652V17.9141H33.5488V16.8828H34.5918V15.166H35.9395V16.8828H37.4746V17.9141H35.9395V21.2949C35.9395 21.5723 36 21.7715 36.1211 21.8926C36.2461 22.0137 36.457 22.0742 36.7539 22.0742C37.0781 22.0742 37.3828 22.0352 37.668 21.957V23.0234C37.2617 23.1133 36.8613 23.1582 36.4668 23.1582C35.7988 23.1582 35.3184 23.0215 35.0254 22.748C34.7363 22.4746 34.5918 22.0137 34.5918 21.3652Z" fill="#878B93"/>
<rect x="0.5" y="0.5" width="73" height="35" rx="17.5" stroke="#E7E8EA"/>
</svg>
