<svg width="15" height="12" viewBox="0 0 15 12" fill="none" xmlns="http://www.w3.org/2000/svg">
<path fill-rule="evenodd" clip-rule="evenodd" d="M10.4167 6C10.4167 7.61083 9.11083 8.91667 7.5 8.91667C5.88917 8.91667 4.58333 7.61083 4.58333 6C4.58333 4.38917 5.88917 3.08333 7.5 3.08333C9.11083 3.08333 10.4167 4.38917 10.4167 6ZM9.25 6C9.25 6.9665 8.4665 7.75 7.5 7.75C6.5335 7.75 5.75 6.9665 5.75 6C5.75 5.0335 6.5335 4.25 7.5 4.25C8.4665 4.25 9.25 5.0335 9.25 6Z" fill="#101828"/>
<path fill-rule="evenodd" clip-rule="evenodd" d="M14.5 6C14.5 7.45833 11.366 11.25 7.5 11.25C3.63401 11.25 0.5 7.75 0.5 6C0.5 4.25 3.63401 0.75 7.5 0.75C11.366 0.75 14.5 4.54167 14.5 6ZM13.3331 5.99937L13.3331 6L13.3331 6.00063C13.3317 6.01216 13.3229 6.08453 13.2684 6.22669C13.2084 6.38328 13.1092 6.58201 12.9637 6.81232C12.6723 7.27335 12.2325 7.80217 11.673 8.30133C10.5397 9.3125 9.05456 10.0833 7.5 10.0833C5.91752 10.0833 4.4279 9.36109 3.3127 8.3982C2.75968 7.9207 2.32821 7.40837 2.04304 6.94608C1.74183 6.4578 1.66667 6.12926 1.66667 6C1.66667 5.87074 1.74183 5.5422 2.04304 5.05392C2.32821 4.59163 2.75968 4.0793 3.3127 3.6018C4.4279 2.63891 5.91752 1.91667 7.5 1.91667C9.05456 1.91667 10.5397 2.6875 11.673 3.69867C12.2325 4.19783 12.6723 4.72665 12.9637 5.18768C13.1092 5.41799 13.2084 5.61672 13.2684 5.77331C13.3229 5.91547 13.3317 5.98784 13.3331 5.99937Z" fill="#101828"/>
</svg>
