<svg width="16" height="14" viewBox="0 0 16 14" fill="none" xmlns="http://www.w3.org/2000/svg">
<path fill-rule="evenodd" clip-rule="evenodd" d="M12.714 3.61945C10.1105 1.01596 5.88943 1.01596 3.28594 3.61945C0.834627 6.07076 0.691224 9.95693 2.85625 12.5753C3.09087 12.8591 3.05104 13.2793 2.76729 13.5139C2.48353 13.7486 2.06331 13.7087 1.82869 13.425C-0.770348 10.2817 -0.599041 5.61881 2.34313 2.67664C5.46732 -0.447553 10.5326 -0.447553 13.6568 2.67664C16.5952 5.61504 16.7699 10.2697 14.1813 13.4129C13.9472 13.6971 13.527 13.7377 13.2428 13.5037C12.9586 13.2696 12.918 12.8495 13.152 12.5653C15.3084 9.94695 15.1622 6.06761 12.714 3.61945ZM12.4714 5.19543C12.7317 5.45578 12.7317 5.87789 12.4714 6.13824L10.2974 8.31219C10.532 8.70919 10.6666 9.17229 10.6666 9.66683C10.6666 11.1396 9.47274 12.3335 7.99998 12.3335C6.52722 12.3335 5.33332 11.1396 5.33332 9.66683C5.33332 8.19407 6.52722 7.00016 7.99998 7.00016C8.49452 7.00016 8.95762 7.13478 9.35463 7.36938L11.5286 5.19543C11.7889 4.93508 12.211 4.93508 12.4714 5.19543ZM7.99998 8.3335C7.2636 8.3335 6.66665 8.93045 6.66665 9.66683C6.66665 10.4032 7.2636 11.0002 7.99998 11.0002C8.73636 11.0002 9.33332 10.4032 9.33332 9.66683C9.33332 8.93045 8.73636 8.3335 7.99998 8.3335Z" fill="#9FA3A9"/>
</svg>
