<svg width="20" height="14" viewBox="0 0 20 14" fill="none" xmlns="http://www.w3.org/2000/svg">
<path d="M2.20801 2.875C2.9674 2.875 3.58301 2.25939 3.58301 1.5C3.58301 0.740608 2.9674 0.125 2.20801 0.125C1.44862 0.125 0.833008 0.740608 0.833008 1.5C0.833008 2.25939 1.44862 2.875 2.20801 2.875Z" fill="#949AB1"/>
<path d="M6.33301 0.583333C5.82675 0.583333 5.41634 0.993739 5.41634 1.5C5.41634 2.00626 5.82675 2.41667 6.33301 2.41667L18.2497 2.41667C18.7559 2.41667 19.1663 2.00626 19.1663 1.5C19.1663 0.99374 18.7559 0.583335 18.2497 0.583335L6.33301 0.583333Z" fill="#949AB1"/>
<path d="M6.33301 6.08333C5.82675 6.08333 5.41634 6.49374 5.41634 7C5.41634 7.50626 5.82675 7.91667 6.33301 7.91667L18.2497 7.91667C18.7559 7.91667 19.1663 7.50626 19.1663 7C19.1663 6.49374 18.7559 6.08333 18.2497 6.08333L6.33301 6.08333Z" fill="#949AB1"/>
<path d="M5.41634 12.5C5.41634 11.9937 5.82675 11.5833 6.33301 11.5833H18.2497C18.7559 11.5833 19.1663 11.9937 19.1663 12.5C19.1663 13.0063 18.7559 13.4167 18.2497 13.4167H6.33301C5.82675 13.4167 5.41634 13.0063 5.41634 12.5Z" fill="#949AB1"/>
<path d="M3.58301 7C3.58301 7.75939 2.9674 8.375 2.20801 8.375C1.44862 8.375 0.833008 7.75939 0.833008 7C0.833008 6.24061 1.44862 5.625 2.20801 5.625C2.9674 5.625 3.58301 6.24061 3.58301 7Z" fill="#949AB1"/>
<path d="M2.20801 13.875C2.9674 13.875 3.58301 13.2594 3.58301 12.5C3.58301 11.7406 2.9674 11.125 2.20801 11.125C1.44862 11.125 0.833008 11.7406 0.833008 12.5C0.833008 13.2594 1.44862 13.875 2.20801 13.875Z" fill="#949AB1"/>
</svg>
