<svg width="16" height="17" viewBox="0 0 16 17" fill="none" xmlns="http://www.w3.org/2000/svg">
<path fill-rule="evenodd" clip-rule="evenodd" d="M12.5001 5.25C12.5001 7.73528 10.4854 9.75 8.00012 9.75C5.51484 9.75 3.50012 7.73528 3.50012 5.25C3.50012 2.76472 5.51484 0.75 8.00012 0.75C10.4854 0.75 12.5001 2.76472 12.5001 5.25ZM11.0001 5.25C11.0001 6.90685 9.65698 8.25 8.00012 8.25C6.34327 8.25 5.00012 6.90685 5.00012 5.25C5.00012 3.59315 6.34327 2.25 8.00012 2.25C9.65698 2.25 11.0001 3.59315 11.0001 5.25Z" fill="#1E1E1E"/>
<path fill-rule="evenodd" clip-rule="evenodd" d="M8.00018 10.5C5.79883 10.5 4.21165 10.9566 3.0731 11.6413C1.93002 12.3287 1.28797 13.2168 0.933421 13.9936C0.634558 14.6483 0.770582 15.3156 1.16766 15.7909C1.54616 16.2441 2.13467 16.5 2.75016 16.5H13.2501C13.8656 16.5 14.4541 16.2441 14.8326 15.7909C15.2297 15.3156 15.3657 14.6484 15.0669 13.9936C14.7123 13.2169 14.0703 12.3287 12.9272 11.6413C11.7887 10.9566 10.2015 10.5 8.00018 10.5ZM2.29798 14.6164C2.5441 14.0773 2.9962 13.4379 3.84613 12.9268C4.70061 12.4129 6.00533 12 8.00018 12C9.99503 12 11.2997 12.4129 12.1542 12.9268C13.0041 13.4379 13.4562 14.0773 13.7023 14.6165C13.7314 14.6801 13.7301 14.7184 13.7272 14.738C13.7238 14.7603 13.7129 14.7916 13.6814 14.8293C13.6138 14.9103 13.4631 15 13.2501 15H2.75016C2.53721 15 2.38649 14.9103 2.31887 14.8293C2.28739 14.7916 2.27644 14.7603 2.27311 14.738C2.27019 14.7184 2.26892 14.6801 2.29798 14.6164Z" fill="#1E1E1E"/>
</svg>
