<svg width="26" height="23" viewBox="0 0 26 23" fill="none" xmlns="http://www.w3.org/2000/svg">
<path fill-rule="evenodd" clip-rule="evenodd" d="M3.75843 10.4975V8.28293H9.53809H10.639L10.624 7.1821L10.5556 2.17689H14.1921V7.19693V8.28293H15.2781H20.5597C21.0452 9.17478 22.0059 9.78197 23.1117 9.78197C24.7072 9.78197 26.0006 8.5179 26.0006 6.95858C26.0006 5.39927 24.7072 4.1352 23.1117 4.1352C21.8184 4.1352 20.7236 4.96578 20.3552 6.11093H16.3641V1.09089V0.00488281H15.2781H9.45469H8.35375L8.36879 1.10572L8.43715 6.11093H2.67243H1.58643V7.19693V10.4975H3.75843Z" fill="#325C5D"/>
<path fill-rule="evenodd" clip-rule="evenodd" d="M20.8762 12.5156V14.7765L15.166 14.7765L14.0799 14.7765V15.8625V20.8275H10.6245V15.9175V14.8315H9.53845H5.71195C5.42962 13.5615 4.27292 12.6104 2.88891 12.6104C1.29341 12.6104 0 13.8744 0 15.4337C0 16.9931 1.29341 18.2571 2.88891 18.2571C3.89001 18.2571 4.77217 17.7595 5.29053 17.0035H8.45245V21.9135V22.9995H9.53845H15.1659H16.252V21.9135V16.9485L21.9622 16.9485L23.0482 16.9486V15.8625V12.5156H20.8762Z" fill="#4BAA5E"/>
</svg>
