<svg width="14" height="16" viewBox="0 0 14 16" fill="none" xmlns="http://www.w3.org/2000/svg">
<path d="M5.00016 6.6665C5.00016 6.29831 4.70169 5.99984 4.3335 5.99984C3.96531 5.99984 3.66683 6.29831 3.66683 6.6665C3.66683 8.50745 5.15921 9.99984 7.00016 9.99984C8.84111 9.99984 10.3335 8.50745 10.3335 6.6665C10.3335 6.29831 10.035 5.99984 9.66683 5.99984C9.29864 5.99984 9.00016 6.29831 9.00016 6.6665C9.00016 7.77107 8.10473 8.6665 7.00016 8.6665C5.89559 8.6665 5.00016 7.77107 5.00016 6.6665Z" fill="#9FA3A9"/>
<path fill-rule="evenodd" clip-rule="evenodd" d="M2.3335 0.666504C2.08098 0.666504 1.85014 0.809172 1.73721 1.03503L0.403878 3.70169C0.357593 3.79427 0.333496 3.89634 0.333496 3.99984V13.3332C0.333496 14.4377 1.22893 15.3332 2.3335 15.3332H11.6668C12.7714 15.3332 13.6668 14.4377 13.6668 13.3332V3.99984C13.6668 3.9199 13.6525 3.84061 13.6244 3.76575L12.6244 1.09909C12.5268 0.838886 12.2781 0.666504 12.0002 0.666504H2.3335ZM2.07885 3.33317L2.74552 1.99984H11.5382L12.0382 3.33317H2.07885ZM1.66683 4.6665H12.3335V13.3332C12.3335 13.7014 12.035 13.9998 11.6668 13.9998H2.3335C1.96531 13.9998 1.66683 13.7014 1.66683 13.3332V4.6665Z" fill="#9FA3A9"/>
</svg>
