<svg width="92" height="22" viewBox="0 0 92 22" fill="none" xmlns="http://www.w3.org/2000/svg">
<rect width="92" height="22" rx="11" fill="#FEE4E2"/>
<path d="M16.3974 6.27273V15H15.1871L10.7511 8.59943H10.6701V15H9.35334V6.27273H10.5721L15.0124 12.6818H15.0934V6.27273H16.3974ZM20.973 15.1321C20.3594 15.1321 19.8239 14.9915 19.3665 14.7102C18.9091 14.429 18.554 14.0355 18.3011 13.5298C18.0483 13.0241 17.9219 12.4332 17.9219 11.7571C17.9219 11.0781 18.0483 10.4844 18.3011 9.97585C18.554 9.46733 18.9091 9.07244 19.3665 8.79119C19.8239 8.50994 20.3594 8.36932 20.973 8.36932C21.5866 8.36932 22.1222 8.50994 22.5795 8.79119C23.0369 9.07244 23.392 9.46733 23.6449 9.97585C23.8977 10.4844 24.0241 11.0781 24.0241 11.7571C24.0241 12.4332 23.8977 13.0241 23.6449 13.5298C23.392 14.0355 23.0369 14.429 22.5795 14.7102C22.1222 14.9915 21.5866 15.1321 20.973 15.1321ZM20.9773 14.0625C21.375 14.0625 21.7045 13.9574 21.9659 13.7472C22.2273 13.5369 22.4205 13.2571 22.5455 12.9077C22.6733 12.5582 22.7372 12.1733 22.7372 11.7528C22.7372 11.3352 22.6733 10.9517 22.5455 10.6023C22.4205 10.25 22.2273 9.96733 21.9659 9.75426C21.7045 9.54119 21.375 9.43466 20.9773 9.43466C20.5767 9.43466 20.2443 9.54119 19.9801 9.75426C19.7188 9.96733 19.5241 10.25 19.3963 10.6023C19.2713 10.9517 19.2088 11.3352 19.2088 11.7528C19.2088 12.1733 19.2713 12.5582 19.3963 12.9077C19.5241 13.2571 19.7188 13.5369 19.9801 13.7472C20.2443 13.9574 20.5767 14.0625 20.9773 14.0625ZM28.5018 8.45455V9.47727H24.9265V8.45455H28.5018ZM25.8853 6.88636H27.1594V13.0781C27.1594 13.3253 27.1964 13.5114 27.2702 13.6364C27.3441 13.7585 27.4393 13.8423 27.5558 13.8878C27.6751 13.9304 27.8043 13.9517 27.9435 13.9517C28.0458 13.9517 28.1353 13.9446 28.212 13.9304C28.2887 13.9162 28.3484 13.9048 28.391 13.8963L28.6211 14.9489C28.5472 14.9773 28.4421 15.0057 28.3058 15.0341C28.1694 15.0653 27.9989 15.0824 27.7944 15.0852C27.4592 15.0909 27.1467 15.0312 26.8569 14.9062C26.5671 14.7812 26.3327 14.5881 26.1538 14.3267C25.9748 14.0653 25.8853 13.7372 25.8853 13.3423V6.88636ZM33.9265 15H32.5288L35.6694 6.27273H37.1907L40.3313 15H38.9336L36.4663 7.85795H36.3981L33.9265 15ZM34.1609 11.5824H38.695V12.6903H34.1609V11.5824ZM46.2685 8.45455L43.8949 15H42.5312L40.1534 8.45455H41.5213L43.179 13.4915H43.2472L44.9006 8.45455H46.2685ZM49.1832 15.1449C48.7685 15.1449 48.3935 15.0682 48.0582 14.9148C47.723 14.7585 47.4574 14.5327 47.2614 14.2372C47.0682 13.9418 46.9716 13.5795 46.9716 13.1506C46.9716 12.7812 47.0426 12.4773 47.1847 12.2386C47.3267 12 47.5185 11.8111 47.7599 11.6719C48.0014 11.5327 48.2713 11.4276 48.5696 11.3565C48.8679 11.2855 49.1719 11.2315 49.4815 11.1946C49.8736 11.1491 50.1918 11.1122 50.4361 11.0838C50.6804 11.0526 50.858 11.0028 50.9688 10.9347C51.0795 10.8665 51.1349 10.7557 51.1349 10.6023V10.5724C51.1349 10.2003 51.0298 9.91193 50.8196 9.70739C50.6122 9.50284 50.3026 9.40057 49.8906 9.40057C49.4616 9.40057 49.1236 9.49574 48.8764 9.68608C48.6321 9.87358 48.4631 10.0824 48.3693 10.3125L47.1719 10.0398C47.3139 9.64205 47.5213 9.32102 47.794 9.0767C48.0696 8.82955 48.3864 8.65057 48.7443 8.53977C49.1023 8.42614 49.4787 8.36932 49.8736 8.36932C50.1349 8.36932 50.4119 8.40057 50.7045 8.46307C51 8.52273 51.2756 8.63352 51.5312 8.79545C51.7898 8.95739 52.0014 9.18892 52.1662 9.49006C52.331 9.78835 52.4134 10.1761 52.4134 10.6534V15H51.169V14.1051H51.1179C51.0355 14.2699 50.9119 14.4318 50.7472 14.5909C50.5824 14.75 50.3707 14.8821 50.1122 14.9872C49.8537 15.0923 49.544 15.1449 49.1832 15.1449ZM49.4602 14.1222C49.8125 14.1222 50.1136 14.0526 50.3636 13.9134C50.6165 13.7741 50.8082 13.5923 50.9389 13.3679C51.0724 13.1406 51.1392 12.8977 51.1392 12.6392V11.7955C51.0938 11.8409 51.0057 11.8835 50.875 11.9233C50.7472 11.9602 50.6009 11.9929 50.4361 12.0213C50.2713 12.0469 50.1108 12.071 49.9545 12.0938C49.7983 12.1136 49.6676 12.1307 49.5625 12.1449C49.3153 12.1761 49.0895 12.2287 48.8849 12.3026C48.6832 12.3764 48.5213 12.483 48.3991 12.6222C48.2798 12.7585 48.2202 12.9403 48.2202 13.1676C48.2202 13.483 48.3366 13.7216 48.5696 13.8835C48.8026 14.0426 49.0994 14.1222 49.4602 14.1222ZM54.1104 15V8.45455H55.3846V15H54.1104ZM54.7539 7.4446C54.5323 7.4446 54.342 7.37074 54.1829 7.22301C54.0266 7.07244 53.9485 6.89347 53.9485 6.68608C53.9485 6.47585 54.0266 6.29687 54.1829 6.14915C54.342 5.99858 54.5323 5.9233 54.7539 5.9233C54.9755 5.9233 55.1644 5.99858 55.3207 6.14915C55.4798 6.29687 55.5593 6.47585 55.5593 6.68608C55.5593 6.89347 55.4798 7.07244 55.3207 7.22301C55.1644 7.37074 54.9755 7.4446 54.7539 7.4446ZM58.3729 6.27273V15H57.0987V6.27273H58.3729ZM61.9918 15.1449C61.5771 15.1449 61.2021 15.0682 60.8668 14.9148C60.5316 14.7585 60.266 14.5327 60.07 14.2372C59.8768 13.9418 59.7802 13.5795 59.7802 13.1506C59.7802 12.7812 59.8512 12.4773 59.9933 12.2386C60.1353 12 60.3271 11.8111 60.5685 11.6719C60.81 11.5327 61.0799 11.4276 61.3782 11.3565C61.6765 11.2855 61.9805 11.2315 62.2901 11.1946C62.6822 11.1491 63.0004 11.1122 63.2447 11.0838C63.489 11.0526 63.6665 11.0028 63.7773 10.9347C63.8881 10.8665 63.9435 10.7557 63.9435 10.6023V10.5724C63.9435 10.2003 63.8384 9.91193 63.6282 9.70739C63.4208 9.50284 63.1112 9.40057 62.6992 9.40057C62.2702 9.40057 61.9322 9.49574 61.685 9.68608C61.4407 9.87358 61.2717 10.0824 61.1779 10.3125L59.9805 10.0398C60.1225 9.64205 60.3299 9.32102 60.6026 9.0767C60.8782 8.82955 61.195 8.65057 61.5529 8.53977C61.9109 8.42614 62.2873 8.36932 62.6822 8.36932C62.9435 8.36932 63.2205 8.40057 63.5131 8.46307C63.8086 8.52273 64.0842 8.63352 64.3398 8.79545C64.5984 8.95739 64.81 9.18892 64.9748 9.49006C65.1396 9.78835 65.2219 10.1761 65.2219 10.6534V15H63.9776V14.1051H63.9265C63.8441 14.2699 63.7205 14.4318 63.5558 14.5909C63.391 14.75 63.1793 14.8821 62.9208 14.9872C62.6623 15.0923 62.3526 15.1449 61.9918 15.1449ZM62.2688 14.1222C62.6211 14.1222 62.9222 14.0526 63.1722 13.9134C63.4251 13.7741 63.6168 13.5923 63.7475 13.3679C63.881 13.1406 63.9478 12.8977 63.9478 12.6392V11.7955C63.9023 11.8409 63.8143 11.8835 63.6836 11.9233C63.5558 11.9602 63.4094 11.9929 63.2447 12.0213C63.0799 12.0469 62.9194 12.071 62.7631 12.0938C62.6069 12.1136 62.4762 12.1307 62.3711 12.1449C62.1239 12.1761 61.8981 12.2287 61.6935 12.3026C61.4918 12.3764 61.3299 12.483 61.2077 12.6222C61.0884 12.7585 61.0288 12.9403 61.0288 13.1676C61.0288 13.483 61.1452 13.7216 61.3782 13.8835C61.6112 14.0426 61.908 14.1222 62.2688 14.1222ZM67.0213 15V6.27273H68.2955V9.51562H68.3722C68.446 9.37926 68.5526 9.22159 68.6918 9.04261C68.831 8.86364 69.0241 8.70739 69.2713 8.57386C69.5185 8.4375 69.8452 8.36932 70.2514 8.36932C70.7798 8.36932 71.2514 8.50284 71.6662 8.76989C72.081 9.03693 72.4063 9.42187 72.642 9.92472C72.8807 10.4276 73 11.0327 73 11.7401C73 12.4474 72.8821 13.054 72.6463 13.5597C72.4105 14.0625 72.0866 14.4503 71.6747 14.723C71.2628 14.9929 70.7926 15.1278 70.2642 15.1278C69.8665 15.1278 69.5412 15.0611 69.2884 14.9276C69.0384 14.794 68.8423 14.6378 68.7003 14.4588C68.5582 14.2798 68.4489 14.1207 68.3722 13.9815H68.2656V15H67.0213ZM68.2699 11.7273C68.2699 12.1875 68.3366 12.5909 68.4702 12.9375C68.6037 13.2841 68.7969 13.5554 69.0497 13.7514C69.3026 13.9446 69.6122 14.0412 69.9787 14.0412C70.3594 14.0412 70.6776 13.9403 70.9332 13.7386C71.1889 13.5341 71.3821 13.2571 71.5128 12.9077C71.6463 12.5582 71.7131 12.1648 71.7131 11.7273C71.7131 11.2955 71.6477 10.9077 71.517 10.5639C71.3892 10.2202 71.196 9.94886 70.9375 9.75C70.6818 9.55114 70.3622 9.4517 69.9787 9.4517C69.6094 9.4517 69.2969 9.54687 69.0412 9.73722C68.7884 9.92756 68.5966 10.1932 68.4659 10.5341C68.3352 10.875 68.2699 11.2727 68.2699 11.7273ZM75.7049 6.27273V15H74.4308V6.27273H75.7049ZM80.2401 15.1321C79.5952 15.1321 79.0398 14.9943 78.5739 14.7188C78.1108 14.4403 77.7528 14.0497 77.5 13.5469C77.25 13.0412 77.125 12.4489 77.125 11.7699C77.125 11.0994 77.25 10.5085 77.5 9.99716C77.7528 9.4858 78.1051 9.08665 78.5568 8.79972C79.0114 8.51278 79.5426 8.36932 80.1506 8.36932C80.5199 8.36932 80.8778 8.4304 81.2244 8.55256C81.571 8.67472 81.8821 8.86648 82.1577 9.12784C82.4332 9.3892 82.6506 9.72869 82.8097 10.1463C82.9688 10.5611 83.0483 11.0653 83.0483 11.6591V12.1108H77.8452V11.1562H81.7997C81.7997 10.821 81.7315 10.5241 81.5952 10.2656C81.4588 10.0043 81.267 9.7983 81.0199 9.64773C80.7756 9.49716 80.4886 9.42188 80.1591 9.42188C79.8011 9.42188 79.4886 9.50994 79.2216 9.68608C78.9574 9.85937 78.7528 10.0866 78.608 10.3679C78.4659 10.6463 78.3949 10.9489 78.3949 11.2756V12.0213C78.3949 12.4588 78.4716 12.831 78.625 13.1378C78.7812 13.4446 78.9986 13.679 79.277 13.8409C79.5554 14 79.8807 14.0795 80.2528 14.0795C80.4943 14.0795 80.7145 14.0455 80.9134 13.9773C81.1122 13.9062 81.2841 13.8011 81.429 13.6619C81.5739 13.5227 81.6847 13.3509 81.7614 13.1463L82.9673 13.3636C82.8707 13.7187 82.6974 14.0298 82.4474 14.2969C82.2003 14.5611 81.8892 14.767 81.5142 14.9148C81.142 15.0597 80.7173 15.1321 80.2401 15.1321Z" fill="#F04438"/>
</svg>
