<svg width="20" height="22" viewBox="0 0 20 22" fill="none" xmlns="http://www.w3.org/2000/svg">
<path fill-rule="evenodd" clip-rule="evenodd" d="M11.8292 2.86895C11.8321 2.83189 11.8335 2.79224 11.8335 2.74984C11.8335 1.73732 11.0127 0.916504 10.0002 0.916504C8.98765 0.916504 8.16684 1.73732 8.16684 2.74984C8.16684 2.79223 8.16828 2.83187 8.17111 2.86893C6.73759 3.07275 5.6439 3.53695 4.8227 4.25174C3.68445 5.24251 3.224 6.58315 2.9707 7.88375C2.84375 8.53557 2.76253 9.21428 2.68525 9.86347L2.6824 9.88739C2.60477 10.5397 2.53023 11.1659 2.41735 11.7759C2.18919 13.009 1.82114 14.0695 1.06723 14.9116C0.880897 15.1197 0.799634 15.4015 0.846495 15.6768C0.893357 15.9522 1.06323 16.1912 1.30791 16.326C2.80299 17.1495 4.54999 17.7136 6.38509 18.0293C6.39157 18.0676 6.39865 18.1057 6.40632 18.1436C6.50808 18.6465 6.71443 19.1233 7.01277 19.5425C7.34827 20.0139 7.79059 20.3993 8.30356 20.667C8.81653 20.9348 9.38558 21.0773 9.96419 21.083C10.5428 21.0887 11.1145 20.9573 11.6327 20.6997C12.1508 20.4421 12.6006 20.0655 12.9453 19.6007C13.2518 19.1874 13.4675 18.7148 13.5791 18.214C13.5927 18.1528 13.6048 18.0913 13.6153 18.0293C15.4504 17.7136 17.1974 17.1495 18.6924 16.326C18.9371 16.1912 19.107 15.9522 19.1538 15.6768C19.2007 15.4015 19.1194 15.1197 18.9331 14.9116C18.1792 14.0695 17.8111 13.009 17.583 11.7759C17.4701 11.1659 17.3955 10.5396 17.3179 9.88734L17.315 9.86345C17.2377 9.21427 17.1565 8.53556 17.0295 7.88374C16.7762 6.58314 16.3157 5.2425 15.1775 4.25174C14.3563 3.53697 13.2627 3.07278 11.8292 2.86895ZM11.621 18.2732C11.0819 18.3133 10.5403 18.3332 10.0002 18.3332C9.46004 18.3332 8.91846 18.3133 8.37932 18.2732C8.417 18.3445 8.45945 18.4134 8.50647 18.4795C8.67423 18.7152 8.89538 18.9079 9.15187 19.0418C9.40835 19.1756 9.69288 19.2469 9.98218 19.2497C10.2715 19.2526 10.5574 19.1869 10.8164 19.0581C11.0755 18.9293 11.3004 18.741 11.4727 18.5086C11.5282 18.4338 11.5778 18.3551 11.621 18.2732ZM10.0002 16.4998C7.54094 16.4998 5.11669 16.0509 3.13581 15.1838C3.72806 14.206 4.02981 13.1378 4.22008 12.1095C4.34386 11.4406 4.42442 10.7635 4.49992 10.129L4.50573 10.0802C4.58433 9.4199 4.65837 8.80851 4.77022 8.23423C4.99451 7.08262 5.34576 6.22702 6.02638 5.6346C6.70495 5.04395 7.86529 4.58317 10.0001 4.58317C12.1349 4.58317 13.2952 5.04395 13.9738 5.6346C14.6545 6.22703 15.0057 7.08263 15.23 8.23424C15.3419 8.80853 15.4159 9.41991 15.4945 10.0802L15.5004 10.129C15.5759 10.7635 15.6564 11.4406 15.7802 12.1095C15.9705 13.1378 16.2723 14.206 16.8645 15.1838C14.8837 16.0509 12.4594 16.4998 10.0002 16.4998Z" fill="#9FA3A9"/>
</svg>
