<svg width="95" height="21" viewBox="0 0 95 21" fill="none" xmlns="http://www.w3.org/2000/svg">
<path d="M0.613915 20H4.11942V7.44718L13.2441 20H16.0021V0.797024H12.4966V13.1179L3.34615 0.797024H0.613915V20ZM18.1727 20H22.1421L25.0806 15.6439L27.9933 20H31.937L27.0653 12.9632L31.9627 5.97796H28.019L25.0806 10.3341L22.1164 5.97796H18.1469L23.0701 12.9632L18.1727 20ZM38.8092 20.3093C39.6856 20.3093 40.4589 20.1461 41.1291 19.8196C41.8164 19.4759 42.3577 18.9776 42.7529 18.3246V20H45.9491V5.97796H42.5725V14.2004C42.5725 15.1284 42.3061 15.8673 41.7734 16.4172C41.2407 16.9499 40.562 17.2162 39.7372 17.2162C38.8951 17.2162 38.2078 16.9499 37.6751 16.4172C37.1596 15.8845 36.9018 15.1713 36.9018 14.2778V5.97796H33.5252V14.5613C33.5252 16.2797 33.9892 17.6716 34.9171 18.737C35.8622 19.7852 37.1596 20.3093 38.8092 20.3093ZM54.4235 20.3093C55.4889 20.3093 56.4169 20.1289 57.2073 19.768C57.9978 19.4072 58.6164 18.9088 59.0632 18.273C59.51 17.62 59.7333 16.8725 59.7333 16.0305C59.7333 15.051 59.424 14.209 58.8054 13.5045C58.1868 12.8 57.2932 12.2844 56.1247 11.9579L53.8822 11.2878C53.4011 11.1503 53.0059 10.9699 52.6965 10.7465C52.3872 10.5231 52.2326 10.2138 52.2326 9.81856C52.2326 9.40614 52.3958 9.07106 52.7223 8.8133C53.0488 8.55554 53.4956 8.42666 54.0627 8.42666C54.7672 8.42666 55.403 8.61569 55.9701 8.99373C56.5543 9.37178 56.9581 9.8787 57.1815 10.5145L59.7591 9.30304C59.3295 8.1689 58.6078 7.28394 57.594 6.64813C56.5801 5.99515 55.4116 5.66865 54.0884 5.66865C53.0746 5.66865 52.1724 5.84908 51.382 6.20994C50.6087 6.57081 49.9987 7.07773 49.5519 7.73072C49.1223 8.36652 48.9075 9.11402 48.9075 9.97321C48.9075 10.9355 49.2082 11.7689 49.8097 12.4735C50.4283 13.178 51.3304 13.7021 52.5161 14.0458L54.8102 14.6902C55.2569 14.8105 55.635 14.9909 55.9443 15.2315C56.2708 15.4549 56.434 15.7642 56.434 16.1594C56.434 16.6234 56.245 16.9928 55.867 17.2678C55.5061 17.5255 55.025 17.6544 54.4235 17.6544C53.6331 17.6544 52.9199 17.431 52.2841 16.9842C51.6483 16.5375 51.1414 15.9188 50.7634 15.1284L48.2373 16.3398C48.6497 17.5427 49.4058 18.505 50.5056 19.2267C51.6226 19.9484 52.9285 20.3093 54.4235 20.3093ZM62.6118 20H66.1173V12.9117H69.4166L73.3861 20H77.3555L72.9479 12.293C74.0133 11.8463 74.8553 11.1589 75.4739 10.231C76.1097 9.30304 76.4276 8.1775 76.4276 6.85434C76.4276 5.54836 76.1441 4.4486 75.577 3.55504C75.0099 2.66147 74.2195 1.98271 73.2056 1.51875C72.209 1.0376 71.0576 0.797024 69.7517 0.797024H62.6118V20ZM66.1173 9.81856V3.89012H69.8032C70.7483 3.89012 71.5044 4.15647 72.0715 4.68917C72.6386 5.22187 72.9221 5.94359 72.9221 6.85434C72.9221 7.7479 72.6386 8.46962 72.0715 9.01951C71.5044 9.55221 70.7483 9.81856 69.8032 9.81856H66.1173ZM78.0807 20H82.1017L86.3289 13.5045L90.5304 20H94.5514L88.2879 10.3341L94.4999 0.797024H90.4788L86.3289 7.18942L82.1533 0.797024H78.1322L84.37 10.3341L78.0807 20Z" fill="white"/>
</svg>
