<svg width="142" height="36" viewBox="0 0 142 36" fill="none" xmlns="http://www.w3.org/2000/svg">
<path d="M46.6139 27H50.1194V14.4472L59.2441 27H62.0021V7.79702H58.4966V20.1179L49.3461 7.79702H46.6139V27ZM64.1727 27H68.1421L71.0806 22.6439L73.9933 27H77.937L73.0653 19.9632L77.9627 12.978H74.019L71.0806 17.3341L68.1164 12.978H64.1469L69.0701 19.9632L64.1727 27ZM84.8092 27.3093C85.6856 27.3093 86.4589 27.1461 87.1291 26.8196C87.8164 26.4759 88.3577 25.9776 88.7529 25.3246V27H91.9491V12.978H88.5725V21.2004C88.5725 22.1284 88.3061 22.8673 87.7734 23.4172C87.2407 23.9499 86.562 24.2162 85.7372 24.2162C84.8951 24.2162 84.2078 23.9499 83.6751 23.4172C83.1596 22.8845 82.9018 22.1713 82.9018 21.2778V12.978H79.5252V21.5613C79.5252 23.2797 79.9892 24.6716 80.9171 25.737C81.8622 26.7852 83.1596 27.3093 84.8092 27.3093ZM100.424 27.3093C101.489 27.3093 102.417 27.1289 103.207 26.768C103.998 26.4072 104.616 25.9088 105.063 25.273C105.51 24.62 105.733 23.8725 105.733 23.0305C105.733 22.051 105.424 21.209 104.805 20.5045C104.187 19.8 103.293 19.2844 102.125 18.9579L99.8822 18.2878C99.4011 18.1503 99.0059 17.9699 98.6965 17.7465C98.3872 17.5231 98.2326 17.2138 98.2326 16.8186C98.2326 16.4061 98.3958 16.0711 98.7223 15.8133C99.0488 15.5555 99.4956 15.4267 100.063 15.4267C100.767 15.4267 101.403 15.6157 101.97 15.9937C102.554 16.3718 102.958 16.8787 103.182 17.5145L105.759 16.303C105.33 15.1689 104.608 14.2839 103.594 13.6481C102.58 12.9951 101.412 12.6687 100.088 12.6687C99.0746 12.6687 98.1724 12.8491 97.382 13.2099C96.6087 13.5708 95.9987 14.0777 95.5519 14.7307C95.1223 15.3665 94.9075 16.114 94.9075 16.9732C94.9075 17.9355 95.2082 18.7689 95.8097 19.4735C96.4283 20.178 97.3304 20.7021 98.5161 21.0458L100.81 21.6902C101.257 21.8105 101.635 21.9909 101.944 22.2315C102.271 22.4549 102.434 22.7642 102.434 23.1594C102.434 23.6234 102.245 23.9928 101.867 24.2678C101.506 24.5255 101.025 24.6544 100.424 24.6544C99.6331 24.6544 98.9199 24.431 98.2841 23.9842C97.6483 23.5375 97.1414 22.9188 96.7634 22.1284L94.2373 23.3398C94.6497 24.5427 95.4058 25.505 96.5056 26.2267C97.6226 26.9484 98.9285 27.3093 100.424 27.3093ZM108.612 27H112.117V19.9117H115.417L119.386 27H123.356L118.948 19.293C120.013 18.8463 120.855 18.1589 121.474 17.231C122.11 16.303 122.428 15.1775 122.428 13.8543C122.428 12.5484 122.144 11.4486 121.577 10.555C121.01 9.66147 120.219 8.98271 119.206 8.51875C118.209 8.0376 117.058 7.79702 115.752 7.79702H108.612V27ZM112.117 16.8186V10.8901H115.803C116.748 10.8901 117.504 11.1565 118.071 11.6892C118.639 12.2219 118.922 12.9436 118.922 13.8543C118.922 14.7479 118.639 15.4696 118.071 16.0195C117.504 16.5522 116.748 16.8186 115.803 16.8186H112.117ZM124.081 27H128.102L132.329 20.5045L136.53 27H140.551L134.288 17.3341L140.5 7.79702H136.479L132.329 14.1894L128.153 7.79702H124.132L130.37 17.3341L124.081 27Z" fill="white"/>
<circle cx="17.5" cy="18.5" r="17.5" fill="white"/>
<path fill-rule="evenodd" clip-rule="evenodd" d="M10.0353 17.6688V15.8129H14.7035H15.5925L15.5806 14.9241L15.5251 10.7568H18.4626V14.9358V15.8129H19.3397H23.5957C23.9845 16.5622 24.7662 17.0739 25.6673 17.0739C26.9559 17.0739 28.0006 16.0271 28.0006 14.7359C28.0006 13.4447 26.9559 12.398 25.6673 12.398C24.6137 12.398 23.7232 13.0977 23.4333 14.0586H20.2169V9.8796V9.00244H19.3397H14.6362H13.7472L13.7591 9.89129L13.8146 14.0586H9.15817H8.28101V14.9358V17.6688H10.0353Z" fill="#325C5D"/>
<path fill-rule="evenodd" clip-rule="evenodd" d="M23.8619 19.3369V21.2312L19.2498 21.2311L18.3726 21.2311V22.1083V26.2418H15.5817V22.1538V21.2767H14.7045H11.6191C11.401 20.212 10.4605 19.4112 9.33336 19.4112C8.04468 19.4112 7 20.4579 7 21.7491C7 23.0403 8.04468 24.0871 9.33336 24.0871C10.1497 24.0871 10.868 23.6671 11.285 23.031H13.8273V27.1189V27.9961H14.7045H19.2498H20.127V27.1189V22.9855L24.7391 22.9855L25.6162 22.9855V22.1084V19.3369H23.8619Z" fill="#4BAA5E"/>
</svg>
