<svg width="22" height="22" viewBox="0 0 22 22" fill="none" xmlns="http://www.w3.org/2000/svg">
<path fill-rule="evenodd" clip-rule="evenodd" d="M15.5833 11C15.5833 13.5313 13.5313 15.5833 11 15.5833C8.46869 15.5833 6.41667 13.5313 6.41667 11C6.41667 8.46869 8.46869 6.41667 11 6.41667C13.5313 6.41667 15.5833 8.46869 15.5833 11ZM13.75 11C13.75 12.5188 12.5188 13.75 11 13.75C9.48122 13.75 8.25 12.5188 8.25 11C8.25 9.48122 9.48122 8.25 11 8.25C12.5188 8.25 13.75 9.48122 13.75 11Z" fill="#9FA3A9"/>
<path fill-rule="evenodd" clip-rule="evenodd" d="M22 11C22 13.2917 17.0751 19.25 11 19.25C4.92487 19.25 0 13.75 0 11C0 8.25 4.92487 2.75 11 2.75C17.0751 2.75 22 8.70833 22 11ZM20.1663 10.999L20.1664 11L20.1663 11.001C20.1641 11.0191 20.1503 11.1328 20.0647 11.3562C19.9703 11.6023 19.8144 11.9146 19.5857 12.2765C19.1279 13.001 18.4368 13.832 17.5576 14.6164C15.7767 16.2054 13.4429 17.4167 11 17.4167C8.51324 17.4167 6.17242 16.2817 4.41996 14.7686C3.55093 14.0182 2.87291 13.2132 2.42477 12.4867C1.95145 11.7194 1.83333 11.2031 1.83333 11C1.83333 10.7969 1.95145 10.2806 2.42477 9.51331C2.87291 8.78685 3.55093 7.98175 4.41996 7.2314C6.17242 5.71828 8.51324 4.58333 11 4.58333C13.4429 4.58333 15.7767 5.79464 17.5576 7.38362C18.4368 8.16802 19.1279 8.99902 19.5857 9.7235C19.8144 10.0854 19.9703 10.3977 20.0647 10.6438C20.1503 10.8672 20.1641 10.9809 20.1663 10.999Z" fill="#9FA3A9"/>
</svg>
