<svg width="16" height="16" viewBox="0 0 16 16" fill="none" xmlns="http://www.w3.org/2000/svg">
<path d="M11.3333 8.6666C11.7015 8.6666 12 8.36813 12 7.99994C12 7.63175 11.7015 7.33327 11.3333 7.33327L4.66667 7.33327C4.29848 7.33327 4 7.63175 4 7.99994C4 8.36813 4.29848 8.6666 4.66667 8.6666H11.3333Z" fill="#9FA3A9"/>
<path fill-rule="evenodd" clip-rule="evenodd" d="M16 8C16 12.4183 12.4183 16 8 16C3.58172 16 0 12.4183 0 8C0 3.58172 3.58172 0 8 0C12.4183 0 16 3.58172 16 8ZM14.6667 8C14.6667 11.6819 11.6819 14.6667 8 14.6667C4.3181 14.6667 1.33333 11.6819 1.33333 8C1.33333 4.3181 4.3181 1.33333 8 1.33333C11.6819 1.33333 14.6667 4.3181 14.6667 8Z" fill="#9FA3A9"/>
</svg>
