<svg width="32" height="32" viewBox="0 0 32 32" fill="none" xmlns="http://www.w3.org/2000/svg">
<path d="M16.0003 25.3333V22.6666H20.0003L24.7337 16L20.0003 9.33329H6.66699V13.3333H4.00033V9.33329C4.00033 8.59996 4.26121 7.9724 4.78299 7.45063C5.30566 6.92796 5.93366 6.66663 6.66699 6.66663H20.0003C20.4448 6.66663 20.8617 6.76663 21.251 6.96663C21.6394 7.16663 21.9559 7.4444 22.2003 7.79996L28.0003 16L22.2003 24.2C21.9559 24.5555 21.6394 24.8333 21.251 25.0333C20.8617 25.2333 20.4448 25.3333 20.0003 25.3333H16.0003ZM6.66699 26.6666V22.6666H2.66699V20H6.66699V16H9.33366V20H13.3337V22.6666H9.33366V26.6666H6.66699Z" fill="#7366FF"/>
</svg>
