<svg width="12" height="12" viewBox="0 0 12 12" fill="none" xmlns="http://www.w3.org/2000/svg">
<path fill-rule="evenodd" clip-rule="evenodd" d="M9.32923 0.337358C9.10142 0.109552 8.73207 0.109552 8.50427 0.337358L0.337602 8.50402C0.228206 8.61342 0.166748 8.76179 0.166748 8.9165V11.2498C0.166748 11.572 0.427915 11.8332 0.750081 11.8332H3.08341C3.23812 11.8332 3.3865 11.7717 3.49589 11.6623L11.6626 3.49565C11.8904 3.26784 11.8904 2.8985 11.6626 2.67069L9.32923 0.337358ZM9.50008 4.00821L7.99171 2.49984L8.91675 1.5748L10.4251 3.08317L9.50008 4.00821ZM7.16675 3.32479L8.67512 4.83317L3.66675 9.84155L2.15837 8.33317L7.16675 3.32479ZM1.33341 9.15813L2.84179 10.6665H1.33341V9.15813Z" fill="#1E1E1E"/>
<path d="M6.58341 10.6665C6.26125 10.6665 6.00008 10.9277 6.00008 11.2498C6.00008 11.572 6.26125 11.8332 6.58341 11.8332H11.2501C11.5722 11.8332 11.8334 11.572 11.8334 11.2498C11.8334 10.9277 11.5722 10.6665 11.2501 10.6665H6.58341Z" fill="#1E1E1E"/>
</svg>
