<svg width="16" height="12" viewBox="0 0 16 12" fill="none" xmlns="http://www.w3.org/2000/svg">
<path d="M8 4.6666C8 5.03479 7.70152 5.33327 7.33333 5.33327H6.66667V6C6.66667 6.36819 6.36819 6.66667 6 6.66667C5.63181 6.66667 5.33333 6.36819 5.33333 6V5.33327H4.66667C4.29848 5.33327 4 5.03479 4 4.6666C4 4.29842 4.29848 3.99994 4.66667 3.99994H5.33333V3.33333C5.33333 2.96514 5.63181 2.66667 6 2.66667C6.36819 2.66667 6.66667 2.96514 6.66667 3.33333V3.99994H7.33333C7.70152 3.99994 8 4.29841 8 4.6666Z" fill="#9FA3A9"/>
<path fill-rule="evenodd" clip-rule="evenodd" d="M0 2C0 0.895431 0.895431 0 2 0H12.4541C13.2542 0 13.9773 0.476795 14.2924 1.21216L15.9461 5.07072C15.9817 5.15371 16 5.24305 16 5.33333V10C16 10.3682 15.7015 10.6667 15.3333 10.6667H13.8862C13.6116 11.4435 12.8708 12 12 12C11.1258 12 10.3826 11.4391 10.1106 10.6575C10.0746 10.6635 10.0377 10.6667 10 10.6667H5.8862C5.61164 11.4435 4.87081 12 4 12C3.12919 12 2.38836 11.4435 2.1138 10.6667H0.666667C0.298477 10.6667 0 10.3682 0 10V2ZM2.1138 9.33333C2.38836 8.55654 3.12919 8 4 8C4.87081 8 5.61164 8.55654 5.8862 9.33333H10C10.0377 9.33333 10.0746 9.33646 10.1106 9.34247C10.3826 8.56091 11.1258 8 12 8C12.8708 8 13.6116 8.55654 13.8862 9.33333H14.6667V6H12C10.8954 6 10 5.10457 10 4V1.33333H2C1.63181 1.33333 1.33333 1.63181 1.33333 2V9.33333H2.1138ZM12.4541 1.33333H11.3333V4C11.3333 4.36819 11.6318 4.66667 12 4.66667H14.3223L13.0669 1.73739C12.9618 1.49226 12.7208 1.33333 12.4541 1.33333ZM4 9.33333C3.63181 9.33333 3.33333 9.63181 3.33333 10C3.33333 10.3682 3.63181 10.6667 4 10.6667C4.36819 10.6667 4.66667 10.3682 4.66667 10C4.66667 9.63181 4.36819 9.33333 4 9.33333ZM12 9.33333C11.6318 9.33333 11.3333 9.63181 11.3333 10C11.3333 10.3682 11.6318 10.6667 12 10.6667C12.3682 10.6667 12.6667 10.3682 12.6667 10C12.6667 9.63181 12.3682 9.33333 12 9.33333Z" fill="#9FA3A9"/>
</svg>
