<svg width="15" height="15" viewBox="0 0 15 15" fill="none" xmlns="http://www.w3.org/2000/svg">
<path fill-rule="evenodd" clip-rule="evenodd" d="M11.2192 12.4952C10.0699 13.4356 8.60088 13.9998 7.00004 13.9998C3.31814 13.9998 0.333374 11.0151 0.333374 7.33317C0.333374 3.65127 3.31814 0.666504 7.00004 0.666504C10.6819 0.666504 13.6667 3.65127 13.6667 7.33317C13.6667 8.93403 13.1025 10.4031 12.162 11.5523L14.1381 13.5285C14.3985 13.7888 14.3985 14.2109 14.1381 14.4713C13.8778 14.7316 13.4557 14.7316 13.1953 14.4713L11.2192 12.4952ZM12.3334 7.33317C12.3334 10.2787 9.94556 12.6665 7.00004 12.6665C4.05452 12.6665 1.66671 10.2787 1.66671 7.33317C1.66671 4.38765 4.05452 1.99984 7.00004 1.99984C9.94556 1.99984 12.3334 4.38765 12.3334 7.33317Z" fill="#9FA3A9"/>
</svg>
