<svg width="20" height="20" viewBox="0 0 20 20" fill="none" xmlns="http://www.w3.org/2000/svg">
<path d="M8.3335 4.16683C7.87326 4.16683 7.50016 4.53993 7.50016 5.00016C7.50016 5.4604 7.87326 5.8335 8.3335 5.8335H15.0002C15.4604 5.8335 15.8335 5.4604 15.8335 5.00016C15.8335 4.53993 15.4604 4.16683 15.0002 4.16683H8.3335Z" fill="#F3F3F4"/>
<path d="M15.0002 9.16683L8.3335 9.16683C7.87326 9.16683 7.50016 8.79373 7.50016 8.3335C7.50016 7.87326 7.87326 7.50016 8.3335 7.50016L15.0002 7.50016C15.4604 7.50016 15.8335 7.87326 15.8335 8.3335C15.8335 8.79373 15.4604 9.16683 15.0002 9.16683Z" fill="#F3F3F4"/>
<path d="M8.3335 10.8335C7.87326 10.8335 7.50016 11.2066 7.50016 11.6668C7.50016 12.1271 7.87326 12.5002 8.3335 12.5002H10.8335C11.2937 12.5002 11.6668 12.1271 11.6668 11.6668C11.6668 11.2066 11.2937 10.8335 10.8335 10.8335H8.3335Z" fill="#F3F3F4"/>
<path fill-rule="evenodd" clip-rule="evenodd" d="M4.16683 16.6668V10.8335H3.3335C1.95278 10.8335 0.833496 9.71421 0.833496 8.3335V3.3335C0.833496 1.95278 1.95278 0.833496 3.3335 0.833496H16.6668C18.0475 0.833496 19.1668 1.95278 19.1668 3.3335V16.6668C19.1668 18.0475 18.0475 19.1668 16.6668 19.1668H6.66683C5.28612 19.1668 4.16683 18.0475 4.16683 16.6668ZM2.50016 3.3335C2.50016 2.87326 2.87326 2.50016 3.3335 2.50016C3.79373 2.50016 4.16683 2.87326 4.16683 3.3335V9.16683H3.3335C2.87326 9.16683 2.50016 8.79373 2.50016 8.3335V3.3335ZM5.8335 3.3335C5.8335 3.0413 5.78337 2.76081 5.69124 2.50016H16.6668C17.1271 2.50016 17.5002 2.87326 17.5002 3.3335V16.6668C17.5002 17.1271 17.1271 17.5002 16.6668 17.5002H6.66683C6.20659 17.5002 5.8335 17.1271 5.8335 16.6668V3.3335Z" fill="#F3F3F4"/>
</svg>
