<svg width="18" height="19" viewBox="0 0 18 19" fill="none" xmlns="http://www.w3.org/2000/svg">
<path fill-rule="evenodd" clip-rule="evenodd" d="M14.0001 5.8335C14.0001 8.59492 11.7615 10.8335 9.00008 10.8335C6.23866 10.8335 4.00008 8.59492 4.00008 5.8335C4.00008 3.07207 6.23866 0.833496 9.00008 0.833496C11.7615 0.833496 14.0001 3.07207 14.0001 5.8335ZM12.3334 5.8335C12.3334 7.67445 10.841 9.16683 9.00008 9.16683C7.15913 9.16683 5.66675 7.67445 5.66675 5.8335C5.66675 3.99255 7.15913 2.50016 9.00008 2.50016C10.841 2.50016 12.3334 3.99255 12.3334 5.8335Z" fill="#F3F3F4"/>
<path fill-rule="evenodd" clip-rule="evenodd" d="M9.00014 11.6668C6.5542 11.6668 4.79066 12.1742 3.52562 12.9349C2.25552 13.6987 1.54214 14.6855 1.14819 15.5486C0.816121 16.2761 0.967259 17.0175 1.40845 17.5456C1.82901 18.0491 2.48291 18.3335 3.16679 18.3335H14.8334C15.5173 18.3335 16.1712 18.0491 16.5917 17.5457C17.0329 17.0175 17.1841 16.2761 16.852 15.5486C16.4581 14.6856 15.7448 13.6988 14.4747 12.935C13.2096 12.1742 11.4461 11.6668 9.00014 11.6668ZM2.66437 16.2407C2.93784 15.6416 3.44016 14.9311 4.38454 14.3632C5.33396 13.7923 6.78365 13.3335 9.00014 13.3335C11.2167 13.3335 12.6663 13.7923 13.6157 14.3632C14.5601 14.9312 15.0624 15.6416 15.3358 16.2407C15.3681 16.3114 15.3667 16.3539 15.3635 16.3757C15.3598 16.4004 15.3476 16.4353 15.3126 16.4772C15.2375 16.5671 15.07 16.6668 14.8334 16.6668H3.16679C2.93018 16.6668 2.76272 16.5671 2.68758 16.4772C2.6526 16.4353 2.64043 16.4004 2.63673 16.3757C2.63349 16.3539 2.63208 16.3114 2.66437 16.2407Z" fill="#F3F3F4"/>
</svg>
