<svg width="18" height="20" viewBox="0 0 18 20" fill="none" xmlns="http://www.w3.org/2000/svg">
<path fill-rule="evenodd" clip-rule="evenodd" d="M5.6665 4.16683C5.20627 4.16683 4.83317 4.53993 4.83317 5.00016V8.3335C4.83317 8.79373 5.20627 9.16683 5.6665 9.16683H9.83317C10.2934 9.16683 10.6665 8.79373 10.6665 8.3335V5.00016C10.6665 4.53993 10.2934 4.16683 9.83317 4.16683H5.6665ZM6.49984 7.50016V5.8335H8.99984V7.50016H6.49984Z" fill="#F3F3F4"/>
<path d="M4.83317 11.6668C4.83317 11.2066 5.20627 10.8335 5.6665 10.8335H12.3332C12.7934 10.8335 13.1665 11.2066 13.1665 11.6668C13.1665 12.1271 12.7934 12.5002 12.3332 12.5002H5.6665C5.20627 12.5002 4.83317 12.1271 4.83317 11.6668Z" fill="#F3F3F4"/>
<path d="M5.6665 14.1668C5.20627 14.1668 4.83317 14.5399 4.83317 15.0002C4.83317 15.4604 5.20627 15.8335 5.6665 15.8335H12.3332C12.7934 15.8335 13.1665 15.4604 13.1665 15.0002C13.1665 14.5399 12.7934 14.1668 12.3332 14.1668H5.6665Z" fill="#F3F3F4"/>
<path fill-rule="evenodd" clip-rule="evenodd" d="M3.1665 0.833496C1.78579 0.833496 0.666504 1.95278 0.666504 3.3335V16.6668C0.666504 18.0475 1.78579 19.1668 3.1665 19.1668H14.8332C16.2139 19.1668 17.3332 18.0475 17.3332 16.6668V3.3335C17.3332 1.95278 16.2139 0.833496 14.8332 0.833496H3.1665ZM2.33317 3.3335C2.33317 2.87326 2.70627 2.50016 3.1665 2.50016H14.8332C15.2934 2.50016 15.6665 2.87326 15.6665 3.3335V16.6668C15.6665 17.1271 15.2934 17.5002 14.8332 17.5002H3.1665C2.70627 17.5002 2.33317 17.1271 2.33317 16.6668V3.3335Z" fill="#F3F3F4"/>
</svg>
