<svg width="20" height="20" viewBox="0 0 20 20" fill="none" xmlns="http://www.w3.org/2000/svg">
<path fill-rule="evenodd" clip-rule="evenodd" d="M3.68454 0.98724C3.82547 0.887224 3.99401 0.833496 4.16683 0.833496H15.8335C16.0063 0.833496 16.1748 0.887224 16.3158 0.98724C16.9411 1.43102 17.6288 1.9994 18.1687 2.64703C18.6965 3.28027 19.1668 4.08985 19.1668 5.00016C19.1668 6.16364 18.5838 7.2634 17.5002 7.86754V15.0002H18.3335C18.7937 15.0002 19.1668 15.3733 19.1668 15.8335V18.3335C19.1668 18.7937 18.7937 19.1668 18.3335 19.1668H1.66683C1.20659 19.1668 0.833496 18.7937 0.833496 18.3335V15.8335C0.833496 15.3733 1.20659 15.0002 1.66683 15.0002H2.50016V7.9331C1.36909 7.32251 0.833496 6.12359 0.833496 5.00016C0.833496 4.08985 1.30378 3.28027 1.83164 2.64703C2.3715 1.9994 3.05921 1.43102 3.68454 0.98724ZM4.16683 8.3335L4.16683 15.0002H6.66683V12.5002C6.66683 11.6976 6.93341 10.8678 7.50232 10.2278C8.08486 9.57241 8.9407 9.16683 10.0002 9.16683C11.0596 9.16683 11.9155 9.57241 12.498 10.2278C13.0669 10.8678 13.3335 11.6976 13.3335 12.5002V15.0002H15.8335V8.33526C14.6886 8.39944 13.7714 7.84188 13.1912 7.35279C13.1067 7.28155 13.0274 7.21012 12.9533 7.13994C12.903 7.18956 12.8497 7.23961 12.7934 7.28967C12.2048 7.81285 11.2858 8.3335 10.0002 8.3335C8.7145 8.3335 7.79552 7.81285 7.20694 7.28967C7.13922 7.22947 7.07586 7.16927 7.01674 7.10984C6.94014 7.178 6.85804 7.24772 6.77074 7.31755C6.18497 7.78617 5.27352 8.3335 4.16683 8.3335ZM6.41845 5.33134C6.41871 5.331 6.41878 5.33092 6.41845 5.33134V5.33134ZM6.28513 5.48923C6.2851 5.48938 6.28515 5.48907 6.28513 5.48923C6.30311 5.37732 6.32801 5.2431 6.35697 5.09586C6.415 4.8008 6.49464 4.42666 6.58121 4.02323C6.59625 3.95317 6.6115 3.88217 6.62691 3.81044C6.71827 3.38527 6.81515 2.93435 6.90453 2.50016H4.43759C3.94854 2.8643 3.4733 3.28059 3.11185 3.71419C2.68643 4.22454 2.50016 4.66047 2.50016 5.00016C2.50016 5.7381 2.89043 6.37443 3.57747 6.58479C3.74287 6.63543 3.93799 6.66683 4.16683 6.66683C4.7268 6.66683 5.27369 6.38082 5.72958 6.01611C5.94901 5.84056 6.1262 5.66351 6.24785 5.53081C6.26096 5.51651 6.27344 5.50231 6.28513 5.48923ZM8.60525 2.50016C8.49589 3.04608 8.37051 3.6295 8.25723 4.15669C8.24149 4.22994 8.22598 4.3021 8.21078 4.37293C8.12374 4.77852 8.04713 5.13876 7.99231 5.41749C7.9754 5.50349 7.96106 5.5792 7.94939 5.64428C8.03145 5.75604 8.1522 5.89998 8.31422 6.04399C8.66314 6.35414 9.20249 6.66683 10.0002 6.66683C10.7978 6.66683 11.3372 6.35414 11.6861 6.04399C11.8372 5.90971 11.9524 5.77549 12.0338 5.66737L11.4003 2.50016H8.60525ZM13.1 2.50016L13.6978 5.48916C13.7185 5.51563 13.7427 5.54574 13.7702 5.57872C13.8861 5.7178 14.0549 5.90101 14.2655 6.0785C14.7019 6.44639 15.2201 6.71075 15.7708 6.66919C16.0073 6.65134 16.2135 6.60681 16.3916 6.54449C17.1261 6.28744 17.5002 5.68178 17.5002 5.00016C17.5002 4.66047 17.3139 4.22454 16.8885 3.71419C16.527 3.28059 16.0518 2.8643 15.5627 2.50016H13.1ZM17.5002 16.6668H2.50016V17.5002H17.5002V16.6668ZM11.6668 15.0002V12.5002C11.6668 12.0527 11.5167 11.6325 11.2523 11.335C11.0015 11.0529 10.6074 10.8335 10.0002 10.8335C9.39296 10.8335 8.99879 11.0529 8.748 11.335C8.48358 11.6325 8.3335 12.0527 8.3335 12.5002V15.0002H11.6668Z" fill="#F3F3F4"/>
</svg>
