<svg width="18" height="18" viewBox="0 0 18 18" fill="none" xmlns="http://www.w3.org/2000/svg">
<path fill-rule="evenodd" clip-rule="evenodd" d="M15.3512 1.25567C14.3748 0.279361 12.7919 0.279358 11.8156 1.25567L10.4226 2.64865C9.44633 3.62496 9.44633 5.20787 10.4226 6.18418L11.8156 7.57716C12.7919 8.55347 14.3748 8.55347 15.3511 7.57716L16.7441 6.18418C17.7204 5.20787 17.7204 3.62496 16.7441 2.64865L15.3512 1.25567ZM12.9941 2.43418C13.3196 2.10875 13.8472 2.10874 14.1726 2.43418L15.5656 3.82716C15.8911 4.1526 15.8911 4.68023 15.5656 5.00567L14.1726 6.39865C13.8472 6.72409 13.3196 6.72409 12.9941 6.39865L11.6011 5.00567C11.2757 4.68023 11.2757 4.1526 11.6012 3.82716L12.9941 2.43418Z" fill="#F3F3F4"/>
<path fill-rule="evenodd" clip-rule="evenodd" d="M3.16675 0.666493C1.78604 0.666493 0.666748 1.78578 0.666748 3.16649V5.66649C0.666748 7.0472 1.78604 8.16649 3.16675 8.16649H5.66675C7.04746 8.16649 8.16675 7.04721 8.16675 5.66649V3.16649C8.16675 1.78578 7.04746 0.666493 5.66675 0.666493H3.16675ZM2.33341 3.16649C2.33341 2.70626 2.70651 2.33316 3.16675 2.33316H5.66675C6.12699 2.33316 6.50008 2.70626 6.50008 3.16649V5.66649C6.50008 6.12673 6.12699 6.49983 5.66675 6.49983H3.16675C2.70651 6.49983 2.33341 6.12673 2.33341 5.66649V3.16649Z" fill="#F3F3F4"/>
<path fill-rule="evenodd" clip-rule="evenodd" d="M0.666748 12.3332C0.666748 10.9524 1.78604 9.83316 3.16675 9.83316H5.66675C7.04746 9.83316 8.16675 10.9524 8.16675 12.3332V14.8332C8.16675 16.2139 7.04746 17.3332 5.66675 17.3332H3.16675C1.78604 17.3332 0.666748 16.2139 0.666748 14.8332V12.3332ZM3.16675 11.4998C2.70651 11.4998 2.33341 11.8729 2.33341 12.3332V14.8332C2.33341 15.2934 2.70651 15.6665 3.16675 15.6665H5.66675C6.12699 15.6665 6.50008 15.2934 6.50008 14.8332V12.3332C6.50008 11.8729 6.12699 11.4998 5.66675 11.4998H3.16675Z" fill="#F3F3F4"/>
<path fill-rule="evenodd" clip-rule="evenodd" d="M12.3334 9.83316C10.9527 9.83316 9.83342 10.9524 9.83342 12.3332V14.8332C9.83342 16.2139 10.9527 17.3332 12.3334 17.3332H14.8334C16.2141 17.3332 17.3334 16.2139 17.3334 14.8332V12.3332C17.3334 10.9524 16.2141 9.83316 14.8334 9.83316H12.3334ZM11.5001 12.3332C11.5001 11.8729 11.8732 11.4998 12.3334 11.4998H14.8334C15.2937 11.4998 15.6667 11.8729 15.6667 12.3332V14.8332C15.6667 15.2934 15.2937 15.6665 14.8334 15.6665H12.3334C11.8732 15.6665 11.5001 15.2934 11.5001 14.8332V12.3332Z" fill="#F3F3F4"/>
</svg>
