<svg width="20" height="20" viewBox="0 0 20 20" fill="none" xmlns="http://www.w3.org/2000/svg">
<path fill-rule="evenodd" clip-rule="evenodd" d="M7.50016 1.66683C7.50016 1.20659 7.87326 0.833496 8.3335 0.833496H11.6668C12.1271 0.833496 12.5002 1.20659 12.5002 1.66683V18.3335C12.5002 18.7937 12.1271 19.1668 11.6668 19.1668H8.3335C7.87326 19.1668 7.50016 18.7937 7.50016 18.3335V1.66683ZM9.16683 2.50016V17.5002H10.8335V2.50016H9.16683Z" fill="#F3F3F4"/>
<path fill-rule="evenodd" clip-rule="evenodd" d="M14.1668 7.50016C14.1668 7.03992 14.5399 6.66683 15.0002 6.66683H18.3335C18.7937 6.66683 19.1668 7.03992 19.1668 7.50016V18.3335C19.1668 18.7937 18.7937 19.1668 18.3335 19.1668H15.0002C14.5399 19.1668 14.1668 18.7937 14.1668 18.3335V7.50016ZM15.8335 8.3335V17.5002H17.5002V8.3335H15.8335Z" fill="#F3F3F4"/>
<path fill-rule="evenodd" clip-rule="evenodd" d="M0.833496 10.8335C0.833496 10.3733 1.20659 10.0002 1.66683 10.0002H5.00016C5.4604 10.0002 5.8335 10.3733 5.8335 10.8335V18.3335C5.8335 18.7937 5.4604 19.1668 5.00016 19.1668H1.66683C1.20659 19.1668 0.833496 18.7937 0.833496 18.3335V10.8335ZM2.50016 11.6668V17.5002H4.16683V11.6668H2.50016Z" fill="#F3F3F4"/>
</svg>
