<svg width="18" height="19" viewBox="0 0 18 19" fill="none" xmlns="http://www.w3.org/2000/svg">
<path fill-rule="evenodd" clip-rule="evenodd" d="M16.5002 5.8335C16.5002 8.59492 14.2616 10.8335 11.5002 10.8335C8.73875 10.8335 6.50017 8.59492 6.50017 5.8335C6.50017 3.07207 8.73875 0.833496 11.5002 0.833496C14.2616 0.833496 16.5002 3.07207 16.5002 5.8335ZM14.8335 5.8335C14.8335 7.67444 13.3411 9.16683 11.5002 9.16683C9.65922 9.16683 8.16684 7.67444 8.16684 5.8335C8.16684 3.99255 9.65922 2.50016 11.5002 2.50016C13.3411 2.50016 14.8335 3.99255 14.8335 5.8335Z" fill="#F3F3F4"/>
<path d="M5.83262 2.56668C6.28365 2.47512 6.57507 2.03526 6.48352 1.58422C6.39196 1.13319 5.9521 0.841767 5.50106 0.933323C3.21847 1.39666 1.50017 3.41339 1.50017 5.83332C1.50017 8.25325 3.21847 10.27 5.50106 10.7333C5.9521 10.8249 6.39196 10.5335 6.48352 10.0824C6.57507 9.63137 6.28365 9.19151 5.83262 9.09996C4.31147 8.79118 3.16684 7.44499 3.16684 5.83332C3.16684 4.22165 4.31147 2.87545 5.83262 2.56668Z" fill="#F3F3F4"/>
<path fill-rule="evenodd" clip-rule="evenodd" d="M7.08176 12.9781C8.10914 12.1895 9.54105 11.6668 11.5002 11.6668C13.4594 11.6668 14.8913 12.1895 15.9187 12.9781C16.9384 13.7609 17.4931 14.7543 17.7939 15.5907C18.0587 16.3268 17.8732 17.0474 17.4292 17.5581C17.0004 18.0512 16.3511 18.3335 15.6668 18.3335H7.33353C6.64925 18.3335 6 18.0512 5.57118 17.558C5.12715 17.0474 4.94164 16.3268 5.20645 15.5907C5.50731 14.7543 6.06205 13.7608 7.08176 12.9781ZM8.09659 14.3002C7.39481 14.8389 6.99888 15.5317 6.77473 16.1548C6.72796 16.2848 6.75369 16.378 6.8289 16.4645C6.91932 16.5685 7.09733 16.6668 7.33353 16.6668H15.6668C15.903 16.6668 16.081 16.5685 16.1715 16.4645C16.2467 16.378 16.2724 16.2848 16.2256 16.1548C16.0015 15.5317 15.6056 14.8389 14.9038 14.3002C14.2097 13.7674 13.1493 13.3335 11.5002 13.3335C9.8511 13.3335 8.79071 13.7674 8.09659 14.3002Z" fill="#F3F3F4"/>
<path d="M1.70928 16.0642C1.87987 15.4074 2.17265 14.7167 2.65584 14.2005C3.11508 13.7099 3.78394 13.3335 4.83351 13.3335C5.29374 13.3335 5.66684 12.9604 5.66684 12.5002C5.66684 12.0399 5.29374 11.6668 4.83351 11.6668C3.31628 11.6668 2.20895 12.2391 1.43909 13.0615C0.693186 13.8584 0.303968 14.845 0.0961251 15.6453C-0.306541 17.1957 1.01225 18.3335 2.33348 18.3335H2.9745C3.43474 18.3335 3.80783 17.9604 3.80783 17.5002C3.80783 17.0399 3.43474 16.6668 2.9745 16.6668H2.33348C2.09804 16.6668 1.91055 16.5701 1.80395 16.4523C1.70741 16.3456 1.66901 16.2193 1.70928 16.0642Z" fill="#F3F3F4"/>
</svg>
