<svg width="45" height="46" viewBox="0 0 45 46" fill="none" xmlns="http://www.w3.org/2000/svg">
<rect x="0.5" y="0.5" width="44" height="45" rx="7.5" fill="white" stroke="#E7E9ED"/>
<path d="M15.208 18.875C15.9674 18.875 16.583 18.2594 16.583 17.5C16.583 16.7406 15.9674 16.125 15.208 16.125C14.4486 16.125 13.833 16.7406 13.833 17.5C13.833 18.2594 14.4486 18.875 15.208 18.875Z" fill="#949AB1"/>
<path d="M19.333 16.5833C18.8267 16.5833 18.4163 16.9937 18.4163 17.5C18.4163 18.0063 18.8267 18.4167 19.333 18.4167L31.2497 18.4167C31.7559 18.4167 32.1663 18.0063 32.1663 17.5C32.1663 16.9937 31.7559 16.5833 31.2497 16.5833L19.333 16.5833Z" fill="#949AB1"/>
<path d="M19.333 22.0833C18.8267 22.0833 18.4163 22.4937 18.4163 23C18.4163 23.5063 18.8267 23.9167 19.333 23.9167L31.2497 23.9167C31.7559 23.9167 32.1663 23.5063 32.1663 23C32.1663 22.4937 31.7559 22.0833 31.2497 22.0833L19.333 22.0833Z" fill="#949AB1"/>
<path d="M18.4163 28.5C18.4163 27.9937 18.8267 27.5833 19.333 27.5833H31.2497C31.7559 27.5833 32.1663 27.9937 32.1663 28.5C32.1663 29.0063 31.7559 29.4167 31.2497 29.4167H19.333C18.8267 29.4167 18.4163 29.0063 18.4163 28.5Z" fill="#949AB1"/>
<path d="M16.583 23C16.583 23.7594 15.9674 24.375 15.208 24.375C14.4486 24.375 13.833 23.7594 13.833 23C13.833 22.2406 14.4486 21.625 15.208 21.625C15.9674 21.625 16.583 22.2406 16.583 23Z" fill="#949AB1"/>
<path d="M15.208 29.875C15.9674 29.875 16.583 29.2594 16.583 28.5C16.583 27.7406 15.9674 27.125 15.208 27.125C14.4486 27.125 13.833 27.7406 13.833 28.5C13.833 29.2594 14.4486 29.875 15.208 29.875Z" fill="#949AB1"/>
</svg>
