<svg width="45" height="46" viewBox="0 0 45 46" fill="none" xmlns="http://www.w3.org/2000/svg">
<rect width="45" height="46" rx="8" fill="#F6F8FA"/>
<path fill-rule="evenodd" clip-rule="evenodd" d="M17.167 14.6665C15.7863 14.6665 14.667 15.7858 14.667 17.1665V19.6665C14.667 21.0472 15.7863 22.1665 17.167 22.1665H19.667C21.0477 22.1665 22.167 21.0472 22.167 19.6665V17.1665C22.167 15.7858 21.0477 14.6665 19.667 14.6665H17.167ZM16.3337 17.1665C16.3337 16.7063 16.7068 16.3332 17.167 16.3332H19.667C20.1272 16.3332 20.5003 16.7063 20.5003 17.1665V19.6665C20.5003 20.1267 20.1272 20.4998 19.667 20.4998H17.167C16.7068 20.4998 16.3337 20.1267 16.3337 19.6665V17.1665Z" fill="#949AB1"/>
<path fill-rule="evenodd" clip-rule="evenodd" d="M26.3337 14.6665C24.9529 14.6665 23.8337 15.7858 23.8337 17.1665V19.6665C23.8337 21.0472 24.9529 22.1665 26.3337 22.1665H28.8337C30.2144 22.1665 31.3337 21.0472 31.3337 19.6665V17.1665C31.3337 15.7858 30.2144 14.6665 28.8337 14.6665H26.3337ZM25.5003 17.1665C25.5003 16.7063 25.8734 16.3332 26.3337 16.3332H28.8337C29.2939 16.3332 29.667 16.7063 29.667 17.1665V19.6665C29.667 20.1267 29.2939 20.4998 28.8337 20.4998H26.3337C25.8734 20.4998 25.5003 20.1267 25.5003 19.6665V17.1665Z" fill="#949AB1"/>
<path fill-rule="evenodd" clip-rule="evenodd" d="M14.667 26.3332C14.667 24.9525 15.7863 23.8332 17.167 23.8332H19.667C21.0477 23.8332 22.167 24.9525 22.167 26.3332V28.8332C22.167 30.2139 21.0477 31.3332 19.667 31.3332H17.167C15.7863 31.3332 14.667 30.2139 14.667 28.8332V26.3332ZM17.167 25.4998C16.7068 25.4998 16.3337 25.8729 16.3337 26.3332V28.8332C16.3337 29.2934 16.7068 29.6665 17.167 29.6665H19.667C20.1272 29.6665 20.5003 29.2934 20.5003 28.8332V26.3332C20.5003 25.8729 20.1272 25.4998 19.667 25.4998H17.167Z" fill="#949AB1"/>
<path fill-rule="evenodd" clip-rule="evenodd" d="M26.3337 23.8332C24.9529 23.8332 23.8337 24.9525 23.8337 26.3332V28.8332C23.8337 30.2139 24.9529 31.3332 26.3337 31.3332H28.8337C30.2144 31.3332 31.3337 30.2139 31.3337 28.8332V26.3332C31.3337 24.9525 30.2144 23.8332 28.8337 23.8332H26.3337ZM25.5003 26.3332C25.5003 25.8729 25.8734 25.4998 26.3337 25.4998H28.8337C29.2939 25.4998 29.667 25.8729 29.667 26.3332V28.8332C29.667 29.2934 29.2939 29.6665 28.8337 29.6665H26.3337C25.8734 29.6665 25.5003 29.2934 25.5003 28.8332V26.3332Z" fill="#949AB1"/>
</svg>
