<svg width="396" height="124" viewBox="0 0 396 124" fill="none" xmlns="http://www.w3.org/2000/svg">
<rect x="0.5" y="0.5" width="395" height="123" rx="7.5" fill="white"/>
<rect x="178" y="16" width="40" height="40" rx="20" fill="#F2F4F7"/>
<path d="M198 29.3337C195.698 29.3337 193.833 31.1991 193.833 33.5003C193.833 33.9606 193.46 34.3337 193 34.3337C191.511 34.3337 190.5 35.3674 190.5 36.417C190.5 37.4665 191.511 38.5003 193 38.5003C193.46 38.5003 193.833 38.8734 193.833 39.3337C193.833 39.7939 193.46 40.167 193 40.167C190.806 40.167 188.833 38.5891 188.833 36.417C188.833 34.5078 190.358 33.0576 192.216 32.7346C192.591 29.8748 195.038 27.667 198 27.667C200.962 27.667 203.408 29.8748 203.783 32.7346C205.642 33.0576 207.166 34.5078 207.166 36.417C207.166 38.5891 205.193 40.167 203 40.167C202.539 40.167 202.166 39.7939 202.166 39.3337C202.166 38.8734 202.539 38.5003 203 38.5003C204.488 38.5003 205.5 37.4665 205.5 36.417C205.5 35.3674 204.488 34.3337 203 34.3337C202.539 34.3337 202.166 33.9606 202.166 33.5003C202.166 31.1991 200.301 29.3337 198 29.3337Z" fill="#404653"/>
<path d="M201.089 37.4229C200.763 37.7484 200.236 37.7484 199.91 37.4229L198.833 36.3455V43.5003C198.833 43.9606 198.46 44.3337 198 44.3337C197.539 44.3337 197.166 43.9606 197.166 43.5003V36.3455L196.089 37.4229C195.763 37.7484 195.236 37.7484 194.91 37.4229C194.585 37.0975 194.585 36.5698 194.91 36.2444L197.41 33.7444C197.567 33.5881 197.779 33.5003 198 33.5003C198.221 33.5003 198.433 33.5881 198.589 33.7444L201.089 36.2444C201.414 36.5698 201.414 37.0975 201.089 37.4229Z" fill="#404653"/>
<rect x="178" y="16" width="40" height="40" rx="20" stroke="#F9FAFB" stroke-width="6"/>
<path d="M98 75.6562H96.0381C95.874 75.041 95.5436 74.5488 95.0469 74.1797C94.5547 73.8105 93.9395 73.626 93.2012 73.626C92.2988 73.626 91.5605 73.9541 90.9863 74.6104C90.4258 75.2529 90.1455 76.0824 90.1455 77.0986C90.1455 78.1104 90.4303 78.9421 91 79.5938C91.5697 80.2454 92.3034 80.5713 93.2012 80.5713C94.0124 80.5713 94.68 80.3708 95.2041 79.9697C95.7282 79.5641 96.0586 78.9671 96.1953 78.1787H98.1367C97.9818 79.5094 97.4508 80.5212 96.5439 81.2139C95.6234 81.9066 94.4977 82.2529 93.167 82.2529C91.7314 82.2529 90.5146 81.7812 89.5166 80.8379C88.5277 79.9036 88.0332 78.6572 88.0332 77.0986C88.0332 75.5446 88.5231 74.2982 89.5029 73.3594C90.4964 72.4206 91.7178 71.9512 93.167 71.9512C94.4521 71.9512 95.5254 72.277 96.3867 72.9287C97.2617 73.5804 97.7995 74.4896 98 75.6562ZM101.438 72.1973V82H99.5518V72.1973H101.438ZM104.979 74.8633V82H103.093V74.8633H104.979ZM104.829 73.7422C104.629 73.9382 104.367 74.0361 104.043 74.0361C103.724 74.0361 103.457 73.9382 103.243 73.7422C103.043 73.5417 102.942 73.2887 102.942 72.9834C102.942 72.6781 103.043 72.4251 103.243 72.2246C103.457 72.0241 103.724 71.9238 104.043 71.9238C104.367 71.9238 104.629 72.0241 104.829 72.2246C105.043 72.4251 105.15 72.6781 105.15 72.9834C105.15 73.2887 105.043 73.5417 104.829 73.7422ZM113.606 77.4473H111.74C111.622 77.0508 111.412 76.7432 111.111 76.5244C110.815 76.3011 110.471 76.1895 110.079 76.1895C109.537 76.1895 109.088 76.4014 108.732 76.8252C108.377 77.249 108.199 77.7845 108.199 78.4316C108.199 79.0879 108.377 79.6279 108.732 80.0518C109.083 80.471 109.532 80.6807 110.079 80.6807C110.489 80.6807 110.856 80.5508 111.18 80.291C111.503 80.0267 111.72 79.6621 111.829 79.1973H113.688C113.534 80.1862 113.123 80.9382 112.458 81.4531C111.788 81.959 110.991 82.2119 110.065 82.2119C108.981 82.2119 108.074 81.861 107.345 81.1592C106.629 80.4574 106.271 79.5482 106.271 78.4316C106.271 77.3197 106.629 76.4128 107.345 75.7109C108.065 75.0046 108.972 74.6514 110.065 74.6514C111 74.6514 111.788 74.9111 112.431 75.4307C113.078 75.9548 113.47 76.627 113.606 77.4473ZM114.974 82V72.1973H116.86V77.3516H116.922L119.328 74.8633H121.611L118.966 77.4609L122.138 82H119.902L117.742 78.6982L116.86 79.5527V82H114.974ZM127.128 79.9697V76.2988H125.87V74.8633H127.128V72.833H129.021V74.8633H130.744V76.2988H129.021V79.8604C129.021 80.1611 129.088 80.3708 129.22 80.4893C129.356 80.6077 129.593 80.667 129.931 80.667C130.286 80.667 130.621 80.6305 130.936 80.5576V82.0273C130.439 82.1413 129.935 82.1982 129.425 82.1982C128.577 82.1982 127.982 82.0342 127.641 81.7061C127.299 81.3779 127.128 80.7992 127.128 79.9697ZM135.577 74.6514C136.68 74.6514 137.585 75.0046 138.291 75.7109C139.02 76.4264 139.385 77.3333 139.385 78.4316C139.385 79.5208 139.025 80.4255 138.305 81.1455C137.594 81.8564 136.685 82.2119 135.577 82.2119C134.465 82.2119 133.554 81.8564 132.843 81.1455C132.127 80.43 131.77 79.5254 131.77 78.4316C131.77 77.3333 132.127 76.4264 132.843 75.7109C133.549 75.0046 134.461 74.6514 135.577 74.6514ZM133.697 78.4316C133.697 79.1016 133.87 79.6439 134.217 80.0586C134.568 80.4733 135.021 80.6807 135.577 80.6807C136.124 80.6807 136.573 80.4733 136.924 80.0586C137.275 79.6393 137.45 79.097 137.45 78.4316C137.45 77.7663 137.272 77.2285 136.917 76.8184C136.566 76.3991 136.119 76.1895 135.577 76.1895C135.021 76.1895 134.568 76.3968 134.217 76.8115C133.87 77.2262 133.697 77.7663 133.697 78.4316ZM144.136 79.4775V74.8633H146.022V79.0742C146.022 79.5573 146.134 79.9355 146.357 80.209C146.585 80.4779 146.904 80.6123 147.314 80.6123C147.747 80.6123 148.112 80.4551 148.408 80.1406C148.704 79.8216 148.853 79.4137 148.853 78.917V74.8633H150.739V82H148.88V81.1045H148.825C148.31 81.8428 147.54 82.2119 146.515 82.2119C144.929 82.2119 144.136 81.3005 144.136 79.4775ZM154.239 84.7275H152.353V74.8633H154.144V75.7109H154.212C154.754 75.0046 155.52 74.6514 156.509 74.6514C157.47 74.6514 158.268 75.0091 158.901 75.7246C159.539 76.4447 159.858 77.347 159.858 78.4316C159.858 79.5254 159.535 80.43 158.888 81.1455C158.245 81.8564 157.448 82.2119 156.495 82.2119C155.538 82.2119 154.807 81.8564 154.301 81.1455H154.239V84.7275ZM156.017 80.6807C156.559 80.6807 157.008 80.4756 157.363 80.0654C157.728 79.6462 157.91 79.1061 157.91 78.4453C157.91 77.7891 157.728 77.2513 157.363 76.832C157.017 76.4036 156.568 76.1895 156.017 76.1895C155.483 76.1895 155.037 76.4036 154.677 76.832C154.321 77.2559 154.144 77.7936 154.144 78.4453C154.144 79.0924 154.321 79.6279 154.677 80.0518C155.041 80.471 155.488 80.6807 156.017 80.6807ZM163.017 72.1973V82H161.13V72.1973H163.017ZM168.116 74.6514C169.219 74.6514 170.124 75.0046 170.83 75.7109C171.559 76.4264 171.924 77.3333 171.924 78.4316C171.924 79.5208 171.564 80.4255 170.844 81.1455C170.133 81.8564 169.224 82.2119 168.116 82.2119C167.004 82.2119 166.093 81.8564 165.382 81.1455C164.666 80.43 164.309 79.5254 164.309 78.4316C164.309 77.3333 164.666 76.4264 165.382 75.7109C166.088 75.0046 167 74.6514 168.116 74.6514ZM166.236 78.4316C166.236 79.1016 166.41 79.6439 166.756 80.0586C167.107 80.4733 167.56 80.6807 168.116 80.6807C168.663 80.6807 169.112 80.4733 169.463 80.0586C169.814 79.6393 169.989 79.097 169.989 78.4316C169.989 77.7663 169.812 77.2285 169.456 76.8184C169.105 76.3991 168.659 76.1895 168.116 76.1895C167.56 76.1895 167.107 76.3968 166.756 76.8115C166.41 77.2262 166.236 77.7663 166.236 78.4316ZM178.534 82V81.1318H178.479C177.937 81.8519 177.181 82.2119 176.21 82.2119C175.248 82.2119 174.446 81.8564 173.804 81.1455C173.17 80.43 172.854 79.5254 172.854 78.4316C172.854 77.3288 173.175 76.4219 173.817 75.7109C174.469 75.0046 175.271 74.6514 176.224 74.6514C177.172 74.6514 177.892 75 178.384 75.6973H178.438V74.8633H180.325V82H178.534ZM174.781 78.4316C174.781 79.0879 174.959 79.6279 175.314 80.0518C175.679 80.471 176.132 80.6807 176.675 80.6807C177.217 80.6807 177.664 80.471 178.015 80.0518C178.37 79.6279 178.548 79.0879 178.548 78.4316C178.548 77.7754 178.366 77.2376 178.001 76.8184C177.65 76.3991 177.208 76.1895 176.675 76.1895C176.132 76.1895 175.681 76.4014 175.321 76.8252C174.961 77.249 174.781 77.7845 174.781 78.4316ZM187.298 82V81.1318H187.243C186.701 81.8519 185.944 82.2119 184.974 82.2119C184.012 82.2119 183.21 81.8564 182.567 81.1455C181.934 80.43 181.617 79.5254 181.617 78.4316C181.617 77.3288 181.938 76.4219 182.581 75.7109C183.233 75.0046 184.035 74.6514 184.987 74.6514C185.935 74.6514 186.655 75 187.147 75.6973H187.202V72.1973H189.089V82H187.298ZM183.545 78.4316C183.545 79.0879 183.723 79.6279 184.078 80.0518C184.443 80.471 184.896 80.6807 185.438 80.6807C185.981 80.6807 186.427 80.471 186.778 80.0518C187.134 79.6279 187.312 79.0879 187.312 78.4316C187.312 77.7754 187.129 77.2376 186.765 76.8184C186.414 76.3991 185.972 76.1895 185.438 76.1895C184.896 76.1895 184.445 76.4014 184.085 76.8252C183.725 77.249 183.545 77.7845 183.545 78.4316Z" fill="#235D5E"/>
<path d="M198.697 74.6514C199.768 74.6514 200.661 75.0091 201.377 75.7246C202.092 76.4401 202.45 77.3424 202.45 78.4316C202.45 79.5254 202.092 80.43 201.377 81.1455C200.666 81.8564 199.773 82.2119 198.697 82.2119C197.626 82.2119 196.731 81.8519 196.011 81.1318C195.304 80.4255 194.951 79.5254 194.951 78.4316C194.951 77.3333 195.304 76.431 196.011 75.7246C196.726 75.0091 197.622 74.6514 198.697 74.6514ZM198.697 81.1865C199.426 81.1865 200.026 80.9313 200.495 80.4209C200.978 79.9105 201.22 79.2474 201.22 78.4316C201.22 77.6204 200.983 76.9574 200.509 76.4424C200.035 75.9274 199.431 75.6699 198.697 75.6699C197.982 75.6699 197.38 75.9274 196.893 76.4424C196.419 76.9574 196.182 77.6204 196.182 78.4316C196.182 79.2428 196.419 79.9059 196.893 80.4209C197.362 80.9313 197.964 81.1865 198.697 81.1865ZM204.979 79.2109V82H203.763V74.8633H204.925V76.5654H204.979C205.581 75.3623 206.663 74.7334 208.227 74.6787V75.8682C207.288 75.8682 206.508 76.1439 205.889 76.6953C205.283 77.2467 204.979 78.0853 204.979 79.2109ZM218.72 82V80.9199H218.665C218.032 81.7812 217.154 82.2119 216.033 82.2119C215.053 82.2119 214.217 81.8519 213.524 81.1318C212.836 80.4163 212.492 79.5163 212.492 78.4316C212.492 77.3424 212.836 76.4401 213.524 75.7246C214.213 75.0091 215.049 74.6514 216.033 74.6514C217.163 74.6514 218.022 75.0798 218.61 75.9365H218.665V72.1973H219.882V82H218.72ZM214.447 76.4424C213.964 76.9528 213.723 77.6159 213.723 78.4316C213.723 79.2474 213.964 79.9105 214.447 80.4209C214.93 80.9313 215.527 81.1865 216.238 81.1865C216.954 81.1865 217.546 80.9313 218.016 80.4209C218.494 79.9014 218.733 79.2383 218.733 78.4316C218.733 77.6341 218.494 76.9756 218.016 76.4561C217.533 75.932 216.94 75.6699 216.238 75.6699C215.532 75.6699 214.935 75.9274 214.447 76.4424ZM222.835 79.2109V82H221.618V74.8633H222.78V76.5654H222.835C223.437 75.3623 224.519 74.7334 226.082 74.6787V75.8682C225.143 75.8682 224.364 76.1439 223.744 76.6953C223.138 77.2467 222.835 78.0853 222.835 79.2109ZM233.075 82V80.9062H233.021C232.392 81.7767 231.514 82.2119 230.389 82.2119C229.409 82.2119 228.573 81.8519 227.88 81.1318C227.192 80.4163 226.848 79.5163 226.848 78.4316C226.848 77.3424 227.192 76.4401 227.88 75.7246C228.568 75.0091 229.404 74.6514 230.389 74.6514C231.519 74.6514 232.371 75.0706 232.945 75.9092H233.021V74.8633H234.237V82H233.075ZM232.371 80.4072C232.85 79.8877 233.089 79.2292 233.089 78.4316C233.089 77.6341 232.85 76.9756 232.371 76.4561C231.888 75.932 231.296 75.6699 230.594 75.6699C229.896 75.6699 229.299 75.932 228.803 76.4561C228.32 76.9665 228.078 77.625 228.078 78.4316C228.078 79.2474 228.32 79.9105 228.803 80.4209C229.286 80.9313 229.883 81.1865 230.594 81.1865C231.3 81.1865 231.893 80.9268 232.371 80.4072ZM241.572 81.6104V80.6533H241.504C240.952 81.46 240.098 81.8633 238.94 81.8633C237.997 81.8633 237.195 81.5124 236.534 80.8105C235.882 80.1178 235.557 79.2679 235.557 78.2607C235.557 77.2627 235.873 76.4128 236.507 75.7109C237.145 75.0046 237.961 74.6514 238.954 74.6514C240.08 74.6514 240.943 75.0661 241.545 75.8955H241.6V74.8633H242.789V81.583C242.789 82.5947 242.486 83.3854 241.88 83.9551C241.278 84.5293 240.444 84.8164 239.378 84.8164C238.453 84.8164 237.683 84.6113 237.067 84.2012C236.457 83.7956 236.083 83.2122 235.946 82.4512H237.177C237.268 82.8887 237.507 83.2236 237.895 83.4561C238.282 83.6885 238.776 83.8047 239.378 83.8047C240.066 83.8047 240.604 83.6156 240.991 83.2373C241.379 82.8636 241.572 82.3213 241.572 81.6104ZM237.471 76.415C237.024 76.9027 236.801 77.5179 236.801 78.2607C236.801 79.0127 237.029 79.6302 237.484 80.1133C237.949 80.6055 238.533 80.8516 239.234 80.8516C239.936 80.8516 240.515 80.61 240.971 80.127C241.44 79.6302 241.675 79.0081 241.675 78.2607C241.675 77.5179 241.445 76.9027 240.984 76.415C240.529 75.9183 239.945 75.6699 239.234 75.6699C238.528 75.6699 237.94 75.9183 237.471 76.415ZM253.843 82V80.9062H253.788C253.159 81.7767 252.282 82.2119 251.156 82.2119C250.176 82.2119 249.34 81.8519 248.647 81.1318C247.959 80.4163 247.615 79.5163 247.615 78.4316C247.615 77.3424 247.959 76.4401 248.647 75.7246C249.336 75.0091 250.172 74.6514 251.156 74.6514C252.286 74.6514 253.139 75.0706 253.713 75.9092H253.788V74.8633H255.005V82H253.843ZM253.139 80.4072C253.617 79.8877 253.856 79.2292 253.856 78.4316C253.856 77.6341 253.617 76.9756 253.139 76.4561C252.656 75.932 252.063 75.6699 251.361 75.6699C250.664 75.6699 250.067 75.932 249.57 76.4561C249.087 76.9665 248.846 77.625 248.846 78.4316C248.846 79.2474 249.087 79.9105 249.57 80.4209C250.053 80.9313 250.65 81.1865 251.361 81.1865C252.068 81.1865 252.66 80.9268 253.139 80.4072ZM256.741 82V74.8633H257.917V75.8682H257.985C258.56 75.057 259.373 74.6514 260.426 74.6514C261.278 74.6514 261.921 74.8906 262.354 75.3691C262.791 75.8431 263.01 76.513 263.01 77.3789V82H261.793V77.5088C261.793 76.9391 261.645 76.4925 261.349 76.1689C261.052 75.8454 260.635 75.6836 260.098 75.6836C259.537 75.6836 259.038 75.8955 258.601 76.3193C258.172 76.7204 257.958 77.224 257.958 77.8301V82H256.741ZM270.563 82V80.9199H270.509C269.875 81.7812 268.998 82.2119 267.877 82.2119C266.897 82.2119 266.061 81.8519 265.368 81.1318C264.68 80.4163 264.336 79.5163 264.336 78.4316C264.336 77.3424 264.68 76.4401 265.368 75.7246C266.056 75.0091 266.893 74.6514 267.877 74.6514C269.007 74.6514 269.866 75.0798 270.454 75.9365H270.509V72.1973H271.726V82H270.563ZM266.291 76.4424C265.808 76.9528 265.566 77.6159 265.566 78.4316C265.566 79.2474 265.808 79.9105 266.291 80.4209C266.774 80.9313 267.371 81.1865 268.082 81.1865C268.798 81.1865 269.39 80.9313 269.859 80.4209C270.338 79.9014 270.577 79.2383 270.577 78.4316C270.577 77.6341 270.338 76.9756 269.859 76.4561C269.376 75.932 268.784 75.6699 268.082 75.6699C267.376 75.6699 266.779 75.9274 266.291 76.4424ZM282.772 82V80.9199H282.718C282.084 81.7812 281.207 82.2119 280.086 82.2119C279.106 82.2119 278.27 81.8519 277.577 81.1318C276.889 80.4163 276.545 79.5163 276.545 78.4316C276.545 77.3424 276.889 76.4401 277.577 75.7246C278.265 75.0091 279.102 74.6514 280.086 74.6514C281.216 74.6514 282.075 75.0798 282.663 75.9365H282.718V72.1973H283.935V82H282.772ZM278.5 76.4424C278.017 76.9528 277.775 77.6159 277.775 78.4316C277.775 79.2474 278.017 79.9105 278.5 80.4209C278.983 80.9313 279.58 81.1865 280.291 81.1865C281.007 81.1865 281.599 80.9313 282.068 80.4209C282.547 79.9014 282.786 79.2383 282.786 78.4316C282.786 77.6341 282.547 76.9756 282.068 76.4561C281.585 75.932 280.993 75.6699 280.291 75.6699C279.585 75.6699 278.988 75.9274 278.5 76.4424ZM286.888 79.2109V82H285.671V74.8633H286.833V76.5654H286.888C287.489 75.3623 288.572 74.7334 290.135 74.6787V75.8682C289.196 75.8682 288.417 76.1439 287.797 76.6953C287.191 77.2467 286.888 78.0853 286.888 79.2109ZM294.646 74.6514C295.717 74.6514 296.611 75.0091 297.326 75.7246C298.042 76.4401 298.399 77.3424 298.399 78.4316C298.399 79.5254 298.042 80.43 297.326 81.1455C296.615 81.8564 295.722 82.2119 294.646 82.2119C293.576 82.2119 292.68 81.8519 291.96 81.1318C291.254 80.4255 290.9 79.5254 290.9 78.4316C290.9 77.3333 291.254 76.431 291.96 75.7246C292.675 75.0091 293.571 74.6514 294.646 74.6514ZM294.646 81.1865C295.376 81.1865 295.975 80.9313 296.444 80.4209C296.927 79.9105 297.169 79.2474 297.169 78.4316C297.169 77.6204 296.932 76.9574 296.458 76.4424C295.984 75.9274 295.38 75.6699 294.646 75.6699C293.931 75.6699 293.329 75.9274 292.842 76.4424C292.368 76.9574 292.131 77.6204 292.131 78.4316C292.131 79.2428 292.368 79.9059 292.842 80.4209C293.311 80.9313 293.913 81.1865 294.646 81.1865ZM300.929 84.7275H299.712V74.8633H300.874V75.9502H300.929C301.571 75.0843 302.449 74.6514 303.561 74.6514C304.545 74.6514 305.381 75.0091 306.069 75.7246C306.757 76.4401 307.102 77.3424 307.102 78.4316C307.102 79.5254 306.757 80.43 306.069 81.1455C305.386 81.8564 304.549 82.2119 303.561 82.2119C302.435 82.2119 301.576 81.7812 300.983 80.9199H300.929V84.7275ZM305.871 78.4316C305.871 77.625 305.63 76.9665 305.146 76.4561C304.65 75.932 304.05 75.6699 303.349 75.6699C302.647 75.6699 302.054 75.932 301.571 76.4561C301.097 76.971 300.86 77.6296 300.86 78.4316C300.86 79.2428 301.097 79.9059 301.571 80.4209C302.041 80.9313 302.633 81.1865 303.349 81.1865C304.064 81.1865 304.663 80.9313 305.146 80.4209C305.63 79.9105 305.871 79.2474 305.871 78.4316Z" fill="#70747E"/>
<path d="M36.0762 103H34.957V94.5977H39.9023V95.5586H36.0762V98.3652H39.3164V99.3027H36.0762V103ZM42.1406 96.8828V103H41.0977V96.8828H42.1406ZM41.6133 95.9102C41.4219 95.9102 41.2617 95.8457 41.1328 95.7168C41.0039 95.5879 40.9395 95.4277 40.9395 95.2363C40.9395 95.0449 41.0039 94.8848 41.1328 94.7559C41.2617 94.627 41.4219 94.5625 41.6133 94.5625C41.8125 94.5625 41.9766 94.627 42.1055 94.7559C42.2344 94.8809 42.2988 95.041 42.2988 95.2363C42.2988 95.4316 42.2344 95.5938 42.1055 95.7227C41.9766 95.8477 41.8125 95.9102 41.6133 95.9102ZM44.6719 94.5977V103H43.6289V94.5977H44.6719ZM52.0664 100.275H46.8457C46.9238 100.904 47.1621 101.4 47.5605 101.764C47.9629 102.123 48.4473 102.303 49.0137 102.303C49.4629 102.303 49.8594 102.191 50.2031 101.969C50.5469 101.742 50.7949 101.445 50.9473 101.078H52.0137C51.791 101.73 51.4121 102.244 50.877 102.619C50.3418 102.994 49.7168 103.182 49.002 103.182C48.0918 103.182 47.332 102.877 46.7227 102.268C46.1094 101.654 45.8027 100.879 45.8027 99.9414C45.8027 99.0078 46.1094 98.2344 46.7227 97.6211C47.3359 97.0078 48.0957 96.7012 49.002 96.7012C49.8223 96.7012 50.543 96.9648 51.1641 97.4922C51.7969 98.0039 52.1133 98.7402 52.1133 99.7012C52.1133 99.9629 52.0977 100.154 52.0664 100.275ZM49.002 97.5742C48.4824 97.5742 48.0234 97.7422 47.625 98.0781C47.2305 98.4141 46.9824 98.8555 46.8809 99.4023H51.1172C51.0391 98.8398 50.8027 98.3945 50.4082 98.0664C50.0137 97.7383 49.5449 97.5742 49.002 97.5742ZM57.4512 103H56.332V94.5977H61.2773V95.5586H57.4512V98.3652H60.6914V99.3027H57.4512V103ZM65.1387 96.7012C66.0566 96.7012 66.8223 97.0078 67.4355 97.6211C68.0488 98.2344 68.3555 99.0078 68.3555 99.9414C68.3555 100.879 68.0488 101.654 67.4355 102.268C66.8262 102.877 66.0605 103.182 65.1387 103.182C64.2207 103.182 63.4531 102.873 62.8359 102.256C62.2305 101.65 61.9277 100.879 61.9277 99.9414C61.9277 99 62.2305 98.2266 62.8359 97.6211C63.4492 97.0078 64.2168 96.7012 65.1387 96.7012ZM65.1387 102.303C65.7637 102.303 66.2773 102.084 66.6797 101.646C67.0938 101.209 67.3008 100.641 67.3008 99.9414C67.3008 99.2461 67.0977 98.6777 66.6914 98.2363C66.2852 97.7949 65.7676 97.5742 65.1387 97.5742C64.5254 97.5742 64.0098 97.7949 63.5918 98.2363C63.1855 98.6777 62.9824 99.2461 62.9824 99.9414C62.9824 100.637 63.1855 101.205 63.5918 101.646C63.9941 102.084 64.5098 102.303 65.1387 102.303ZM70.5234 100.609V103H69.4805V96.8828H70.4766V98.3418H70.5234C71.0391 97.3105 71.9668 96.7715 73.3066 96.7246V97.7441C72.502 97.7441 71.834 97.9805 71.3027 98.4531C70.7832 98.9258 70.5234 99.6445 70.5234 100.609ZM74.3203 103V96.8828H75.3281V97.6855H75.375C75.8633 97.0293 76.5234 96.7012 77.3555 96.7012C78.207 96.7012 78.7832 97.0977 79.084 97.8906C79.5527 97.0977 80.2441 96.7012 81.1582 96.7012C81.8418 96.7012 82.3477 96.8945 82.6758 97.2812C83.0078 97.668 83.1738 98.2109 83.1738 98.9102V103H82.1309V99.0039C82.1309 98.5469 82.0254 98.1973 81.8145 97.9551C81.6074 97.709 81.3047 97.5859 80.9062 97.5859C80.4219 97.5859 80.0273 97.7676 79.7227 98.1309C79.4258 98.4863 79.2773 98.9062 79.2773 99.3906V103H78.2344V99.1973C78.2344 98.123 77.8301 97.5859 77.0215 97.5859C76.5605 97.5859 76.168 97.7715 75.8438 98.1426C75.5234 98.498 75.3633 98.9141 75.3633 99.3906V103H74.3203ZM89.6484 103V102.062H89.6016C89.0625 102.809 88.3105 103.182 87.3457 103.182C86.5059 103.182 85.7891 102.873 85.1953 102.256C84.6055 101.643 84.3105 100.871 84.3105 99.9414C84.3105 99.0078 84.6055 98.2344 85.1953 97.6211C85.7852 97.0078 86.502 96.7012 87.3457 96.7012C88.3145 96.7012 89.0449 97.0605 89.5371 97.7793H89.6016V96.8828H90.6445V103H89.6484ZM89.0449 101.635C89.4551 101.189 89.6602 100.625 89.6602 99.9414C89.6602 99.2578 89.4551 98.6934 89.0449 98.248C88.6309 97.7988 88.123 97.5742 87.5215 97.5742C86.9238 97.5742 86.4121 97.7988 85.9863 98.248C85.5723 98.6855 85.3652 99.25 85.3652 99.9414C85.3652 100.641 85.5723 101.209 85.9863 101.646C86.4004 102.084 86.9121 102.303 87.5215 102.303C88.127 102.303 88.6348 102.08 89.0449 101.635ZM92.7422 101.488V97.7207H91.6875V96.8828H92.7422V95.1895H93.791V96.8828H95.373V97.7207H93.791V101.441C93.791 101.734 93.8535 101.947 93.9785 102.08C94.1074 102.213 94.3281 102.279 94.6406 102.279C94.9219 102.279 95.2383 102.236 95.5898 102.15V103.012C95.1875 103.109 94.8145 103.158 94.4707 103.158C93.8613 103.158 93.4199 103.029 93.1465 102.771C92.877 102.514 92.7422 102.086 92.7422 101.488ZM97.3887 101.764C97.6699 101.744 97.8672 101.854 97.9805 102.092C98.0977 102.33 98.0977 102.568 97.9805 102.807C97.8672 103.045 97.6699 103.154 97.3887 103.135C97.1895 103.135 97.0254 103.07 96.8965 102.941C96.7676 102.809 96.7031 102.645 96.7031 102.449C96.7031 102.254 96.7676 102.092 96.8965 101.963C97.0293 101.83 97.1934 101.764 97.3887 101.764ZM97.3887 96.748C97.6699 96.7285 97.8672 96.8379 97.9805 97.0762C98.0977 97.3145 98.0977 97.5527 97.9805 97.791C97.8672 98.0254 97.6699 98.1328 97.3887 98.1133C97.1895 98.1133 97.0254 98.0488 96.8965 97.9199C96.7676 97.791 96.7031 97.6289 96.7031 97.4336C96.7031 97.2383 96.7676 97.0762 96.8965 96.9473C97.0293 96.8145 97.1934 96.748 97.3887 96.748ZM105.938 99.2207L104.232 98.7637C103.014 98.416 102.404 97.7051 102.404 96.6309C102.404 96.0215 102.637 95.4961 103.102 95.0547C103.57 94.6094 104.25 94.3867 105.141 94.3867C105.934 94.3867 106.605 94.5977 107.156 95.0195C107.707 95.4414 107.988 96.0488 108 96.8418H106.934C106.91 96.3652 106.736 95.9941 106.412 95.7285C106.088 95.4629 105.66 95.3301 105.129 95.3301C104.617 95.3301 104.225 95.4512 103.951 95.6934C103.682 95.9355 103.547 96.248 103.547 96.6309C103.547 97.2168 103.898 97.6113 104.602 97.8145L106.295 98.2715C106.979 98.4668 107.494 98.7539 107.842 99.1328C108.193 99.5117 108.369 100.045 108.369 100.732C108.369 101.428 108.105 102.016 107.578 102.496C107.051 102.977 106.314 103.217 105.369 103.217C104.486 103.217 103.738 102.98 103.125 102.508C102.531 102.031 102.229 101.299 102.217 100.311H103.307C103.311 100.979 103.496 101.473 103.863 101.793C104.23 102.109 104.732 102.268 105.369 102.268C105.951 102.268 106.406 102.127 106.734 101.846C107.066 101.564 107.232 101.193 107.232 100.732C107.232 99.9668 106.801 99.4629 105.938 99.2207ZM111.938 103L108.838 94.5977H110.062L112.031 100.24C112.215 100.748 112.391 101.297 112.559 101.887H112.617C112.832 101.16 113.012 100.604 113.156 100.217L115.113 94.5977H116.338L113.244 103H111.938ZM124.207 99.6543H121.342V98.7051H125.326V99.1973C125.326 100.424 124.941 101.404 124.172 102.139C123.418 102.857 122.418 103.217 121.172 103.217C120.41 103.217 119.699 103.045 119.039 102.701C118.383 102.357 117.846 101.846 117.428 101.166C117.021 100.486 116.818 99.6973 116.818 98.7988C116.818 97.4668 117.25 96.3984 118.113 95.5938C118.977 94.7891 119.992 94.3867 121.16 94.3867C122.172 94.3867 123.045 94.6504 123.779 95.1777C124.514 95.7051 124.977 96.4043 125.168 97.2754H124.078C123.863 96.666 123.504 96.1895 123 95.8457C122.5 95.502 121.887 95.3301 121.16 95.3301C120.242 95.3301 119.479 95.6504 118.869 96.291C118.26 96.9277 117.955 97.7637 117.955 98.7988C117.955 99.8301 118.264 100.67 118.881 101.318C119.498 101.951 120.262 102.268 121.172 102.268C122.02 102.268 122.715 102.041 123.258 101.588C123.801 101.131 124.117 100.486 124.207 99.6543ZM126.562 104.477V103.949C127.004 103.832 127.225 103.561 127.225 103.135C126.729 103.135 126.48 102.906 126.48 102.449C126.48 102.254 126.547 102.092 126.68 101.963C126.812 101.83 126.979 101.764 127.178 101.764C127.393 101.764 127.561 101.836 127.682 101.98C127.807 102.121 127.869 102.328 127.869 102.602C127.869 103.648 127.434 104.273 126.562 104.477ZM133.541 103H132.422V94.5977H135.662C136.506 94.5977 137.158 94.834 137.619 95.3066C138.084 95.7715 138.316 96.3711 138.316 97.1055C138.316 97.8477 138.084 98.457 137.619 98.9336C137.158 99.4062 136.506 99.6426 135.662 99.6426H133.541V103ZM135.521 95.5586H133.541V98.6816H135.521C136.037 98.6816 136.443 98.5449 136.74 98.2715C137.037 97.9941 137.186 97.6094 137.186 97.1172C137.186 96.625 137.043 96.2422 136.758 95.9688C136.473 95.6953 136.061 95.5586 135.521 95.5586ZM139.535 103V94.5977H140.76L145.295 101.5H145.348C145.32 100.969 145.307 100.504 145.307 100.105V94.5977H146.402V103H145.178L140.631 96.0977H140.584C140.615 96.6172 140.631 97.0781 140.631 97.4805V103H139.535ZM155.062 99.6543H152.197V98.7051H156.182V99.1973C156.182 100.424 155.797 101.404 155.027 102.139C154.273 102.857 153.273 103.217 152.027 103.217C151.266 103.217 150.555 103.045 149.895 102.701C149.238 102.357 148.701 101.846 148.283 101.166C147.877 100.486 147.674 99.6973 147.674 98.7988C147.674 97.4668 148.105 96.3984 148.969 95.5938C149.832 94.7891 150.848 94.3867 152.016 94.3867C153.027 94.3867 153.9 94.6504 154.635 95.1777C155.369 95.7051 155.832 96.4043 156.023 97.2754H154.934C154.719 96.666 154.359 96.1895 153.855 95.8457C153.355 95.502 152.742 95.3301 152.016 95.3301C151.098 95.3301 150.334 95.6504 149.725 96.291C149.115 96.9277 148.811 97.7637 148.811 98.7988C148.811 99.8301 149.119 100.67 149.736 101.318C150.354 101.951 151.117 102.268 152.027 102.268C152.875 102.268 153.57 102.041 154.113 101.588C154.656 101.131 154.973 100.486 155.062 99.6543ZM157.418 104.477V103.949C157.859 103.832 158.08 103.561 158.08 103.135C157.584 103.135 157.336 102.906 157.336 102.449C157.336 102.254 157.402 102.092 157.535 101.963C157.668 101.83 157.834 101.764 158.033 101.764C158.248 101.764 158.416 101.836 158.537 101.98C158.662 102.121 158.725 102.328 158.725 102.602C158.725 103.648 158.289 104.273 157.418 104.477ZM162.861 100.516V100.252H163.963V100.539C163.963 101.102 164.111 101.533 164.408 101.834C164.709 102.131 165.102 102.279 165.586 102.279C166.07 102.279 166.461 102.119 166.758 101.799C167.055 101.479 167.203 101.043 167.203 100.492V94.5977H168.322V100.457C168.322 101.316 168.082 101.992 167.602 102.484C167.121 102.973 166.453 103.217 165.598 103.217C164.762 103.217 164.096 102.979 163.6 102.502C163.107 102.025 162.861 101.363 162.861 100.516ZM171.088 103H169.969V94.5977H173.209C174.053 94.5977 174.705 94.834 175.166 95.3066C175.631 95.7715 175.863 96.3711 175.863 97.1055C175.863 97.8477 175.631 98.457 175.166 98.9336C174.705 99.4062 174.053 99.6426 173.209 99.6426H171.088V103ZM173.068 95.5586H171.088V98.6816H173.068C173.584 98.6816 173.99 98.5449 174.287 98.2715C174.584 97.9941 174.732 97.6094 174.732 97.1172C174.732 96.625 174.59 96.2422 174.305 95.9688C174.02 95.6953 173.607 95.5586 173.068 95.5586ZM184.066 99.6543H181.201V98.7051H185.186V99.1973C185.186 100.424 184.801 101.404 184.031 102.139C183.277 102.857 182.277 103.217 181.031 103.217C180.27 103.217 179.559 103.045 178.898 102.701C178.242 102.357 177.705 101.846 177.287 101.166C176.881 100.486 176.678 99.6973 176.678 98.7988C176.678 97.4668 177.109 96.3984 177.973 95.5938C178.836 94.7891 179.852 94.3867 181.02 94.3867C182.031 94.3867 182.904 94.6504 183.639 95.1777C184.373 95.7051 184.836 96.4043 185.027 97.2754H183.938C183.723 96.666 183.363 96.1895 182.859 95.8457C182.359 95.502 181.746 95.3301 181.02 95.3301C180.102 95.3301 179.338 95.6504 178.729 96.291C178.119 96.9277 177.814 97.7637 177.814 98.7988C177.814 99.8301 178.123 100.67 178.74 101.318C179.357 101.951 180.121 102.268 181.031 102.268C181.879 102.268 182.574 102.041 183.117 101.588C183.66 101.131 183.977 100.486 184.066 99.6543ZM192.217 96.7012C193.135 96.7012 193.9 97.0078 194.514 97.6211C195.127 98.2344 195.434 99.0078 195.434 99.9414C195.434 100.879 195.127 101.654 194.514 102.268C193.904 102.877 193.139 103.182 192.217 103.182C191.299 103.182 190.531 102.873 189.914 102.256C189.309 101.65 189.006 100.879 189.006 99.9414C189.006 99 189.309 98.2266 189.914 97.6211C190.527 97.0078 191.295 96.7012 192.217 96.7012ZM192.217 102.303C192.842 102.303 193.355 102.084 193.758 101.646C194.172 101.209 194.379 100.641 194.379 99.9414C194.379 99.2461 194.176 98.6777 193.77 98.2363C193.363 97.7949 192.846 97.5742 192.217 97.5742C191.604 97.5742 191.088 97.7949 190.67 98.2363C190.264 98.6777 190.061 99.2461 190.061 99.9414C190.061 100.637 190.264 101.205 190.67 101.646C191.072 102.084 191.588 102.303 192.217 102.303ZM197.602 100.609V103H196.559V96.8828H197.555V98.3418H197.602C198.117 97.3105 199.045 96.7715 200.385 96.7246V97.7441C199.58 97.7441 198.912 97.9805 198.381 98.4531C197.861 98.9258 197.602 99.6445 197.602 100.609ZM211.477 99.6543H208.611V98.7051H212.596V99.1973C212.596 100.424 212.211 101.404 211.441 102.139C210.688 102.857 209.688 103.217 208.441 103.217C207.68 103.217 206.969 103.045 206.309 102.701C205.652 102.357 205.115 101.846 204.697 101.166C204.291 100.486 204.088 99.6973 204.088 98.7988C204.088 97.4668 204.52 96.3984 205.383 95.5938C206.246 94.7891 207.262 94.3867 208.43 94.3867C209.441 94.3867 210.314 94.6504 211.049 95.1777C211.783 95.7051 212.246 96.4043 212.438 97.2754H211.348C211.133 96.666 210.773 96.1895 210.27 95.8457C209.77 95.502 209.156 95.3301 208.43 95.3301C207.512 95.3301 206.748 95.6504 206.139 96.291C205.529 96.9277 205.225 97.7637 205.225 98.7988C205.225 99.8301 205.533 100.67 206.15 101.318C206.768 101.951 207.531 102.268 208.441 102.268C209.289 102.268 209.984 102.041 210.527 101.588C211.07 101.131 211.387 100.486 211.477 99.6543ZM214.986 94.5977V103H213.867V94.5977H214.986ZM217.787 103H216.668V94.5977H221.613V95.5586H217.787V98.3652H221.027V99.3027H217.787V103ZM223.471 101.764C223.752 101.744 223.949 101.854 224.062 102.092C224.18 102.33 224.18 102.568 224.062 102.807C223.949 103.045 223.752 103.154 223.471 103.135C223.271 103.135 223.107 103.07 222.979 102.941C222.85 102.809 222.785 102.645 222.785 102.449C222.785 102.254 222.85 102.092 222.979 101.963C223.111 101.83 223.275 101.764 223.471 101.764ZM231.299 105.643H230.18C229.691 104.967 229.287 104.125 228.967 103.117C228.639 102.078 228.475 100.963 228.475 99.7715C228.475 98.584 228.639 97.4648 228.967 96.4141C229.283 95.3867 229.688 94.5469 230.18 93.8945H231.299C230.744 94.5742 230.309 95.4219 229.992 96.4375C229.68 97.4531 229.523 98.5645 229.523 99.7715C229.523 100.979 229.68 102.088 229.992 103.1C230.309 104.115 230.744 104.963 231.299 105.643ZM233.514 97.2871L233.08 103H231.979L232.699 94.5977H234.064L236.367 100.422H236.414L238.711 94.5977H240.088L240.809 103H239.678L239.273 97.2754C239.223 96.6543 239.203 96.2031 239.215 95.9219H239.162L236.836 101.799H235.951L233.619 95.9219H233.572C233.572 95.9258 233.564 96.1367 233.549 96.5547L233.514 97.2871ZM246.949 103V102.062H246.902C246.363 102.809 245.611 103.182 244.646 103.182C243.807 103.182 243.09 102.873 242.496 102.256C241.906 101.643 241.611 100.871 241.611 99.9414C241.611 99.0078 241.906 98.2344 242.496 97.6211C243.086 97.0078 243.803 96.7012 244.646 96.7012C245.615 96.7012 246.346 97.0605 246.838 97.7793H246.902V96.8828H247.945V103H246.949ZM246.346 101.635C246.756 101.189 246.961 100.625 246.961 99.9414C246.961 99.2578 246.756 98.6934 246.346 98.248C245.932 97.7988 245.424 97.5742 244.822 97.5742C244.225 97.5742 243.713 97.7988 243.287 98.248C242.873 98.6855 242.666 99.25 242.666 99.9414C242.666 100.641 242.873 101.209 243.287 101.646C243.701 102.084 244.213 102.303 244.822 102.303C245.428 102.303 245.936 102.08 246.346 101.635ZM251.871 100.48L250.119 103H248.836L251.221 99.7832L248.988 96.8828H250.271L251.836 99.0977H251.895L253.383 96.8828H254.654L252.516 99.7715L255.023 103H253.74L251.918 100.48H251.871ZM256.922 96.8828V103H255.879V96.8828H256.922ZM256.395 95.9102C256.203 95.9102 256.043 95.8457 255.914 95.7168C255.785 95.5879 255.721 95.4277 255.721 95.2363C255.721 95.0449 255.785 94.8848 255.914 94.7559C256.043 94.627 256.203 94.5625 256.395 94.5625C256.594 94.5625 256.758 94.627 256.887 94.7559C257.016 94.8809 257.08 95.041 257.08 95.2363C257.08 95.4316 257.016 95.5938 256.887 95.7227C256.758 95.8477 256.594 95.9102 256.395 95.9102ZM258.41 103V96.8828H259.418V97.6855H259.465C259.953 97.0293 260.613 96.7012 261.445 96.7012C262.297 96.7012 262.873 97.0977 263.174 97.8906C263.643 97.0977 264.334 96.7012 265.248 96.7012C265.932 96.7012 266.438 96.8945 266.766 97.2812C267.098 97.668 267.264 98.2109 267.264 98.9102V103H266.221V99.0039C266.221 98.5469 266.115 98.1973 265.904 97.9551C265.697 97.709 265.395 97.5859 264.996 97.5859C264.512 97.5859 264.117 97.7676 263.812 98.1309C263.516 98.4863 263.367 98.9062 263.367 99.3906V103H262.324V99.1973C262.324 98.123 261.92 97.5859 261.111 97.5859C260.65 97.5859 260.258 97.7715 259.934 98.1426C259.613 98.498 259.453 98.9141 259.453 99.3906V103H258.41ZM268.758 100.838V96.8828H269.801V100.721C269.801 101.209 269.922 101.594 270.164 101.875C270.406 102.152 270.742 102.291 271.172 102.291C271.645 102.291 272.057 102.115 272.408 101.764C272.76 101.4 272.936 100.961 272.936 100.445V96.8828H273.979V103H272.971V102.162H272.912C272.482 102.842 271.811 103.182 270.896 103.182C270.193 103.182 269.66 102.977 269.297 102.566C268.938 102.156 268.758 101.58 268.758 100.838ZM275.461 103V96.8828H276.469V97.6855H276.516C277.004 97.0293 277.664 96.7012 278.496 96.7012C279.348 96.7012 279.924 97.0977 280.225 97.8906C280.693 97.0977 281.385 96.7012 282.299 96.7012C282.982 96.7012 283.488 96.8945 283.816 97.2812C284.148 97.668 284.314 98.2109 284.314 98.9102V103H283.271V99.0039C283.271 98.5469 283.166 98.1973 282.955 97.9551C282.748 97.709 282.445 97.5859 282.047 97.5859C281.562 97.5859 281.168 97.7676 280.863 98.1309C280.566 98.4863 280.418 98.9062 280.418 99.3906V103H279.375V99.1973C279.375 98.123 278.971 97.5859 278.162 97.5859C277.701 97.5859 277.309 97.7715 276.984 98.1426C276.664 98.498 276.504 98.9141 276.504 99.3906V103H275.461ZM288.34 97.7207V96.8828H289.447V96.0977C289.447 95.5117 289.578 95.084 289.84 94.8145C290.102 94.5449 290.518 94.4102 291.088 94.4102C291.49 94.4102 291.867 94.4492 292.219 94.5273V95.3418C291.805 95.2793 291.5 95.248 291.305 95.248C290.762 95.248 290.49 95.5312 290.49 96.0977V96.8828H292.049V97.7207H290.49V103H289.447V97.7207H288.34ZM294.129 96.8828V103H293.086V96.8828H294.129ZM293.602 95.9102C293.41 95.9102 293.25 95.8457 293.121 95.7168C292.992 95.5879 292.928 95.4277 292.928 95.2363C292.928 95.0449 292.992 94.8848 293.121 94.7559C293.25 94.627 293.41 94.5625 293.602 94.5625C293.801 94.5625 293.965 94.627 294.094 94.7559C294.223 94.8809 294.287 95.041 294.287 95.2363C294.287 95.4316 294.223 95.5938 294.094 95.7227C293.965 95.8477 293.801 95.9102 293.602 95.9102ZM296.66 94.5977V103H295.617V94.5977H296.66ZM304.055 100.275H298.834C298.912 100.904 299.15 101.4 299.549 101.764C299.951 102.123 300.436 102.303 301.002 102.303C301.451 102.303 301.848 102.191 302.191 101.969C302.535 101.742 302.783 101.445 302.936 101.078H304.002C303.779 101.73 303.4 102.244 302.865 102.619C302.33 102.994 301.705 103.182 300.99 103.182C300.08 103.182 299.32 102.877 298.711 102.268C298.098 101.654 297.791 100.879 297.791 99.9414C297.791 99.0078 298.098 98.2344 298.711 97.6211C299.324 97.0078 300.084 96.7012 300.99 96.7012C301.811 96.7012 302.531 96.9648 303.152 97.4922C303.785 98.0039 304.102 98.7402 304.102 99.7012C304.102 99.9629 304.086 100.154 304.055 100.275ZM300.99 97.5742C300.471 97.5742 300.012 97.7422 299.613 98.0781C299.219 98.4141 298.971 98.8555 298.869 99.4023H303.105C303.027 98.8398 302.791 98.3945 302.396 98.0664C302.002 97.7383 301.533 97.5742 300.99 97.5742ZM310.781 100.369L309.621 100.07C309.105 99.9492 308.711 99.7617 308.438 99.5078C308.168 99.2539 308.033 98.9023 308.033 98.4531C308.033 97.957 308.234 97.541 308.637 97.2051C309.039 96.8691 309.586 96.7012 310.277 96.7012C310.906 96.7012 311.447 96.8496 311.9 97.1465C312.357 97.4473 312.592 97.8984 312.604 98.5H311.625C311.609 98.1875 311.477 97.9531 311.227 97.7969C310.98 97.6406 310.672 97.5625 310.301 97.5625C309.934 97.5625 309.637 97.6445 309.41 97.8086C309.188 97.9688 309.076 98.1797 309.076 98.4414C309.076 98.8398 309.365 99.1074 309.943 99.2441L310.963 99.5078C311.498 99.6367 311.93 99.8047 312.258 100.012C312.676 100.262 312.885 100.686 312.885 101.283C312.885 101.846 312.666 102.303 312.229 102.654C311.791 103.006 311.201 103.182 310.459 103.182C309.76 103.182 309.168 103.014 308.684 102.678C308.199 102.33 307.939 101.785 307.904 101.043H308.912C308.916 101.465 309.057 101.783 309.334 101.998C309.615 102.209 309.982 102.314 310.436 102.314C310.877 102.314 311.221 102.223 311.467 102.039C311.713 101.852 311.836 101.607 311.836 101.307C311.836 101.061 311.75 100.867 311.578 100.727C311.41 100.586 311.145 100.467 310.781 100.369ZM315.094 96.8828V103H314.051V96.8828H315.094ZM314.566 95.9102C314.375 95.9102 314.215 95.8457 314.086 95.7168C313.957 95.5879 313.893 95.4277 313.893 95.2363C313.893 95.0449 313.957 94.8848 314.086 94.7559C314.215 94.627 314.375 94.5625 314.566 94.5625C314.766 94.5625 314.93 94.627 315.059 94.7559C315.188 94.8809 315.252 95.041 315.252 95.2363C315.252 95.4316 315.188 95.5938 315.059 95.7227C314.93 95.8477 314.766 95.9102 314.566 95.9102ZM316.137 103V102.232L319.857 97.7207H316.377V96.8828H321.141V97.6504L317.42 102.162H321.346V103H316.137ZM328.301 100.275H323.08C323.158 100.904 323.396 101.4 323.795 101.764C324.197 102.123 324.682 102.303 325.248 102.303C325.697 102.303 326.094 102.191 326.438 101.969C326.781 101.742 327.029 101.445 327.182 101.078H328.248C328.025 101.73 327.646 102.244 327.111 102.619C326.576 102.994 325.951 103.182 325.236 103.182C324.326 103.182 323.566 102.877 322.957 102.268C322.344 101.654 322.037 100.879 322.037 99.9414C322.037 99.0078 322.344 98.2344 322.957 97.6211C323.57 97.0078 324.33 96.7012 325.236 96.7012C326.057 96.7012 326.777 96.9648 327.398 97.4922C328.031 98.0039 328.348 98.7402 328.348 99.7012C328.348 99.9629 328.332 100.154 328.301 100.275ZM325.236 97.5742C324.717 97.5742 324.258 97.7422 323.859 98.0781C323.465 98.4141 323.217 98.8555 323.115 99.4023H327.352C327.273 98.8398 327.037 98.3945 326.643 98.0664C326.248 97.7383 325.779 97.5742 325.236 97.5742ZM330.135 101.764C330.416 101.744 330.613 101.854 330.727 102.092C330.844 102.33 330.844 102.568 330.727 102.807C330.613 103.045 330.416 103.154 330.135 103.135C329.936 103.135 329.771 103.07 329.643 102.941C329.514 102.809 329.449 102.645 329.449 102.449C329.449 102.254 329.514 102.092 329.643 101.963C329.775 101.83 329.939 101.764 330.135 101.764ZM330.135 96.748C330.416 96.7285 330.613 96.8379 330.727 97.0762C330.844 97.3145 330.844 97.5527 330.727 97.791C330.613 98.0254 330.416 98.1328 330.135 98.1133C329.936 98.1133 329.771 98.0488 329.643 97.9199C329.514 97.791 329.449 97.6289 329.449 97.4336C329.449 97.2383 329.514 97.0762 329.643 96.9473C329.775 96.8145 329.939 96.748 330.135 96.748ZM336.188 99.3262H335.191L335.971 94.8496H340.107L339.99 95.7988H336.727L336.27 98.2012H336.316C336.832 97.7207 337.428 97.4805 338.104 97.4805C338.904 97.4805 339.537 97.7363 340.002 98.248C340.482 98.752 340.723 99.4199 340.723 100.252C340.723 101.119 340.471 101.822 339.967 102.361C339.463 102.9 338.754 103.17 337.84 103.17C337.586 103.17 337.342 103.148 337.107 103.105C336.873 103.062 336.635 102.984 336.393 102.871C336.15 102.758 335.938 102.615 335.754 102.443C335.57 102.268 335.414 102.037 335.285 101.752C335.16 101.467 335.084 101.143 335.057 100.779H336.053C336.08 101.24 336.26 101.604 336.592 101.869C336.928 102.135 337.34 102.268 337.828 102.268C338.391 102.268 338.834 102.084 339.158 101.717C339.486 101.346 339.65 100.857 339.65 100.252C339.65 99.6621 339.486 99.1934 339.158 98.8457C338.834 98.4941 338.402 98.3184 337.863 98.3184C337.09 98.3184 336.531 98.6543 336.188 99.3262ZM343.295 97.2871L342.861 103H341.76L342.48 94.5977H343.846L346.148 100.422H346.195L348.492 94.5977H349.869L350.59 103H349.459L349.055 97.2754C349.004 96.6543 348.984 96.2031 348.996 95.9219H348.943L346.617 101.799H345.732L343.4 95.9219H343.354C343.354 95.9258 343.346 96.1367 343.33 96.5547L343.295 97.2871ZM355.312 103H351.844V94.5977H355.119C355.893 94.5977 356.48 94.791 356.883 95.1777C357.285 95.5645 357.486 96.1035 357.486 96.7949C357.486 97.6699 357.094 98.2695 356.309 98.5938V98.6348C357.285 98.8652 357.773 99.541 357.773 100.662C357.773 101.357 357.557 101.922 357.123 102.355C356.693 102.785 356.09 103 355.312 103ZM355.148 99.1387H352.963V102.039H355.148C355.621 102.039 355.99 101.918 356.256 101.676C356.525 101.43 356.66 101.07 356.66 100.598C356.66 100.117 356.529 99.7539 356.268 99.5078C356.01 99.2617 355.637 99.1387 355.148 99.1387ZM354.943 95.5586H352.963V98.2246H354.943C355.381 98.2246 355.725 98.1074 355.975 97.873C356.229 97.6348 356.355 97.2988 356.355 96.8652C356.355 96.4355 356.232 96.1113 355.986 95.8926C355.74 95.6699 355.393 95.5586 354.943 95.5586ZM359.631 105.643H358.512C359.066 104.963 359.5 104.115 359.812 103.1C360.129 102.088 360.287 100.979 360.287 99.7715C360.287 98.5645 360.129 97.4531 359.812 96.4375C359.5 95.4219 359.066 94.5742 358.512 93.8945H359.631C360.115 94.5391 360.518 95.3789 360.838 96.4141C361.166 97.4648 361.33 98.584 361.33 99.7715C361.33 100.963 361.166 102.078 360.838 103.117C360.518 104.137 360.115 104.979 359.631 105.643Z" fill="#878B93"/>
<rect x="0.5" y="0.5" width="395" height="123" rx="7.5" stroke="#EAECF0"/>
</svg>
