<svg width="46" height="46" viewBox="0 0 46 46" fill="none" xmlns="http://www.w3.org/2000/svg">
<rect x="3" y="3" width="40" height="40" rx="20" fill="#F2F4F7"/>
<path d="M22.9997 16.3332C20.6985 16.3332 18.833 18.1987 18.833 20.4998C18.833 20.9601 18.4599 21.3332 17.9997 21.3332C16.511 21.3332 15.4997 22.367 15.4997 23.4165C15.4997 24.4661 16.511 25.4998 17.9997 25.4998C18.4599 25.4998 18.833 25.8729 18.833 26.3332C18.833 26.7934 18.4599 27.1665 17.9997 27.1665C15.8065 27.1665 13.833 25.5886 13.833 23.4165C13.833 21.5073 15.3577 20.0571 17.2162 19.7341C17.5911 16.8743 20.0376 14.6665 22.9997 14.6665C25.9618 14.6665 28.4082 16.8743 28.7832 19.7341C30.6416 20.0571 32.1663 21.5073 32.1663 23.4165C32.1663 25.5886 30.1929 27.1665 27.9997 27.1665C27.5394 27.1665 27.1663 26.7934 27.1663 26.3332C27.1663 25.8729 27.5394 25.4998 27.9997 25.4998C29.4884 25.4998 30.4997 24.4661 30.4997 23.4165C30.4997 22.367 29.4884 21.3332 27.9997 21.3332C27.5394 21.3332 27.1663 20.9601 27.1663 20.4998C27.1663 18.1987 25.3009 16.3332 22.9997 16.3332Z" fill="#404653"/>
<path d="M26.0889 24.4224C25.7635 24.7479 25.2359 24.7479 24.9104 24.4224L23.833 23.345V30.4998C23.833 30.9601 23.4599 31.3332 22.9997 31.3332C22.5394 31.3332 22.1663 30.9601 22.1663 30.4998V23.345L21.0889 24.4224C20.7635 24.7479 20.2359 24.7479 19.9104 24.4224C19.585 24.097 19.585 23.5694 19.9104 23.2439L22.4104 20.7439C22.5667 20.5876 22.7787 20.4998 22.9997 20.4998C23.2207 20.4998 23.4326 20.5876 23.5889 20.7439L26.0889 23.2439C26.4144 23.5694 26.4144 24.097 26.0889 24.4224Z" fill="#404653"/>
<rect x="3" y="3" width="40" height="40" rx="20" stroke="#F9FAFB" stroke-width="6"/>
</svg>
