<svg width="15" height="14" viewBox="0 0 15 14" fill="none" xmlns="http://www.w3.org/2000/svg">
<path d="M8.375 9.625C8.375 10.1082 7.98325 10.5 7.5 10.5C7.01675 10.5 6.625 10.1082 6.625 9.625C6.625 9.14175 7.01675 8.75 7.5 8.75C7.98325 8.75 8.375 9.14175 8.375 9.625Z" fill="#1E1E1E"/>
<path d="M7.24592 3.5C6.90944 3.5 6.64273 3.7839 6.66372 4.11972L6.89956 7.89319C6.90917 8.04691 7.03664 8.16667 7.19066 8.16667H7.80932C7.96333 8.16667 8.09081 8.04691 8.10041 7.89319L8.33626 4.11972C8.35724 3.7839 8.09054 3.5 7.75406 3.5H7.24592Z" fill="#1E1E1E"/>
<path fill-rule="evenodd" clip-rule="evenodd" d="M0.5 7C0.5 3.13401 3.63401 0 7.5 0C11.366 0 14.5 3.13401 14.5 7C14.5 10.866 11.366 14 7.5 14C3.63401 14 0.5 10.866 0.5 7ZM7.5 1.16667C4.27834 1.16667 1.66667 3.77834 1.66667 7C1.66667 10.2217 4.27834 12.8333 7.5 12.8333C10.7217 12.8333 13.3333 10.2217 13.3333 7C13.3333 3.77834 10.7217 1.16667 7.5 1.16667Z" fill="#1E1E1E"/>
</svg>
