<svg width="22" height="20" viewBox="0 0 22 20" fill="none" xmlns="http://www.w3.org/2000/svg">
<path fill-rule="evenodd" clip-rule="evenodd" d="M5.6165 2.70537C4.11461 2.93323 2.74984 4.19476 2.74984 6.54285C2.74984 7.68424 3.22668 8.9353 4.03995 10.2198C4.8473 11.495 5.93923 12.7293 7.05638 13.8184C8.17014 14.9042 9.28755 15.8249 10.1283 16.4751C10.4732 16.7418 10.7702 16.962 10.9998 17.1284C11.2294 16.962 11.5265 16.7418 11.8714 16.4751C12.7121 15.8249 13.8295 14.9042 14.9433 13.8184C16.0605 12.7293 17.1524 11.495 17.9597 10.2198C18.773 8.9353 19.2498 7.68424 19.2498 6.54285C19.2498 4.19476 17.8851 2.93323 16.3832 2.70537C14.858 2.47398 12.9341 3.27677 11.8326 5.67152C11.6831 5.99675 11.3578 6.20514 10.9998 6.20514C10.6419 6.20514 10.3166 5.99675 10.167 5.67152C9.06559 3.27677 7.14168 2.47398 5.6165 2.70537ZM10.9998 18.2502L11.5114 19.0108C11.2021 19.2188 10.7976 19.2188 10.4883 19.0108L10.9998 18.2502ZM10.9998 3.47799C9.51929 1.45132 7.35307 0.587597 5.34151 0.89278C2.88507 1.26546 0.916504 3.34886 0.916504 6.54285C0.916504 8.1725 1.5855 9.77038 2.49097 11.2005C3.40238 12.6401 4.60212 13.9862 5.77662 15.1312C6.95453 16.2795 8.1288 17.2464 9.00678 17.9254C9.44652 18.2654 9.81378 18.5347 10.0724 18.7198C10.2018 18.8124 10.3041 18.8841 10.3749 18.9331C10.4103 18.9576 10.4378 18.9765 10.4569 18.9895L10.4791 19.0046L10.4853 19.0088L10.4883 19.0108C10.4883 19.0108 10.4883 19.0108 10.9998 18.2502C11.5114 19.0108 11.5114 19.0108 11.5114 19.0108L11.5143 19.0088L11.5206 19.0046L11.5428 18.9895C11.5619 18.9765 11.5894 18.9576 11.6248 18.9331C11.6955 18.8841 11.7979 18.8124 11.9272 18.7198C12.1859 18.5347 12.5532 18.2654 12.9929 17.9254C13.8709 17.2464 15.0451 16.2795 16.2231 15.1312C17.3976 13.9862 18.5973 12.6401 19.5087 11.2005C20.4142 9.77038 21.0832 8.1725 21.0832 6.54285C21.0832 3.34886 19.1146 1.26546 16.6582 0.89278C14.6466 0.587597 12.4804 1.45132 10.9998 3.47799Z" fill="#9FA3A9"/>
</svg>
