<svg width="250" height="244" viewBox="0 0 250 244" fill="none" xmlns="http://www.w3.org/2000/svg">
<path d="M244.798 121.566C244.798 185.835 191.45 238.132 125.397 238.132C59.3445 238.132 5.99609 185.835 5.99609 121.566C5.99609 57.2963 59.3445 5 125.397 5C191.45 5 244.798 57.2963 244.798 121.566Z" stroke="#325C5D" stroke-width="10"/>
<path fill-rule="evenodd" clip-rule="evenodd" d="M64.2227 124.501V106.237H106.526H111.526V101.237V63.5384L141.074 63.2487V101.237V106.237H146.074H185.269C187.018 109.416 190.4 111.57 194.285 111.57C199.965 111.57 204.57 106.965 204.57 101.285C204.57 95.6046 199.965 90.9999 194.285 90.9999C190.439 90.9999 187.086 93.1107 185.322 96.2371H151.074V58.1994V53.1501L146.025 53.1997L106.477 53.5874L101.526 53.636V58.5872V96.2371H59.2227H54.2227V101.237V124.501H64.2227Z" fill="#325C5D"/>
<path fill-rule="evenodd" clip-rule="evenodd" d="M187.123 118.747V137.337L145.298 137.336L140.298 137.336V142.336V179.986H111.526V142.724V137.724H106.526H68.506C66.825 134.332 63.3273 132 59.285 132C53.6048 132 49 136.605 49 142.285C49 147.965 53.6048 152.57 59.285 152.57C62.9681 152.57 66.1991 150.634 68.0157 147.724H101.526V184.986V189.986H106.526H145.298H150.298V184.986V147.336L192.123 147.337L197.123 147.337V142.337V118.747H187.123Z" fill="#4BAA5E"/>
</svg>
